MulatAwash-Regular.ufo
<glyph name="exclam" format="2">
  <advance width="450"/>
  <unicode hex="0021"/>
  <note>
exclam
</note>
  <outline>
    <contour>
      <point x="252" y="103" type="line"/>
      <point x="265" y="122"/>
      <point x="713" y="777"/>
      <point x="730" y="823" type="curve"/>
      <point x="727" y="832" type="line"/>
      <point x="720" y="834" type="line"/>
      <point x="676" y="836" type="line" smooth="yes"/>
      <point x="637" y="836"/>
      <point x="612" y="826"/>
      <point x="601" y="806" type="curve" smooth="yes"/>
      <point x="239" y="114" type="line"/>
      <point x="238" y="105" type="line"/>
    </contour>
    <contour>
      <point x="179" y="-70" type="curve" smooth="yes"/>
      <point x="207" y="-70"/>
      <point x="249" y="-49"/>
      <point x="249" y="6" type="curve" smooth="yes"/>
      <point x="249" y="21"/>
      <point x="231" y="48"/>
      <point x="199" y="48" type="curve" smooth="yes"/>
      <point x="166" y="48"/>
      <point x="129" y="23"/>
      <point x="129" y="-28" type="curve" smooth="yes"/>
      <point x="129" y="-44"/>
      <point x="146" y="-70"/>
    </contour>
  </outline>
</glyph>
<glyph name="quotedbl" format="2">
  <advance width="318"/>
  <unicode hex="0022"/>
  <note>
quotedbl
</note>
  <outline>
    <contour>
      <point x="287" y="459" type="line"/>
      <point x="297" y="459" type="line"/>
      <point x="298.333" y="463"/>
      <point x="332" y="586.667"/>
      <point x="332" y="628" type="curve" smooth="yes"/>
      <point x="332" y="647.333"/>
      <point x="324" y="657"/>
      <point x="308" y="657" type="curve" smooth="yes"/>
      <point x="289.333" y="657"/>
      <point x="277.667" y="643.667"/>
      <point x="279" y="625" type="curve" smooth="yes"/>
    </contour>
    <contour>
      <point x="179" y="459" type="line"/>
      <point x="189" y="459" type="line"/>
      <point x="211.667" y="545.667"/>
      <point x="223" y="600.333"/>
      <point x="223" y="623" type="curve" smooth="yes"/>
      <point x="223" y="645.667"/>
      <point x="215.333" y="657"/>
      <point x="200" y="657" type="curve" smooth="yes"/>
      <point x="182.667" y="657"/>
      <point x="168.667" y="641.333"/>
      <point x="170" y="624" type="curve" smooth="yes"/>
    </contour>
  </outline>
</glyph>
<glyph name="numbersign" format="2">
  <advance width="746"/>
  <unicode hex="0023"/>
  <note>
numbersign
</note>
  <outline>
    <contour>
      <point x="45" y="0" type="line"/>
      <point x="98" y="0" type="line"/>
      <point x="237" y="229" type="line"/>
      <point x="375" y="229" type="line"/>
      <point x="238" y="0" type="line"/>
      <point x="291" y="0" type="line"/>
      <point x="430" y="229" type="line"/>
      <point x="591" y="229" type="line"/>
      <point x="620" y="276" type="line"/>
      <point x="459" y="276" type="line"/>
      <point x="542" y="417" type="line"/>
      <point x="691" y="417" type="line"/>
      <point x="719" y="465" type="line"/>
      <point x="571" y="465" type="line"/>
      <point x="710" y="696" type="line"/>
      <point x="656" y="696" type="line"/>
      <point x="517" y="465" type="line"/>
      <point x="377" y="465" type="line"/>
      <point x="517" y="696" type="line"/>
      <point x="462" y="696" type="line"/>
      <point x="324" y="465" type="line"/>
      <point x="154" y="465" type="line"/>
      <point x="125" y="417" type="line"/>
      <point x="295" y="417" type="line"/>
      <point x="211" y="276" type="line"/>
      <point x="55" y="276" type="line"/>
      <point x="25" y="229" type="line"/>
      <point x="183" y="229" type="line"/>
    </contour>
    <contour>
      <point x="264" y="276" type="line"/>
      <point x="349" y="417" type="line"/>
      <point x="488" y="417" type="line"/>
      <point x="404" y="276" type="line"/>
    </contour>
  </outline>
</glyph>
<glyph name="dollar" format="2">
  <advance width="449"/>
  <unicode hex="0024"/>
  <note>
dollar
</note>
  <outline>
    <contour>
      <point x="21" y="-61" type="line"/>
      <point x="55" y="-55" type="line"/>
      <point x="83" y="-2" type="line"/>
      <point x="160.333" y="-2"/>
      <point x="241" y="24.667"/>
      <point x="297" y="86" type="curve" smooth="yes"/>
      <point x="357.629" y="152.403"/>
      <point x="354.965" y="231.031"/>
      <point x="272" y="340" type="curve"/>
      <point x="389" y="552" type="line"/>
      <point x="426.333" y="544"/>
      <point x="447.333" y="524"/>
      <point x="452" y="492" type="curve"/>
      <point x="449.333" y="500"/>
      <point x="433.5" y="509"/>
      <point x="415.5" y="509" type="curve" smooth="yes"/>
      <point x="397.5" y="509"/>
      <point x="376" y="490.167"/>
      <point x="376" y="465.5" type="curve" smooth="yes"/>
      <point x="376" y="440.833"/>
      <point x="393.833" y="421"/>
      <point x="422.5" y="421" type="curve" smooth="yes"/>
      <point x="451.167" y="421"/>
      <point x="475" y="450.333"/>
      <point x="475" y="489" type="curve" smooth="yes"/>
      <point x="475" y="527.667"/>
      <point x="451.667" y="564"/>
      <point x="401" y="572" type="curve"/>
      <point x="434" y="633" type="line"/>
      <point x="402" y="627" type="line"/>
      <point x="374" y="575" type="line"/>
      <point x="298.667" y="575"/>
      <point x="238.667" y="552.667"/>
      <point x="194" y="508" type="curve" smooth="yes"/>
      <point x="169.333" y="483.333"/>
      <point x="157" y="453.667"/>
      <point x="157" y="419" type="curve" smooth="yes"/>
      <point x="157" y="384.333"/>
      <point x="177" y="342.333"/>
      <point x="217" y="293" type="curve"/>
      <point x="68" y="21" type="line"/>
      <point x="23.333" y="29.667"/>
      <point x="-12.667" y="48.333"/>
      <point x="-40" y="77" type="curve"/>
      <point x="-49" y="77" type="line"/>
      <point x="-60.333" y="65.667"/>
      <point x="-66.333" y="57.667"/>
      <point x="-67" y="53" type="curve"/>
      <point x="-49.667" y="29.667"/>
      <point x="-8.667" y="12"/>
      <point x="56" y="0" type="curve"/>
    </contour>
    <contour>
      <point x="94" y="18" type="curve"/>
      <point x="235" y="272" type="line"/>
      <point x="262.333" y="235.333"/>
      <point x="276" y="202.667"/>
      <point x="276" y="174" type="curve" smooth="yes"/>
      <point x="276" y="84.667"/>
      <point x="186" y="18"/>
    </contour>
    <contour>
      <point x="256" y="362" type="line"/>
      <point x="241.921" y="387.225"/>
      <point x="206.085" y="436.738"/>
      <point x="220" y="446" type="curve"/>
      <point x="220" y="508.667"/>
      <point x="286" y="557"/>
      <point x="350" y="557" type="curve" smooth="yes"/>
      <point x="364" y="556" type="line"/>
    </contour>
  </outline>
</glyph>
<glyph name="percent" format="2">
  <advance width="621"/>
  <unicode hex="0025"/>
  <note>
percent
</note>
  <outline>
    <contour>
      <point x="-32" y="-84" type="line"/>
      <point x="5" y="-84" type="line"/>
      <point x="620" y="661" type="line"/>
      <point x="606.37" y="708.705"/>
      <point x="533.667" y="572.533"/>
      <point x="413" y="476" type="curve" smooth="yes"/>
      <point x="355.667" y="430"/>
      <point x="311.333" y="407"/>
      <point x="280" y="407" type="curve" smooth="yes"/>
      <point x="261.333" y="407"/>
      <point x="247.333" y="415.333"/>
      <point x="238" y="432" type="curve"/>
      <point x="248" y="441.333"/>
      <point x="258.667" y="454"/>
      <point x="270" y="470" type="curve" smooth="yes"/>
      <point x="320.667" y="539.333"/>
      <point x="346" y="602.667"/>
      <point x="346" y="660" type="curve" smooth="yes"/>
      <point x="346" y="708"/>
      <point x="321" y="732"/>
      <point x="271" y="732" type="curve" smooth="yes"/>
      <point x="205.667" y="732"/>
      <point x="123" y="656"/>
      <point x="83" y="564" type="curve" smooth="yes"/>
      <point x="68.333" y="532"/>
      <point x="61" y="501.667"/>
      <point x="61" y="473" type="curve" smooth="yes"/>
      <point x="61" y="411.667"/>
      <point x="85.333" y="381"/>
      <point x="134" y="381" type="curve" smooth="yes"/>
      <point x="161.333" y="381"/>
      <point x="189.667" y="392.333"/>
      <point x="219" y="415" type="curve"/>
      <point x="235" y="398.333"/>
      <point x="254.667" y="390"/>
      <point x="278" y="390" type="curve" smooth="yes"/>
      <point x="319.333" y="390"/>
      <point x="372.333" y="417.667"/>
      <point x="437" y="473" type="curve"/>
      <point x="278" y="277" type="line" smooth="yes"/>
      <point x="166" y="139.667"/>
      <point x="62.333" y="21"/>
      <point x="-33" y="-79" type="curve"/>
    </contour>
    <contour>
      <point x="351" y="-29" type="curve" smooth="yes"/>
      <point x="401.667" y="-29"/>
      <point x="452" y="7"/>
      <point x="502" y="79" type="curve" smooth="yes"/>
      <point x="543.333" y="139"/>
      <point x="564" y="194.333"/>
      <point x="564" y="245" type="curve" smooth="yes"/>
      <point x="564" y="295.667"/>
      <point x="538.667" y="321"/>
      <point x="488" y="321" type="curve" smooth="yes"/>
      <point x="422.667" y="321"/>
      <point x="340" y="246.333"/>
      <point x="300" y="153" type="curve" smooth="yes"/>
      <point x="285.333" y="121"/>
      <point x="278" y="91"/>
      <point x="278" y="63" type="curve" smooth="yes"/>
      <point x="278" y="1.667"/>
      <point x="302.333" y="-29"/>
    </contour>
    <contour>
      <point x="369" y="-8" type="curve" smooth="yes"/>
      <point x="345.667" y="-8"/>
      <point x="334" y="7"/>
      <point x="334" y="37" type="curve" smooth="yes"/>
      <point x="334" y="67"/>
      <point x="345.667" y="106.667"/>
      <point x="369" y="156" type="curve" smooth="yes"/>
      <point x="409" y="240"/>
      <point x="462.667" y="289"/>
      <point x="500" y="289" type="curve" smooth="yes"/>
      <point x="524.667" y="289"/>
      <point x="537" y="274.333"/>
      <point x="537" y="245" type="curve" smooth="yes"/>
      <point x="537" y="207.667"/>
      <point x="503.333" y="110.333"/>
      <point x="474" y="73" type="curve" smooth="yes"/>
      <point x="459.333" y="54.333"/>
      <point x="448.167" y="40.667"/>
      <point x="440.5" y="32" type="curve" smooth="yes"/>
      <point x="425.167" y="14.667"/>
      <point x="390.333" y="-8"/>
    </contour>
    <contour>
      <point x="153" y="403" type="curve" smooth="yes"/>
      <point x="129" y="403"/>
      <point x="117" y="418"/>
      <point x="117" y="448" type="curve" smooth="yes"/>
      <point x="117" y="478"/>
      <point x="128.667" y="517.333"/>
      <point x="152" y="566" type="curve" smooth="yes"/>
      <point x="192" y="650"/>
      <point x="246" y="700"/>
      <point x="282" y="700" type="curve" smooth="yes"/>
      <point x="286" y="700"/>
      <point x="290" y="699.333"/>
      <point x="294" y="698" type="curve" smooth="yes"/>
      <point x="311.333" y="693.333"/>
      <point x="320" y="678.333"/>
      <point x="320" y="653" type="curve" smooth="yes"/>
      <point x="320" y="627.667"/>
      <point x="310.667" y="593.333"/>
      <point x="292" y="550" type="curve" smooth="yes"/>
      <point x="279.333" y="520"/>
      <point x="267" y="496.667"/>
      <point x="255" y="480" type="curve"/>
      <point x="257.394" y="513.258"/>
      <point x="249" y="521"/>
      <point x="227" y="521" type="curve" smooth="yes"/>
      <point x="204.333" y="521"/>
      <point x="193" y="506.667"/>
      <point x="193" y="478" type="curve" smooth="yes"/>
      <point x="191.667" y="462.667"/>
      <point x="196.667" y="446.333"/>
      <point x="208" y="429" type="curve"/>
      <point x="187.333" y="411.667"/>
      <point x="169" y="403"/>
    </contour>
  </outline>
</glyph>
<glyph name="ampersand" format="2">
  <advance width="606"/>
  <unicode hex="0026"/>
  <note>
ampersand
</note>
  <outline>
    <contour>
      <point x="261" y="-45" type="curve" smooth="yes"/>
      <point x="346.333" y="-45"/>
      <point x="428.667" y="-12.667"/>
      <point x="478" y="34" type="curve" smooth="yes"/>
      <point x="530" y="81.333"/>
      <point x="556" y="127.333"/>
      <point x="556" y="172" type="curve" smooth="yes"/>
      <point x="556" y="204"/>
      <point x="543.333" y="230.333"/>
      <point x="518" y="251" type="curve"/>
      <point x="523" y="251" type="line" smooth="yes"/>
      <point x="608.333" y="251"/>
      <point x="698.667" y="284.333"/>
      <point x="732" y="335" type="curve" smooth="yes"/>
      <point x="740.667" y="347"/>
      <point x="745" y="360.167"/>
      <point x="745" y="374.5" type="curve" smooth="yes"/>
      <point x="745" y="388.833"/>
      <point x="740.333" y="404"/>
      <point x="731" y="420" type="curve" smooth="yes"/>
      <point x="725.194" y="429.677"/>
      <point x="710.23" y="425.511"/>
      <point x="723" y="407" type="curve" smooth="yes"/>
      <point x="727" y="400.333"/>
      <point x="729" y="392.5"/>
      <point x="729" y="383.5" type="curve" smooth="yes"/>
      <point x="729" y="374.5"/>
      <point x="726.333" y="366"/>
      <point x="721" y="358" type="curve" smooth="yes"/>
      <point x="709.667" y="342.667"/>
      <point x="691.667" y="329.333"/>
      <point x="667" y="318" type="curve" smooth="yes"/>
      <point x="616.333" y="294.667"/>
      <point x="573.667" y="283"/>
      <point x="539" y="283" type="curve" smooth="yes"/>
      <point x="362" y="283" type="line" smooth="yes"/>
      <point x="263.333" y="283"/>
      <point x="196" y="246.667"/>
      <point x="180" y="200" type="curve" smooth="yes"/>
      <point x="176.667" y="192"/>
      <point x="175" y="181.667"/>
      <point x="175" y="169" type="curve" smooth="yes"/>
      <point x="175" y="156.333"/>
      <point x="181" y="140.667"/>
      <point x="193" y="122" type="curve" smooth="yes"/>
      <point x="210.333" y="93.333"/>
      <point x="240" y="67.667"/>
      <point x="282" y="45" type="curve" smooth="yes"/>
      <point x="286.667" y="42.333"/>
      <point x="289.5" y="44.167"/>
      <point x="290.5" y="50.5" type="curve" smooth="yes"/>
      <point x="291.5" y="56.833"/>
      <point x="288.667" y="62"/>
      <point x="282" y="66" type="curve" smooth="yes"/>
      <point x="237.333" y="89.333"/>
      <point x="215" y="115.333"/>
      <point x="215" y="144" type="curve" smooth="yes"/>
      <point x="215" y="172.667"/>
      <point x="227.667" y="195.667"/>
      <point x="253" y="213" type="curve" smooth="yes"/>
      <point x="295.667" y="242.333"/>
      <point x="343.167" y="244"/>
      <point x="370.5" y="244" type="curve" smooth="yes"/>
      <point x="397.833" y="244"/>
      <point x="441.167" y="243.833"/>
      <point x="476.5" y="216.5" type="curve" smooth="yes"/>
      <point x="494.167" y="202.833"/>
      <point x="503" y="185.667"/>
      <point x="503" y="165" type="curve" smooth="yes"/>
      <point x="503" y="78.333"/>
      <point x="391.667" y="-32"/>
      <point x="261" y="-32" type="curve" smooth="yes"/>
      <point x="187.667" y="-32"/>
      <point x="140" y="0"/>
      <point x="118" y="64" type="curve" smooth="yes"/>
      <point x="110.667" y="86.667"/>
      <point x="107" y="109.667"/>
      <point x="107" y="133" type="curve" smooth="yes"/>
      <point x="107" y="175"/>
      <point x="119.333" y="218"/>
      <point x="144" y="262" type="curve" smooth="yes"/>
      <point x="182.667" y="330"/>
      <point x="239.333" y="369.667"/>
      <point x="314" y="381" type="curve"/>
      <point x="343.333" y="351.667"/>
      <point x="377" y="337"/>
      <point x="415" y="337" type="curve" smooth="yes"/>
      <point x="437" y="337"/>
      <point x="452" y="342"/>
      <point x="460" y="352" type="curve" smooth="yes"/>
      <point x="463.333" y="356"/>
      <point x="465" y="360.667"/>
      <point x="465" y="366" type="curve" smooth="yes"/>
      <point x="465" y="371.333"/>
      <point x="462.667" y="376.667"/>
      <point x="458" y="382" type="curve" smooth="yes"/>
      <point x="448.667" y="394"/>
      <point x="430" y="401"/>
      <point x="402" y="400" type="curve" smooth="yes"/>
      <point x="335" y="398" type="line"/>
      <point x="329" y="411.333"/>
      <point x="326" y="426.333"/>
      <point x="326" y="443" type="curve" smooth="yes"/>
      <point x="326" y="459.667"/>
      <point x="330.667" y="478.667"/>
      <point x="340" y="500" type="curve" smooth="yes"/>
      <point x="404.907" y="642.297"/>
      <point x="587.694" y="710.12"/>
      <point x="653" y="662" type="curve" smooth="yes"/>
      <point x="665" y="654"/>
      <point x="671" y="642.667"/>
      <point x="671" y="628" type="curve" smooth="yes"/>
      <point x="671" y="624"/>
      <point x="670.667" y="620"/>
      <point x="670" y="616" type="curve"/>
      <point x="667.333" y="625.333"/>
      <point x="650" y="634"/>
      <point x="634" y="634" type="curve" smooth="yes"/>
      <point x="610" y="634"/>
      <point x="589" y="614.667"/>
      <point x="589" y="588" type="curve" smooth="yes"/>
      <point x="589" y="561.333"/>
      <point x="608.5" y="541"/>
      <point x="638.5" y="541" type="curve" smooth="yes"/>
      <point x="668.5" y="541"/>
      <point x="697" y="576.333"/>
      <point x="697" y="615" type="curve" smooth="yes"/>
      <point x="697" y="676.333"/>
      <point x="641.333" y="703"/>
      <point x="572" y="703" type="curve" smooth="yes"/>
      <point x="327" y="703"/>
      <point x="264" y="545"/>
      <point x="264.125" y="482.712" type="curve" smooth="yes"/>
      <point x="264" y="402"/>
      <point x="191.451" y="370.501"/>
      <point x="164" y="357" type="curve" smooth="yes"/>
      <point x="93.333" y="322.333"/>
      <point x="46.333" y="273.333"/>
      <point x="23" y="210" type="curve" smooth="yes"/>
      <point x="14.333" y="186"/>
      <point x="10" y="160"/>
      <point x="10" y="132" type="curve" smooth="yes"/>
      <point x="10" y="104"/>
      <point x="20.667" y="75"/>
      <point x="42" y="45" type="curve" smooth="yes"/>
      <point x="84.667" y="-15"/>
      <point x="157.667" y="-45"/>
    </contour>
    <contour>
      <point x="407.5" y="354" type="curve" smooth="yes"/>
      <point x="380.5" y="354"/>
      <point x="359" y="364"/>
      <point x="343" y="384" type="curve"/>
      <point x="353.667" y="384.667"/>
      <point x="364" y="385"/>
      <point x="374" y="385" type="curve" smooth="yes"/>
      <point x="423.333" y="385"/>
      <point x="448" y="379"/>
      <point x="448" y="367" type="curve" smooth="yes"/>
      <point x="448" y="358.333"/>
      <point x="434.5" y="354"/>
    </contour>
  </outline>
</glyph>
<glyph name="quotesingle" format="2">
  <advance width="158"/>
  <unicode hex="0027"/>
  <note>
quotesingle
</note>
  <outline>
    <contour>
      <point x="81" y="387" type="curve" smooth="yes"/>
      <point x="83.667" y="387"/>
      <point x="86" y="387.333"/>
      <point x="88" y="388" type="curve" smooth="yes"/>
      <point x="140" y="405.333"/>
      <point x="188" y="445.333"/>
      <point x="188" y="504" type="curve" smooth="yes"/>
      <point x="188" y="533.333"/>
      <point x="173.167" y="559"/>
      <point x="148.5" y="559" type="curve" smooth="yes"/>
      <point x="127.586" y="559"/>
      <point x="98" y="544.732"/>
      <point x="98" y="506" type="curve"/>
      <point x="102.843" y="468.064"/>
      <point x="158.88" y="470.764"/>
      <point x="161.883" y="485.095" type="curve"/>
      <point x="156.217" y="442.913"/>
      <point x="124.716" y="413.563"/>
      <point x="85" y="399" type="curve" smooth="yes"/>
      <point x="79.667" y="397"/>
      <point x="77" y="394"/>
      <point x="77" y="390" type="curve" smooth="yes"/>
      <point x="77" y="388"/>
      <point x="78.333" y="387"/>
    </contour>
  </outline>
</glyph>
<glyph name="parenleft" format="2">
  <advance width="350"/>
  <unicode hex="0028"/>
  <note>
parenleft
</note>
  <outline>
    <contour>
      <point x="204" y="-60" type="curve" smooth="yes"/>
      <point x="239.333" y="-60"/>
      <point x="256.667" y="-54.667"/>
      <point x="256" y="-44" type="curve" smooth="yes"/>
      <point x="255.333" y="-38"/>
      <point x="250.333" y="-35.5"/>
      <point x="241" y="-36.5" type="curve" smooth="yes"/>
      <point x="231.667" y="-37.5"/>
      <point x="224" y="-38"/>
      <point x="218" y="-38" type="curve" smooth="yes"/>
      <point x="190" y="-38"/>
      <point x="166" y="-29.667"/>
      <point x="146" y="-13" type="curve" smooth="yes"/>
      <point x="104" y="22.333"/>
      <point x="83" y="83"/>
      <point x="83" y="169" type="curve" smooth="yes"/>
      <point x="83" y="283"/>
      <point x="120.667" y="395.667"/>
      <point x="196" y="507" type="curve" smooth="yes"/>
      <point x="299.935" y="657.412"/>
      <point x="438.646" y="729.564"/>
      <point x="496" y="734" type="curve"/>
      <point x="510.667" y="738.667"/>
      <point x="518.333" y="744.333"/>
      <point x="519" y="751" type="curve" smooth="yes"/>
      <point x="519" y="755"/>
      <point x="516.667" y="757"/>
      <point x="512" y="757" type="curve" smooth="yes"/>
      <point x="507.333" y="757"/>
      <point x="502" y="756.333"/>
      <point x="496" y="755" type="curve" smooth="yes"/>
      <point x="386.667" y="727"/>
      <point x="274.5" y="654.5"/>
      <point x="196.5" y="572.5" type="curve" smooth="yes"/>
      <point x="118.5" y="490.5"/>
      <point x="61" y="398.667"/>
      <point x="41" y="324" type="curve" smooth="yes"/>
      <point x="30.333" y="277.333"/>
      <point x="25" y="237.333"/>
      <point x="25" y="204" type="curve" smooth="yes"/>
      <point x="25" y="170.667"/>
      <point x="27.333" y="142.333"/>
      <point x="32" y="119" type="curve" smooth="yes"/>
      <point x="56" y="1.667"/>
      <point x="133.333" y="-60"/>
    </contour>
  </outline>
</glyph>
<glyph name="parenright" format="2">
  <advance width="518"/>
  <unicode hex="0029"/>
  <note>
parenright
</note>
  <outline>
    <contour>
      <point x="21" y="-53" type="curve" smooth="yes"/>
      <point x="25.667" y="-53"/>
      <point x="31" y="-52.333"/>
      <point x="37" y="-51" type="curve" smooth="yes"/>
      <point x="182.333" y="-13.667"/>
      <point x="327.333" y="101"/>
      <point x="410" y="217" type="curve" smooth="yes"/>
      <point x="451.333" y="275"/>
      <point x="478.667" y="329.333"/>
      <point x="492" y="380" type="curve" smooth="yes"/>
      <point x="502.667" y="426.667"/>
      <point x="508" y="466.667"/>
      <point x="508" y="500" type="curve" smooth="yes"/>
      <point x="508" y="533.333"/>
      <point x="505.667" y="561.667"/>
      <point x="501" y="585" type="curve" smooth="yes"/>
      <point x="477" y="702.333"/>
      <point x="399.667" y="764"/>
      <point x="329" y="764" type="curve" smooth="yes"/>
      <point x="293.667" y="764"/>
      <point x="276.333" y="758.667"/>
      <point x="277" y="748" type="curve" smooth="yes"/>
      <point x="278.333" y="742"/>
      <point x="283.5" y="739.5"/>
      <point x="292.5" y="740.5" type="curve" smooth="yes"/>
      <point x="301.5" y="741.5"/>
      <point x="308.667" y="742"/>
      <point x="314" y="742" type="curve" smooth="yes"/>
      <point x="342" y="742"/>
      <point x="366.333" y="733.333"/>
      <point x="387" y="716" type="curve" smooth="yes"/>
      <point x="429" y="681.333"/>
      <point x="450" y="621"/>
      <point x="450" y="535" type="curve" smooth="yes"/>
      <point x="450" y="408.333"/>
      <point x="401.333" y="280.333"/>
      <point x="304" y="151" type="curve" smooth="yes"/>
      <point x="242.667" y="69.667"/>
      <point x="144.667" y="-2"/>
      <point x="38" y="-30" type="curve" smooth="yes"/>
      <point x="22" y="-34"/>
      <point x="14" y="-39.667"/>
      <point x="14" y="-47" type="curve" smooth="yes"/>
      <point x="14" y="-51"/>
      <point x="16.333" y="-53"/>
    </contour>
  </outline>
</glyph>
<glyph name="asterisk" format="2">
  <advance width="431"/>
  <unicode hex="002A"/>
  <note>
asterisk
</note>
  <outline>
    <contour>
      <point x="273.5" y="210" type="curve" smooth="yes"/>
      <point x="279.833" y="210"/>
      <point x="286" y="215.333"/>
      <point x="292" y="226" type="curve" smooth="yes"/>
      <point x="296" y="234.667"/>
      <point x="296.667" y="241.667"/>
      <point x="294" y="247" type="curve" smooth="yes"/>
      <point x="277.333" y="279"/>
      <point x="259.667" y="314"/>
      <point x="241" y="352" type="curve"/>
      <point x="373" y="357" type="line"/>
      <point x="383" y="358" type="line"/>
      <point x="399.667" y="362"/>
      <point x="408" y="369"/>
      <point x="408" y="379" type="curve" smooth="yes"/>
      <point x="408" y="385.667"/>
      <point x="402.667" y="389"/>
      <point x="392" y="389" type="curve" smooth="yes"/>
      <point x="256" y="389" type="line"/>
      <point x="341" y="481" type="line" smooth="yes"/>
      <point x="351" y="491.667"/>
      <point x="356" y="500"/>
      <point x="356" y="506" type="curve" smooth="yes"/>
      <point x="356" y="512"/>
      <point x="355.333" y="516.333"/>
      <point x="354" y="519" type="curve" smooth="yes"/>
      <point x="350.667" y="527.667"/>
      <point x="344" y="527"/>
      <point x="334" y="517" type="curve" smooth="yes"/>
      <point x="218" y="400" type="line"/>
      <point x="159" y="515" type="line" smooth="yes"/>
      <point x="151.667" y="529.667"/>
      <point x="143.333" y="537"/>
      <point x="134" y="537" type="curve"/>
      <point x="129" y="536" type="line" smooth="yes"/>
      <point x="120.333" y="534"/>
      <point x="119" y="526.667"/>
      <point x="125" y="514" type="curve" smooth="yes"/>
      <point x="144.333" y="473.333"/>
      <point x="163.333" y="431.667"/>
      <point x="182" y="389" type="curve"/>
      <point x="37" y="389" type="line" smooth="yes"/>
      <point x="23" y="389"/>
      <point x="16" y="382.333"/>
      <point x="16" y="369" type="curve" smooth="yes"/>
      <point x="16" y="359.667"/>
      <point x="24" y="344"/>
      <point x="36" y="344" type="curve" smooth="yes"/>
      <point x="168" y="349" type="line"/>
      <point x="68" y="248" type="line" smooth="yes"/>
      <point x="35.969" y="216.496"/>
      <point x="100.795" y="201.183"/>
      <point x="97" y="216" type="curve"/>
      <point x="206" y="335" type="line"/>
      <point x="256" y="223" type="line"/>
      <point x="261.333" y="214.333"/>
      <point x="267.167" y="210"/>
    </contour>
  </outline>
</glyph>
<glyph name="plus" format="2">
  <advance width="458"/>
  <unicode hex="002B"/>
  <note>
plus
</note>
  <outline>
    <contour>
      <point x="267" y="51" type="curve" smooth="yes"/>
      <point x="270.333" y="51"/>
      <point x="274" y="51.333"/>
      <point x="278" y="52" type="curve" smooth="yes"/>
      <point x="292.667" y="55.333"/>
      <point x="300.667" y="60.667"/>
      <point x="302" y="68" type="curve" smooth="yes"/>
      <point x="302.667" y="77.333"/>
      <point x="307.333" y="106.667"/>
      <point x="316" y="156" type="curve" smooth="yes"/>
      <point x="325" y="205" type="line"/>
      <point x="382.333" y="209"/>
      <point x="426.667" y="211"/>
      <point x="458" y="211" type="curve" smooth="yes"/>
      <point x="472" y="211"/>
      <point x="479" y="215.333"/>
      <point x="479" y="224" type="curve" smooth="yes"/>
      <point x="479" y="229.333"/>
      <point x="475.667" y="238"/>
      <point x="461" y="238" type="curve" smooth="yes"/>
      <point x="395" y="238" type="line" smooth="yes"/>
      <point x="365" y="238"/>
      <point x="343.667" y="238.333"/>
      <point x="331" y="239" type="curve"/>
      <point x="347.667" y="325.667"/>
      <point x="357.5" y="375"/>
      <point x="360.5" y="387" type="curve" smooth="yes"/>
      <point x="363.5" y="399"/>
      <point x="361.333" y="405"/>
      <point x="354" y="405" type="curve" smooth="yes"/>
      <point x="344" y="405"/>
      <point x="336.333" y="396"/>
      <point x="331" y="378" type="curve" smooth="yes"/>
      <point x="308" y="282" type="line"/>
      <point x="298" y="239" type="line"/>
      <point x="159" y="242" type="line"/>
      <point x="145.667" y="240"/>
      <point x="138" y="230.333"/>
      <point x="136" y="213" type="curve" smooth="yes"/>
      <point x="136" y="199.667"/>
      <point x="139.667" y="193.333"/>
      <point x="147" y="194" type="curve" smooth="yes"/>
      <point x="288" y="203" type="line"/>
      <point x="264.667" y="113.667"/>
      <point x="253" y="67"/>
      <point x="253" y="63" type="curve" smooth="yes"/>
      <point x="253" y="55"/>
      <point x="257.667" y="51"/>
    </contour>
  </outline>
</glyph>
<glyph name="comma" format="2">
  <advance width="153"/>
  <unicode hex="002C"/>
  <note>
comma
</note>
  <outline>
    <contour>
      <point x="11" y="-102" type="curve" smooth="yes"/>
      <point x="63" y="-84.667"/>
      <point x="115" y="-40"/>
      <point x="115" y="20" type="curve" smooth="yes"/>
      <point x="115" y="81.987"/>
      <point x="29.918" y="85.804"/>
      <point x="23" y="27" type="curve" smooth="yes"/>
      <point x="17.16" y="-6.091"/>
      <point x="52.626" y="-27.682"/>
      <point x="85" y="-4" type="curve"/>
      <point x="79.667" y="-46.667"/>
      <point x="49" y="-77.667"/>
      <point x="9" y="-91" type="curve" smooth="yes"/>
      <point x="-3.405" y="-95.652"/>
      <point x="-1.907" y="-107.137"/>
    </contour>
  </outline>
</glyph>
<glyph name="hyphen" format="2">
  <advance width="406"/>
  <unicode hex="002D"/>
  <note>
hyphen
</note>
  <outline>
    <contour>
      <point x="163" y="194" type="curve"/>
      <point x="236.5" y="202.5" type="line" smooth="yes"/>
      <point x="285.5" y="208.167"/>
      <point x="336" y="211"/>
      <point x="388" y="211" type="curve"/>
      <point x="398" y="212.333"/>
      <point x="403.667" y="217"/>
      <point x="405" y="225" type="curve"/>
      <point x="402.333" y="233"/>
      <point x="395.333" y="237.333"/>
      <point x="384" y="238" type="curve" smooth="yes"/>
      <point x="280.667" y="240.667"/>
      <point x="207.333" y="242"/>
      <point x="164" y="242" type="curve" smooth="yes"/>
      <point x="152.667" y="242"/>
      <point x="147" y="235"/>
      <point x="147" y="221" type="curve" smooth="yes"/>
      <point x="147" y="210.333"/>
      <point x="155" y="194"/>
    </contour>
  </outline>
</glyph>
<glyph name="period" format="2">
  <advance width="208"/>
  <unicode hex="002E"/>
  <note>
period
</note>
  <outline>
    <contour>
      <point x="137" y="-14" type="curve" smooth="yes"/>
      <point x="156.59" y="-14"/>
      <point x="186" y="0.531"/>
      <point x="186" y="39" type="curve" smooth="yes"/>
      <point x="186" y="49.667"/>
      <point x="173.667" y="68"/>
      <point x="151" y="68" type="curve" smooth="yes"/>
      <point x="128.333" y="68"/>
      <point x="102" y="51"/>
      <point x="102" y="15" type="curve" smooth="yes"/>
      <point x="102" y="4.333"/>
      <point x="114.333" y="-14"/>
    </contour>
  </outline>
</glyph>
<glyph name="slash" format="2">
  <advance width="548"/>
  <unicode hex="002F"/>
  <note>
slash
</note>
  <outline>
    <contour>
      <point x="24" y="-41" type="curve" smooth="yes"/>
      <point x="48.667" y="-41"/>
      <point x="118" y="25.667"/>
      <point x="232" y="159" type="curve" smooth="yes"/>
      <point x="321.333" y="263.667"/>
      <point x="421" y="384.667"/>
      <point x="531" y="522" type="curve" smooth="yes"/>
      <point x="641" y="659.333"/>
      <point x="713.333" y="748"/>
      <point x="748" y="788" type="curve" smooth="yes"/>
      <point x="752.667" y="792.667"/>
      <point x="755" y="797.333"/>
      <point x="755" y="802" type="curve" smooth="yes"/>
      <point x="755" y="811.333"/>
      <point x="747.5" y="816"/>
      <point x="732.5" y="816" type="curve" smooth="yes"/>
      <point x="717.5" y="816"/>
      <point x="706" y="810.667"/>
      <point x="698" y="800" type="curve" smooth="yes"/>
      <point x="637.983" y="725.693"/>
      <point x="585.824" y="655.701"/>
      <point x="460.5" y="499.5" type="curve" smooth="yes"/>
      <point x="351" y="362" type="line" smooth="yes"/>
      <point x="265.667" y="254"/>
      <point x="217.167" y="196"/>
      <point x="156.5" y="124" type="curve" smooth="yes"/>
      <point x="127.482" y="89.631"/>
      <point x="92.447" y="50.785"/>
      <point x="71.102" y="27.348" type="curve" smooth="yes"/>
      <point x="13.029" y="-29.508"/>
      <point x="12.263" y="-41"/>
    </contour>
  </outline>
</glyph>
<glyph name="zero" format="2">
  <advance width="502"/>
  <unicode hex="0030"/>
  <note>
zero
</note>
  <outline>
    <contour>
      <point x="166.5" y="-11" type="curve" smooth="yes"/>
      <point x="244.5" y="-11"/>
      <point x="340.833" y="68.833"/>
      <point x="401.5" y="169.5" type="curve" smooth="yes"/>
      <point x="431.833" y="219.833"/>
      <point x="456.667" y="272.167"/>
      <point x="476" y="326.5" type="curve" smooth="yes"/>
      <point x="495.333" y="380.833"/>
      <point x="505" y="428"/>
      <point x="505" y="468" type="curve" smooth="yes"/>
      <point x="505" y="542"/>
      <point x="474" y="579"/>
      <point x="412" y="579" type="curve" smooth="yes"/>
      <point x="306.667" y="579"/>
      <point x="178" y="448"/>
      <point x="106" y="304" type="curve" smooth="yes"/>
      <point x="70" y="232"/>
      <point x="52" y="170.333"/>
      <point x="52" y="119" type="curve" smooth="yes"/>
      <point x="52" y="45.667"/>
      <point x="88.5" y="-11"/>
    </contour>
    <contour>
      <point x="173" y="9" type="curve" smooth="yes"/>
      <point x="132.333" y="9"/>
      <point x="112" y="34"/>
      <point x="112" y="84" type="curve" smooth="yes"/>
      <point x="112" y="141.333"/>
      <point x="155.667" y="259.833"/>
      <point x="213" y="364.5" type="curve" smooth="yes"/>
      <point x="270.333" y="469.167"/>
      <point x="351.667" y="560"/>
      <point x="413" y="560" type="curve" smooth="yes"/>
      <point x="481.979" y="560"/>
      <point x="484.777" y="479.432"/>
      <point x="423" y="311.5" type="curve" smooth="yes"/>
      <point x="364.333" y="161.5"/>
      <point x="257" y="9"/>
    </contour>
  </outline>
</glyph>
<glyph name="one" format="2">
  <advance width="378"/>
  <unicode hex="0031"/>
  <note>
one
</note>
  <outline>
    <contour>
      <point x="70" y="-2" type="line"/>
      <point x="101.333" y="0.667"/>
      <point x="118.667" y="3"/>
      <point x="122" y="5" type="curve"/>
      <point x="426" y="563" type="line"/>
      <point x="426" y="568" type="line"/>
      <point x="422" y="569" type="line"/>
      <point x="420" y="569" type="line"/>
      <point x="389" y="566" type="line" smooth="yes"/>
      <point x="377.667" y="564.667"/>
      <point x="359" y="550"/>
      <point x="333" y="522" type="curve" smooth="yes"/>
      <point x="307" y="494"/>
      <point x="249.667" y="446.333"/>
      <point x="161" y="379" type="curve"/>
      <point x="159" y="373" type="line"/>
      <point x="163" y="365" type="line"/>
      <point x="167" y="365" type="line"/>
      <point x="221.667" y="398.333"/>
      <point x="276" y="439.333"/>
      <point x="330" y="488" type="curve"/>
      <point x="60" y="6" type="line"/>
      <point x="61" y="0" type="line"/>
    </contour>
  </outline>
</glyph>
<glyph name="two" format="2">
  <advance width="488"/>
  <unicode hex="0032"/>
  <note>
two
</note>
  <outline>
    <contour>
      <point x="240" y="-12" type="curve" smooth="yes"/>
      <point x="280" y="-12"/>
      <point x="332.667" y="27.667"/>
      <point x="398" y="107" type="curve"/>
      <point x="398" y="111" type="line"/>
      <point x="391" y="117" type="line"/>
      <point x="378.741" y="113.935"/>
      <point x="360.304" y="82.967"/>
      <point x="328" y="61" type="curve" smooth="yes"/>
      <point x="311.333" y="49.667"/>
      <point x="295" y="44"/>
      <point x="279" y="44" type="curve" smooth="yes"/>
      <point x="263" y="44"/>
      <point x="217" y="63"/>
      <point x="141" y="101" type="curve"/>
      <point x="143.714" y="103.714"/>
      <point x="178.454" y="131.081"/>
      <point x="247" y="188.5" type="curve" smooth="yes"/>
      <point x="277.667" y="214.5"/>
      <point x="358.333" y="280"/>
      <point x="441" y="376" type="curve" smooth="yes"/>
      <point x="516.86" y="464.096"/>
      <point x="515.532" y="521.188"/>
      <point x="477.5" y="554" type="curve" smooth="yes"/>
      <point x="460.5" y="568.667"/>
      <point x="438.667" y="576"/>
      <point x="412" y="576" type="curve" smooth="yes"/>
      <point x="318.667" y="576"/>
      <point x="236.667" y="489.333"/>
      <point x="202" y="392" type="curve"/>
      <point x="204" y="386" type="line"/>
      <point x="216" y="386" type="line"/>
      <point x="220" y="390" type="line"/>
      <point x="249.333" y="467.333"/>
      <point x="316.333" y="545"/>
      <point x="383" y="545" type="curve" smooth="yes"/>
      <point x="416.333" y="545"/>
      <point x="433" y="530.333"/>
      <point x="433" y="501" type="curve" smooth="yes"/>
      <point x="433" y="423.667"/>
      <point x="329" y="292.333"/>
      <point x="121" y="107" type="curve"/>
      <point x="116.333" y="109"/>
      <point x="109" y="109.333"/>
      <point x="99" y="108" type="curve"/>
      <point x="92.333" y="105.333"/>
      <point x="2.333" y="6.667"/>
      <point x="1" y="0" type="curve"/>
      <point x="14" y="-8" type="line"/>
      <point x="84" y="47" type="line"/>
      <point x="110.079" y="38.307"/>
      <point x="175.61" y="-12"/>
    </contour>
  </outline>
</glyph>
<glyph name="three" format="2">
  <advance width="458"/>
  <unicode hex="0033"/>
  <note>
three
</note>
  <outline>
    <contour>
      <point x="92" y="11" type="curve" smooth="yes"/>
      <point x="66.667" y="11"/>
      <point x="43.333" y="16"/>
      <point x="22" y="26" type="curve"/>
      <point x="17" y="24" type="line"/>
      <point x="10" y="18" type="line"/>
      <point x="10" y="13" type="line"/>
      <point x="57.737" y="-21.718"/>
      <point x="141.061" y="-20.607"/>
      <point x="229" y="24" type="curve" smooth="yes"/>
      <point x="275" y="47.333"/>
      <point x="314.833" y="78.667"/>
      <point x="348.5" y="118" type="curve" smooth="yes"/>
      <point x="414.059" y="194.594"/>
      <point x="414.424" y="275.812"/>
      <point x="358.5" y="305.5" type="curve" smooth="yes"/>
      <point x="331.5" y="319.833"/>
      <point x="300" y="327"/>
      <point x="264" y="327" type="curve"/>
      <point x="412" y="380.333"/>
      <point x="486" y="443.333"/>
      <point x="486" y="516" type="curve" smooth="yes"/>
      <point x="486" y="558.667"/>
      <point x="454" y="578"/>
      <point x="410" y="578" type="curve" smooth="yes"/>
      <point x="348.667" y="578"/>
      <point x="288" y="541.333"/>
      <point x="228" y="468" type="curve"/>
      <point x="228" y="463" type="line"/>
      <point x="235" y="457" type="line"/>
      <point x="240" y="457" type="line"/>
      <point x="292.667" y="516.333"/>
      <point x="338.667" y="546"/>
      <point x="378" y="546" type="curve" smooth="yes"/>
      <point x="404" y="546"/>
      <point x="417" y="534.333"/>
      <point x="417" y="511" type="curve" smooth="yes"/>
      <point x="417" y="487.667"/>
      <point x="408.667" y="464.667"/>
      <point x="392" y="442" type="curve" smooth="yes"/>
      <point x="357.333" y="394.667"/>
      <point x="289" y="350"/>
      <point x="187" y="308" type="curve"/>
      <point x="183" y="303" type="line"/>
      <point x="184" y="294" type="line"/>
      <point x="191" y="291" type="line"/>
      <point x="253.119" y="308.052"/>
      <point x="282.798" y="311.766"/>
      <point x="311" y="288.5" type="curve" smooth="yes"/>
      <point x="324.333" y="277.5"/>
      <point x="331" y="262.333"/>
      <point x="331" y="243" type="curve" smooth="yes"/>
      <point x="331" y="137.667"/>
      <point x="196" y="11"/>
    </contour>
  </outline>
</glyph>
<glyph name="four" format="2">
  <advance width="464"/>
  <unicode hex="0034"/>
  <note>
four
</note>
  <outline>
    <contour>
      <point x="227" y="-7" type="line"/>
      <point x="236.333" y="-7"/>
      <point x="286.667" y="3.667"/>
      <point x="292" y="9" type="curve" smooth="yes"/>
      <point x="294.667" y="11.667"/>
      <point x="325.667" y="72.333"/>
      <point x="385" y="191" type="curve"/>
      <point x="414" y="192" type="line"/>
      <point x="421" y="197" type="line"/>
      <point x="426" y="208" type="line"/>
      <point x="420" y="212" type="line"/>
      <point x="396" y="212" type="line"/>
      <point x="405.333" y="228"/>
      <point x="463" y="341"/>
      <point x="463" y="345" type="curve" smooth="yes"/>
      <point x="462" y="351" type="line"/>
      <point x="456" y="354" type="line"/>
      <point x="438" y="353" type="line" smooth="yes"/>
      <point x="432.667" y="353"/>
      <point x="424.667" y="351.333"/>
      <point x="414" y="348" type="curve" smooth="yes"/>
      <point x="407.333" y="346.667"/>
      <point x="402.333" y="342.333"/>
      <point x="399" y="335" type="curve" smooth="yes"/>
      <point x="334" y="209" type="line"/>
      <point x="117" y="205" type="line"/>
      <point x="123.047" y="211.047"/>
      <point x="202.431" y="280.805"/>
      <point x="352" y="418" type="curve" smooth="yes"/>
      <point x="440.667" y="501.333"/>
      <point x="485" y="549.333"/>
      <point x="485" y="562" type="curve" smooth="yes"/>
      <point x="484" y="569" type="line"/>
      <point x="477" y="572" type="line"/>
      <point x="452.683" y="567.579"/>
      <point x="412.386" y="573.983"/>
      <point x="374" y="526" type="curve" smooth="yes"/>
      <point x="313.333" y="444.667"/>
      <point x="240" y="361"/>
      <point x="154" y="275" type="curve" smooth="yes"/>
      <point x="110" y="230.333"/>
      <point x="85" y="202"/>
      <point x="79" y="190" type="curve"/>
      <point x="79" y="182" type="line"/>
      <point x="322" y="188" type="line"/>
      <point x="255.333" y="69.333"/>
      <point x="222" y="6"/>
      <point x="222" y="-2" type="curve" smooth="yes"/>
      <point x="222" y="-6" type="line"/>
    </contour>
  </outline>
</glyph>
<glyph name="five" format="2">
  <advance width="445"/>
  <unicode hex="0035"/>
  <note>
five
</note>
  <outline>
    <contour>
      <point x="-12" y="-1" type="line"/>
      <point x="76.539" y="-63.498"/>
      <point x="383" y="64.476"/>
      <point x="383" y="263" type="curve" smooth="yes"/>
      <point x="383" y="320.333"/>
      <point x="341.667" y="350"/>
      <point x="283" y="350" type="curve" smooth="yes"/>
      <point x="238.333" y="350"/>
      <point x="193.667" y="335"/>
      <point x="149" y="305" type="curve"/>
      <point x="259" y="496" type="line"/>
      <point x="361" y="493" type="line" smooth="yes"/>
      <point x="418.333" y="493"/>
      <point x="484.333" y="516"/>
      <point x="507" y="576" type="curve"/>
      <point x="503" y="578" type="line"/>
      <point x="460.779" y="546.334"/>
      <point x="397.146" y="554.052"/>
      <point x="356.5" y="560" type="curve" smooth="yes"/>
      <point x="327.371" y="564.263"/>
      <point x="305.511" y="565.254"/>
      <point x="273" y="554" type="curve"/>
      <point x="259.667" y="543.333"/>
      <point x="122.333" y="302.667"/>
      <point x="113" y="276" type="curve"/>
      <point x="113" y="270" type="line"/>
      <point x="119" y="268" type="line"/>
      <point x="170.162" y="297.014"/>
      <point x="257.575" y="347.506"/>
      <point x="255.5" y="324" type="curve"/>
      <point x="290.833" y="324"/>
      <point x="316" y="301.333"/>
      <point x="316" y="260" type="curve" smooth="yes"/>
      <point x="316" y="148"/>
      <point x="172" y="6"/>
      <point x="60" y="6" type="curve" smooth="yes"/>
      <point x="34.667" y="6"/>
      <point x="14" y="9"/>
      <point x="-2" y="15" type="curve"/>
      <point x="-6" y="13" type="line"/>
      <point x="-12" y="6" type="line"/>
    </contour>
  </outline>
</glyph>
<glyph name="six" format="2">
  <advance width="421"/>
  <unicode hex="0036"/>
  <note>
six
</note>
  <outline>
    <contour>
      <point x="131" y="-11" type="curve" smooth="yes"/>
      <point x="216" y="-11"/>
      <point x="318" y="79"/>
      <point x="386" y="181" type="curve" smooth="yes"/>
      <point x="419" y="231"/>
      <point x="433" y="266"/>
      <point x="433" y="312" type="curve" smooth="yes"/>
      <point x="433" y="368"/>
      <point x="402" y="407"/>
      <point x="348" y="407" type="curve" smooth="yes"/>
      <point x="249" y="407"/>
      <point x="151" y="286"/>
      <point x="126" y="179" type="curve"/>
      <point x="129" y="171" type="line"/>
      <point x="141" y="173" type="line"/>
      <point x="145" y="179" type="line"/>
      <point x="172" y="245"/>
      <point x="204" y="297"/>
      <point x="244" y="334" type="curve" smooth="yes"/>
      <point x="269" y="358"/>
      <point x="294" y="373"/>
      <point x="319" y="373" type="curve" smooth="yes"/>
      <point x="348" y="373"/>
      <point x="377" y="351"/>
      <point x="379" y="315" type="curve" smooth="yes"/>
      <point x="381" y="276"/>
      <point x="378" y="247"/>
      <point x="344" y="199" type="curve" smooth="yes"/>
      <point x="280" y="110"/>
      <point x="185" y="26"/>
      <point x="129" y="26" type="curve" smooth="yes"/>
      <point x="75" y="26"/>
      <point x="55" y="84"/>
      <point x="57" y="127" type="curve" smooth="yes"/>
      <point x="60" y="209"/>
      <point x="125" y="326"/>
      <point x="227" y="447" type="curve" smooth="yes"/>
      <point x="277" y="506"/>
      <point x="329" y="560"/>
      <point x="461" y="679" type="curve" smooth="yes"/>
      <point x="468" y="687"/>
      <point x="471" y="693"/>
      <point x="473" y="695" type="curve"/>
      <point x="465" y="708" type="line"/>
      <point x="457" y="707" type="line"/>
      <point x="357" y="636"/>
      <point x="259" y="552"/>
      <point x="167" y="454" type="curve" smooth="yes"/>
      <point x="66" y="347"/>
      <point x="-3" y="217"/>
      <point x="-3" y="126" type="curve" smooth="yes"/>
      <point x="-3" y="34"/>
      <point x="45" y="-11"/>
    </contour>
  </outline>
</glyph>
<glyph name="seven" format="2">
  <advance width="488"/>
  <unicode hex="0037"/>
  <note>
seven
</note>
  <outline>
    <contour>
      <point x="17" y="-5" type="line"/>
      <point x="102.333" y="3"/>
      <point x="78" y="-13"/>
      <point x="138" y="63" type="curve" smooth="yes"/>
      <point x="226.667" y="176.333"/>
      <point x="317.333" y="281.333"/>
      <point x="410" y="378" type="curve" smooth="yes"/>
      <point x="500" y="472.667"/>
      <point x="555.333" y="531.667"/>
      <point x="576" y="555" type="curve"/>
      <point x="578" y="562" type="line"/>
      <point x="574" y="568" type="line"/>
      <point x="569.333" y="568"/>
      <point x="562.667" y="564.667"/>
      <point x="554" y="558" type="curve"/>
      <point x="463.506" y="569.517"/>
      <point x="352.605" y="583.946"/>
      <point x="293" y="541.5" type="curve" smooth="yes"/>
      <point x="271" y="525.833"/>
      <point x="246" y="490.333"/>
      <point x="218" y="435" type="curve"/>
      <point x="218" y="429" type="line"/>
      <point x="221" y="427" type="line"/>
      <point x="230.333" y="428.333"/>
      <point x="242.667" y="440.667"/>
      <point x="258" y="464" type="curve" smooth="yes"/>
      <point x="270" y="481.333"/>
      <point x="300" y="499"/>
      <point x="340" y="499" type="curve" smooth="yes"/>
      <point x="499" y="495" type="line"/>
      <point x="400" y="401" type="line" smooth="yes"/>
      <point x="144.667" y="155"/>
      <point x="14.667" y="22"/>
      <point x="10" y="2" type="curve"/>
      <point x="11" y="-2" type="line"/>
    </contour>
  </outline>
</glyph>
<glyph name="eight" format="2">
  <advance width="420"/>
  <unicode hex="0038"/>
  <note>
eight
</note>
  <outline>
    <contour>
      <point x="128" y="-11" type="curve" smooth="yes"/>
      <point x="226.667" y="-11"/>
      <point x="329" y="75.167"/>
      <point x="329" y="170.5" type="curve" smooth="yes"/>
      <point x="329" y="218.167"/>
      <point x="322.667" y="256"/>
      <point x="310" y="284" type="curve"/>
      <point x="345.333" y="314.667"/>
      <point x="377.333" y="346"/>
      <point x="406" y="378" type="curve" smooth="yes"/>
      <point x="442" y="419.333"/>
      <point x="461" y="459.833"/>
      <point x="461" y="504.5" type="curve" smooth="yes"/>
      <point x="461" y="549.167"/>
      <point x="422.333" y="577"/>
      <point x="369" y="577" type="curve" smooth="yes"/>
      <point x="282.333" y="577"/>
      <point x="201" y="500.667"/>
      <point x="201" y="414" type="curve" smooth="yes"/>
      <point x="201" y="386.667"/>
      <point x="206.667" y="360"/>
      <point x="218" y="334" type="curve"/>
      <point x="177.333" y="304"/>
      <point x="135.333" y="268.667"/>
      <point x="92" y="228" type="curve" smooth="yes"/>
      <point x="41.333" y="180"/>
      <point x="14" y="132.167"/>
      <point x="14" y="79.5" type="curve" smooth="yes"/>
      <point x="14" y="26.833"/>
      <point x="65.333" y="-11"/>
    </contour>
    <contour>
      <point x="130" y="10" type="curve" smooth="yes"/>
      <point x="84.667" y="10"/>
      <point x="60" y="37.667"/>
      <point x="60" y="83" type="curve" smooth="yes"/>
      <point x="60" y="157"/>
      <point x="114.333" y="234.333"/>
      <point x="223" y="315" type="curve"/>
      <point x="251" y="247"/>
      <point x="265" y="194.333"/>
      <point x="265" y="157" type="curve" smooth="yes"/>
      <point x="265" y="82.333"/>
      <point x="203.333" y="10"/>
    </contour>
    <contour>
      <point x="303" y="305" type="curve"/>
      <point x="278.333" y="371"/>
      <point x="266" y="418.167"/>
      <point x="266" y="446.5" type="curve" smooth="yes"/>
      <point x="266" y="503.167"/>
      <point x="314" y="557"/>
      <point x="370" y="557" type="curve" smooth="yes"/>
      <point x="404.667" y="557"/>
      <point x="425" y="535.667"/>
      <point x="425" y="501" type="curve" smooth="yes"/>
      <point x="425" y="434.333"/>
      <point x="367" y="358.333"/>
    </contour>
  </outline>
</glyph>
<glyph name="nine" format="2">
  <advance width="435"/>
  <unicode hex="0039"/>
  <note>
nine
</note>
  <outline>
    <contour>
      <point x="63" y="-22" type="line"/>
      <point x="69" y="-22" type="line"/>
      <point x="149.667" y="30.667"/>
      <point x="228.667" y="98.667"/>
      <point x="306" y="182" type="curve" smooth="yes"/>
      <point x="384.667" y="266"/>
      <point x="438" y="370.667"/>
      <point x="438" y="448" type="curve" smooth="yes"/>
      <point x="438" y="525.333"/>
      <point x="404" y="577"/>
      <point x="340" y="577" type="curve" smooth="yes"/>
      <point x="228" y="577"/>
      <point x="74" y="402"/>
      <point x="74" y="286" type="curve" smooth="yes"/>
      <point x="74" y="240.667"/>
      <point x="101" y="208"/>
      <point x="145" y="208" type="curve" smooth="yes"/>
      <point x="223.667" y="208"/>
      <point x="298" y="308.667"/>
      <point x="334" y="402" type="curve"/>
      <point x="333" y="407" type="line"/>
      <point x="322" y="408" type="line"/>
      <point x="318" y="405" type="line"/>
      <point x="279.333" y="312.333"/>
      <point x="233.667" y="266"/>
      <point x="181" y="266" type="curve" smooth="yes"/>
      <point x="147.667" y="266"/>
      <point x="131" y="284.667"/>
      <point x="131" y="322" type="curve" smooth="yes"/>
      <point x="132.887" y="455.318"/>
      <point x="318.956" y="615.319"/>
      <point x="323" y="556" type="curve"/>
      <point x="359.667" y="556"/>
      <point x="378" y="533"/>
      <point x="378" y="487" type="curve" smooth="yes"/>
      <point x="378" y="464.333"/>
      <point x="374.667" y="440.333"/>
      <point x="368" y="415" type="curve" smooth="yes"/>
      <point x="325.333" y="247"/>
      <point x="223.333" y="106.333"/>
      <point x="62" y="-7" type="curve"/>
      <point x="58" y="-13" type="line"/>
    </contour>
  </outline>
</glyph>
<glyph name="colon" format="2">
  <advance width="256"/>
  <unicode hex="003A"/>
  <note>
colon
</note>
  <outline>
    <contour>
      <point x="96" y="-14" type="curve" smooth="yes"/>
      <point x="118.667" y="-14"/>
      <point x="145" y="3"/>
      <point x="145" y="39" type="curve" smooth="yes"/>
      <point x="145" y="49.667"/>
      <point x="132.667" y="68"/>
      <point x="110" y="68" type="curve" smooth="yes"/>
      <point x="90.41" y="68"/>
      <point x="61" y="53.469"/>
      <point x="61" y="15" type="curve" smooth="yes"/>
      <point x="61" y="4.333"/>
      <point x="73.333" y="-14"/>
    </contour>
    <contour>
      <point x="206" y="210" type="curve" smooth="yes"/>
      <point x="225.59" y="210"/>
      <point x="255" y="224.531"/>
      <point x="255" y="263" type="curve" smooth="yes"/>
      <point x="255" y="273.667"/>
      <point x="242.667" y="292"/>
      <point x="220" y="292" type="curve" smooth="yes"/>
      <point x="197.333" y="292"/>
      <point x="174.667" y="273.667"/>
      <point x="172" y="251" type="curve" smooth="yes"/>
      <point x="168" y="228.333"/>
      <point x="183.333" y="210"/>
    </contour>
  </outline>
</glyph>
<glyph name="semicolon" format="2">
  <advance width="255"/>
  <unicode hex="003B"/>
  <note>
semicolon
</note>
  <outline>
    <contour>
      <point x="51" y="-102" type="curve" smooth="yes"/>
      <point x="103" y="-84.667"/>
      <point x="151" y="-46"/>
      <point x="151" y="14" type="curve" smooth="yes"/>
      <point x="151" y="43.333"/>
      <point x="136.167" y="68"/>
      <point x="111.5" y="68" type="curve" smooth="yes"/>
      <point x="53.459" y="68"/>
      <point x="44.598" y="-14"/>
      <point x="94.5" y="-14" type="curve" smooth="yes"/>
      <point x="104.833" y="-14"/>
      <point x="115" y="-10.667"/>
      <point x="125" y="-4" type="curve"/>
      <point x="119.667" y="-46.667"/>
      <point x="88" y="-77.667"/>
      <point x="48" y="-91" type="curve" smooth="yes"/>
      <point x="38.993" y="-94.377"/>
      <point x="33.61" y="-109.041"/>
    </contour>
    <contour>
      <point x="206" y="210" type="curve" smooth="yes"/>
      <point x="225.59" y="210"/>
      <point x="255" y="224.531"/>
      <point x="255" y="263" type="curve" smooth="yes"/>
      <point x="255" y="273.667"/>
      <point x="242.667" y="292"/>
      <point x="220" y="292" type="curve" smooth="yes"/>
      <point x="197.333" y="292"/>
      <point x="174.667" y="273.667"/>
      <point x="172" y="251" type="curve" smooth="yes"/>
      <point x="168" y="228.333"/>
      <point x="183.333" y="210"/>
    </contour>
  </outline>
</glyph>
<glyph name="less" format="2">
  <advance width="329"/>
  <unicode hex="003C"/>
  <note>
less
</note>
  <outline>
    <contour>
      <point x="126" y="30" type="curve"/>
      <point x="136" y="34" type="line"/>
      <point x="144" y="49" type="line"/>
      <point x="145" y="253" type="line"/>
      <point x="147" y="255"/>
      <point x="171" y="271"/>
      <point x="216" y="301" type="curve" smooth="yes"/>
      <point x="315" y="369"/>
      <point x="372" y="417"/>
      <point x="388" y="444" type="curve"/>
      <point x="387" y="454" type="line"/>
      <point x="376" y="459" type="line"/>
      <point x="365" y="459"/>
      <point x="288" y="413"/>
      <point x="145" y="322" type="curve" smooth="yes"/>
      <point x="57" y="267" type="line"/>
      <point x="61" y="250"/>
      <point x="68" y="217"/>
      <point x="78" y="165" type="curve" smooth="yes"/>
      <point x="88" y="114"/>
      <point x="100" y="70"/>
      <point x="114" y="34" type="curve"/>
      <point x="117" y="31"/>
      <point x="121" y="30"/>
    </contour>
  </outline>
</glyph>
<glyph name="equal" format="2">
  <advance width="458"/>
  <unicode hex="003D"/>
  <note>
equal
</note>
  <outline>
    <contour>
      <point x="169" y="294" type="curve" smooth="yes"/>
      <point x="177.667" y="294"/>
      <point x="202.667" y="297.333"/>
      <point x="244" y="304" type="curve" smooth="yes"/>
      <point x="273.333" y="308.667"/>
      <point x="322.667" y="311"/>
      <point x="392" y="311" type="curve" smooth="yes"/>
      <point x="403.333" y="311"/>
      <point x="409" y="314.667"/>
      <point x="409" y="322" type="curve" smooth="yes"/>
      <point x="409" y="335.333"/>
      <point x="376.333" y="342"/>
      <point x="311" y="342" type="curve" smooth="yes"/>
      <point x="164" y="342" type="line" smooth="yes"/>
      <point x="152.667" y="342"/>
      <point x="147" y="335.667"/>
      <point x="147" y="323" type="curve" smooth="yes"/>
      <point x="147" y="303.667"/>
      <point x="154.333" y="294"/>
    </contour>
    <contour>
      <point x="169" y="194" type="curve" smooth="yes"/>
      <point x="177.667" y="194"/>
      <point x="202.667" y="197.333"/>
      <point x="244" y="204" type="curve" smooth="yes"/>
      <point x="273.333" y="208.667"/>
      <point x="322.667" y="211"/>
      <point x="392" y="211" type="curve" smooth="yes"/>
      <point x="403.333" y="211"/>
      <point x="409" y="214.667"/>
      <point x="409" y="222" type="curve" smooth="yes"/>
      <point x="409" y="235.333"/>
      <point x="376.333" y="242"/>
      <point x="311" y="242" type="curve" smooth="yes"/>
      <point x="164" y="242" type="line" smooth="yes"/>
      <point x="152.667" y="242"/>
      <point x="147" y="235.667"/>
      <point x="147" y="223" type="curve" smooth="yes"/>
      <point x="147" y="203.667"/>
      <point x="154.333" y="194"/>
    </contour>
  </outline>
</glyph>
<glyph name="greater" format="2">
  <advance width="457"/>
  <unicode hex="003E"/>
  <note>
greater
</note>
  <outline>
    <contour>
      <point x="113" y="30" type="curve" smooth="yes"/>
      <point x="124" y="31" type="line"/>
      <point x="431" y="223" type="line"/>
      <point x="413" y="319" type="line" smooth="yes"/>
      <point x="404" y="368"/>
      <point x="392" y="412"/>
      <point x="377" y="453" type="curve"/>
      <point x="364" y="459" type="line"/>
      <point x="352" y="453" type="line"/>
      <point x="344" y="439" type="line"/>
      <point x="343" y="235" type="line"/>
      <point x="328" y="225" type="line" smooth="yes"/>
      <point x="284" y="195"/>
      <point x="220" y="148"/>
      <point x="194" y="127" type="curve" smooth="yes"/>
      <point x="134" y="81" type="line" smooth="yes"/>
      <point x="111" y="63"/>
      <point x="100" y="49"/>
      <point x="100" y="39" type="curve"/>
      <point x="101" y="33" type="line"/>
      <point x="105" y="31"/>
      <point x="109" y="30"/>
    </contour>
  </outline>
</glyph>
<glyph name="question" format="2">
  <advance width="382"/>
  <unicode hex="003F"/>
  <note>
question
</note>
  <outline>
    <contour>
      <point x="200" y="160" type="curve" smooth="yes"/>
      <point x="230.667" y="241.333"/>
      <point x="270.333" y="290.833"/>
      <point x="345" y="363.5" type="curve" smooth="yes"/>
      <point x="382.333" y="399.833"/>
      <point x="408.667" y="426.667"/>
      <point x="424" y="444" type="curve" smooth="yes"/>
      <point x="468" y="494"/>
      <point x="490" y="537.667"/>
      <point x="490" y="575" type="curve" smooth="yes"/>
      <point x="490" y="585.667"/>
      <point x="487.667" y="595.333"/>
      <point x="483" y="604" type="curve" smooth="yes"/>
      <point x="465.667" y="634"/>
      <point x="436.667" y="649"/>
      <point x="396" y="649" type="curve" smooth="yes"/>
      <point x="360.667" y="649"/>
      <point x="321.333" y="636.333"/>
      <point x="278" y="611" type="curve" smooth="yes"/>
      <point x="244.667" y="591.667"/>
      <point x="223.333" y="571.667"/>
      <point x="214" y="551" type="curve" smooth="yes"/>
      <point x="209.333" y="537.667"/>
      <point x="207" y="526.333"/>
      <point x="207" y="517" type="curve" smooth="yes"/>
      <point x="207" y="507.667"/>
      <point x="208.667" y="499.667"/>
      <point x="212" y="493" type="curve" smooth="yes"/>
      <point x="219.333" y="474.333"/>
      <point x="234.333" y="465"/>
      <point x="257" y="465" type="curve" smooth="yes"/>
      <point x="286.333" y="465"/>
      <point x="323" y="490.667"/>
      <point x="323" y="524" type="curve" smooth="yes"/>
      <point x="323" y="540.667"/>
      <point x="317.333" y="552"/>
      <point x="306" y="558" type="curve" smooth="yes"/>
      <point x="301.333" y="560.667"/>
      <point x="295.333" y="562"/>
      <point x="288" y="562" type="curve" smooth="yes"/>
      <point x="280.667" y="562"/>
      <point x="271.333" y="559.333"/>
      <point x="260" y="554" type="curve" smooth="yes"/>
      <point x="240" y="542.667"/>
      <point x="228.333" y="530.667"/>
      <point x="225" y="518" type="curve"/>
      <point x="225" y="523" type="line" smooth="yes"/>
      <point x="225" y="551.454"/>
      <point x="273.69" y="595.206"/>
      <point x="326" y="602.5" type="curve" smooth="yes"/>
      <point x="337.333" y="603.5"/>
      <point x="347.333" y="604"/>
      <point x="356" y="604" type="curve" smooth="yes"/>
      <point x="364.667" y="604"/>
      <point x="374" y="602"/>
      <point x="384" y="598" type="curve" smooth="yes"/>
      <point x="406.667" y="587.333"/>
      <point x="418" y="572"/>
      <point x="418" y="552" type="curve" smooth="yes"/>
      <point x="418" y="527.333"/>
      <point x="406" y="499.667"/>
      <point x="382" y="469" type="curve" smooth="yes"/>
      <point x="373.359" y="457.89"/>
      <point x="333.229" y="412.043"/>
      <point x="259" y="316.5" type="curve" smooth="yes"/>
      <point x="235" y="283.833"/>
      <point x="191.667" y="213.667"/>
      <point x="181" y="167" type="curve" smooth="yes"/>
      <point x="178.333" y="153.667"/>
      <point x="194.667" y="148"/>
    </contour>
    <contour>
      <point x="154" y="-14" type="curve" smooth="yes"/>
      <point x="173.59" y="-14"/>
      <point x="203" y="0.531"/>
      <point x="203" y="39" type="curve" smooth="yes"/>
      <point x="203" y="49.667"/>
      <point x="190.667" y="68"/>
      <point x="168" y="68" type="curve" smooth="yes"/>
      <point x="145.333" y="68"/>
      <point x="119" y="51"/>
      <point x="119" y="15" type="curve" smooth="yes"/>
      <point x="119" y="4.333"/>
      <point x="131.333" y="-14"/>
    </contour>
  </outline>
</glyph>
<glyph name="at" format="2">
  <advance width="956"/>
  <unicode hex="0040"/>
  <note>
at
</note>
  <outline>
    <contour>
      <point x="451" y="-148" type="curve" smooth="yes"/>
      <point x="563.667" y="-148"/>
      <point x="672.667" y="-113"/>
      <point x="778" y="-43" type="curve"/>
      <point x="794" y="-36.333"/>
      <point x="779" y="-15"/>
      <point x="767" y="-27" type="curve"/>
      <point x="669" y="-93"/>
      <point x="566" y="-126"/>
      <point x="458" y="-126" type="curve" smooth="yes"/>
      <point x="347.333" y="-126"/>
      <point x="251.333" y="-95.667"/>
      <point x="178" y="-9" type="curve" smooth="yes"/>
      <point x="141.333" y="34.333"/>
      <point x="123" y="93.667"/>
      <point x="123" y="169" type="curve" smooth="yes"/>
      <point x="123" y="319.667"/>
      <point x="207.833" y="485.333"/>
      <point x="364.5" y="584" type="curve" smooth="yes"/>
      <point x="442.833" y="633.333"/>
      <point x="526.333" y="658"/>
      <point x="615" y="658" type="curve" smooth="yes"/>
      <point x="713.667" y="658"/>
      <point x="793.333" y="635.167"/>
      <point x="856" y="562.5" type="curve" smooth="yes"/>
      <point x="887.333" y="526.167"/>
      <point x="903" y="476.333"/>
      <point x="903" y="413" type="curve" smooth="yes"/>
      <point x="903" y="311.667"/>
      <point x="852.833" y="189.667"/>
      <point x="765.5" y="119" type="curve" smooth="yes"/>
      <point x="721.833" y="83.667"/>
      <point x="679" y="66"/>
      <point x="637" y="66" type="curve" smooth="yes"/>
      <point x="603" y="66"/>
      <point x="586" y="84"/>
      <point x="586" y="120" type="curve" smooth="yes"/>
      <point x="586" y="156"/>
      <point x="604.333" y="209"/>
      <point x="641" y="279" type="curve" smooth="yes"/>
      <point x="669" y="332.333"/>
      <point x="690.667" y="366.333"/>
      <point x="706" y="381" type="curve"/>
      <point x="698.667" y="379.667"/>
      <point x="688.5" y="380.333"/>
      <point x="675.5" y="383" type="curve" smooth="yes"/>
      <point x="662.5" y="385.667"/>
      <point x="653.333" y="387"/>
      <point x="648" y="387" type="curve" smooth="yes"/>
      <point x="607.943" y="387"/>
      <point x="591.761" y="353.451"/>
      <point x="548.5" y="271" type="curve" smooth="yes"/>
      <point x="520.167" y="217"/>
      <point x="489" y="169.667"/>
      <point x="455" y="129" type="curve" smooth="yes"/>
      <point x="423" y="92"/>
      <point x="395" y="74"/>
      <point x="370" y="74" type="curve" smooth="yes"/>
      <point x="348" y="74"/>
      <point x="337" y="88"/>
      <point x="337" y="116" type="curve" smooth="yes"/>
      <point x="337" y="156.667"/>
      <point x="353.333" y="204"/>
      <point x="386" y="258" type="curve" smooth="yes"/>
      <point x="439.333" y="344.667"/>
      <point x="503.333" y="414.667"/>
      <point x="558" y="444" type="curve" smooth="yes"/>
      <point x="574" y="453.333"/>
      <point x="590" y="458"/>
      <point x="606" y="458" type="curve" smooth="yes"/>
      <point x="637.333" y="458"/>
      <point x="657.333" y="443"/>
      <point x="666" y="413" type="curve"/>
      <point x="686" y="409"/>
      <point x="695" y="430.333"/>
      <point x="679" y="449" type="curve"/>
      <point x="651.667" y="475.667"/>
      <point x="618.667" y="489"/>
      <point x="580" y="489" type="curve" smooth="yes"/>
      <point x="565.333" y="489"/>
      <point x="550" y="487"/>
      <point x="534" y="483" type="curve" smooth="yes"/>
      <point x="475.333" y="469"/>
      <point x="426.333" y="438.333"/>
      <point x="387" y="391" type="curve" smooth="yes"/>
      <point x="316.333" y="306.333"/>
      <point x="281" y="223.667"/>
      <point x="281" y="143" type="curve" smooth="yes"/>
      <point x="281" y="96.333"/>
      <point x="294.333" y="64.667"/>
      <point x="321" y="48" type="curve" smooth="yes"/>
      <point x="331" y="41.333"/>
      <point x="342" y="38"/>
      <point x="354" y="38" type="curve" smooth="yes"/>
      <point x="403.333" y="38"/>
      <point x="469.333" y="104"/>
      <point x="528" y="200" type="curve"/>
      <point x="520.667" y="173.333"/>
      <point x="517" y="149.5"/>
      <point x="517" y="128.5" type="curve" smooth="yes"/>
      <point x="517" y="107.5"/>
      <point x="522.333" y="90.667"/>
      <point x="533" y="78" type="curve" smooth="yes"/>
      <point x="551.667" y="56"/>
      <point x="574" y="45"/>
      <point x="600" y="45" type="curve" smooth="yes"/>
      <point x="607" y="45" type="line" smooth="yes"/>
      <point x="656.333" y="45"/>
      <point x="733" y="70"/>
      <point x="769" y="98" type="curve" smooth="yes"/>
      <point x="877" y="184.667"/>
      <point x="943" y="306.167"/>
      <point x="943" y="413.5" type="curve" smooth="yes"/>
      <point x="943" y="467.167"/>
      <point x="930.667" y="512.667"/>
      <point x="906" y="550" type="curve" smooth="yes"/>
      <point x="886" y="581.333"/>
      <point x="860" y="606"/>
      <point x="828" y="624" type="curve" smooth="yes"/>
      <point x="765.333" y="660.667"/>
      <point x="693.667" y="679"/>
      <point x="613" y="679" type="curve" smooth="yes"/>
      <point x="345.878" y="679"/>
      <point x="75" y="451.576"/>
      <point x="75" y="176" type="curve" smooth="yes"/>
      <point x="75" y="95.333"/>
      <point x="96.667" y="28.667"/>
      <point x="140" y="-24" type="curve" smooth="yes"/>
      <point x="208.667" y="-106.667"/>
      <point x="312.333" y="-148"/>
    </contour>
  </outline>
</glyph>
<glyph name="B" format="2">
  <advance width="1041"/>
  <unicode hex="0042"/>
  <note>
B
</note>
  <outline>
    <contour>
      <point x="178" y="-39" type="curve" smooth="yes"/>
      <point x="251.333" y="-39"/>
      <point x="321" y="-14.667"/>
      <point x="387" y="34" type="curve"/>
      <point x="459.667" y="1.333"/>
      <point x="548.333" y="-21.667"/>
      <point x="653" y="-35" type="curve" smooth="yes"/>
      <point x="669" y="-37"/>
      <point x="685.333" y="-38"/>
      <point x="702" y="-38" type="curve" smooth="yes"/>
      <point x="747.333" y="-38"/>
      <point x="794" y="-30.333"/>
      <point x="842" y="-15" type="curve" smooth="yes"/>
      <point x="906.667" y="5.667"/>
      <point x="958.333" y="39.333"/>
      <point x="997" y="86" type="curve" smooth="yes"/>
      <point x="1024.333" y="118.667"/>
      <point x="1038" y="154"/>
      <point x="1038" y="192" type="curve" smooth="yes"/>
      <point x="1038" y="248.667"/>
      <point x="1012" y="294"/>
      <point x="960" y="328" type="curve" smooth="yes"/>
      <point x="923.333" y="352"/>
      <point x="883.667" y="370.667"/>
      <point x="841" y="384" type="curve"/>
      <point x="929" y="388"/>
      <point x="1027.333" y="421.333"/>
      <point x="1066" y="488" type="curve" smooth="yes"/>
      <point x="1080.667" y="513.333"/>
      <point x="1088" y="538.5"/>
      <point x="1088" y="563.5" type="curve" smooth="yes"/>
      <point x="1088" y="588.5"/>
      <point x="1077.333" y="613"/>
      <point x="1056" y="637" type="curve" smooth="yes"/>
      <point x="1016" y="680.333"/>
      <point x="950.667" y="713.667"/>
      <point x="860" y="737" type="curve"/>
      <point x="872.257" y="767.642"/>
      <point x="923.034" y="784"/>
      <point x="902" y="784" type="curve"/>
      <point x="896.065" y="789.935"/>
      <point x="860.105" y="775.947"/>
      <point x="824" y="745" type="curve"/>
      <point x="755.333" y="759.667"/>
      <point x="687.833" y="767"/>
      <point x="621.5" y="767" type="curve" smooth="yes"/>
      <point x="555.167" y="767"/>
      <point x="491.333" y="762.667"/>
      <point x="430" y="754" type="curve" smooth="yes"/>
      <point x="303.333" y="736"/>
      <point x="207.333" y="690.333"/>
      <point x="142" y="617" type="curve" smooth="yes"/>
      <point x="101.333" y="572.333"/>
      <point x="81" y="527"/>
      <point x="81" y="481" type="curve" smooth="yes"/>
      <point x="81" y="413.667"/>
      <point x="116.333" y="367.667"/>
      <point x="187" y="343" type="curve"/>
      <point x="239" y="334" type="line"/>
      <point x="266.333" y="334"/>
      <point x="293.667" y="341.333"/>
      <point x="321" y="356" type="curve" smooth="yes"/>
      <point x="365.667" y="381.333"/>
      <point x="391.667" y="418.333"/>
      <point x="399" y="467" type="curve" smooth="yes"/>
      <point x="399" y="468" type="line" smooth="yes"/>
      <point x="398.333" y="476.667"/>
      <point x="394.667" y="481.333"/>
      <point x="388" y="482" type="curve" smooth="yes"/>
      <point x="374.159" y="482"/>
      <point x="380.186" y="465.372"/>
      <point x="367.5" y="440" type="curve" smooth="yes"/>
      <point x="360.5" y="426"/>
      <point x="349.167" y="411.5"/>
      <point x="333.5" y="396.5" type="curve" smooth="yes"/>
      <point x="292.14" y="356.9"/>
      <point x="242.111" y="354.369"/>
      <point x="197" y="367" type="curve" smooth="yes"/>
      <point x="149.667" y="381.667"/>
      <point x="126" y="413.333"/>
      <point x="126" y="462" type="curve" smooth="yes"/>
      <point x="126" y="498.667"/>
      <point x="143" y="537.333"/>
      <point x="177" y="578" type="curve" smooth="yes"/>
      <point x="233" y="645.333"/>
      <point x="313" y="690"/>
      <point x="417" y="712" type="curve" smooth="yes"/>
      <point x="493" y="728.667"/>
      <point x="562.667" y="737"/>
      <point x="626" y="737" type="curve" smooth="yes"/>
      <point x="689.333" y="737"/>
      <point x="747.333" y="732.333"/>
      <point x="800" y="723" type="curve"/>
      <point x="743" y="658" type="line" smooth="yes"/>
      <point x="667" y="574"/>
      <point x="587.833" y="439.5"/>
      <point x="540.5" y="341.5" type="curve" smooth="yes"/>
      <point x="493.167" y="243.5"/>
      <point x="425.667" y="129.333"/>
      <point x="367" y="72" type="curve"/>
      <point x="322.855" y="94.073"/>
      <point x="264.387" y="130.452"/>
      <point x="209" y="150" type="curve" smooth="yes"/>
      <point x="186.333" y="158"/>
      <point x="161" y="162"/>
      <point x="133" y="162" type="curve" smooth="yes"/>
      <point x="90.333" y="162"/>
      <point x="57" y="148.667"/>
      <point x="33" y="122" type="curve" smooth="yes"/>
      <point x="17.667" y="104.667"/>
      <point x="10" y="88.333"/>
      <point x="10" y="73" type="curve" smooth="yes"/>
      <point x="10" y="57.667"/>
      <point x="12.333" y="44.333"/>
      <point x="17" y="33" type="curve" smooth="yes"/>
      <point x="37.667" y="-15"/>
      <point x="91.333" y="-39"/>
    </contour>
    <contour>
      <point x="169" y="-8" type="curve" smooth="yes"/>
      <point x="122.333" y="-8"/>
      <point x="91.667" y="7"/>
      <point x="77" y="37" type="curve" smooth="yes"/>
      <point x="58.07" y="74.859"/>
      <point x="79.703" y="131"/>
      <point x="135.5" y="131" type="curve" smooth="yes"/>
      <point x="155.833" y="131"/>
      <point x="176.333" y="127.333"/>
      <point x="197" y="120" type="curve" smooth="yes"/>
      <point x="217.667" y="112.667"/>
      <point x="267" y="90.333"/>
      <point x="345" y="53" type="curve"/>
      <point x="291" y="12.333"/>
      <point x="232.333" y="-8"/>
    </contour>
    <contour>
      <point x="688" y="-10" type="curve" smooth="yes"/>
      <point x="676.667" y="-10"/>
      <point x="664.667" y="-9.333"/>
      <point x="652" y="-8" type="curve" smooth="yes"/>
      <point x="565.333" y="0.667"/>
      <point x="484.333" y="20.667"/>
      <point x="409" y="52" type="curve"/>
      <point x="447" y="88" type="line"/>
      <point x="496.333" y="141.333"/>
      <point x="566.667" y="246.5"/>
      <point x="658" y="403.5" type="curve" smooth="yes"/>
      <point x="749.333" y="560.5"/>
      <point x="812.667" y="663.333"/>
      <point x="848" y="712" type="curve"/>
      <point x="965.333" y="684.667"/>
      <point x="1024" y="639.667"/>
      <point x="1024" y="577" type="curve" smooth="yes"/>
      <point x="1024" y="547.667"/>
      <point x="1009" y="516.333"/>
      <point x="979" y="483" type="curve" smooth="yes"/>
      <point x="941.667" y="441.667"/>
      <point x="881.333" y="413.167"/>
      <point x="844" y="412.5" type="curve" smooth="yes"/>
      <point x="800.601" y="411.725"/>
      <point x="752.963" y="418"/>
      <point x="719" y="418" type="curve" smooth="yes"/>
      <point x="699.667" y="417.333"/>
      <point x="690" y="410.667"/>
      <point x="690" y="398" type="curve"/>
      <point x="701.101" y="373.022"/>
      <point x="797.624" y="361.859"/>
      <point x="876" y="325" type="curve" smooth="yes"/>
      <point x="934" y="297"/>
      <point x="963" y="255.667"/>
      <point x="963" y="201" type="curve" smooth="yes"/>
      <point x="963" y="148.333"/>
      <point x="934.667" y="99.333"/>
      <point x="878" y="54" type="curve" smooth="yes"/>
      <point x="826" y="11.333"/>
      <point x="762.667" y="-10"/>
    </contour>
  </outline>
</glyph>
<glyph name="C" format="2">
  <advance width="710"/>
  <unicode hex="0043"/>
  <note>
C
</note>
  <outline>
    <contour>
      <point x="169" y="352"/>
      <point x="233" y="488" type="curve" smooth="yes"/>
      <point x="302" y="635"/>
      <point x="474" y="803"/>
      <point x="661" y="783" type="curve" smooth="yes"/>
      <point x="735" y="775"/>
      <point x="809" y="712"/>
      <point x="813" y="651" type="curve" smooth="yes"/>
      <point x="816" y="603"/>
      <point x="811" y="573"/>
      <point x="786" y="542" type="curve" smooth="yes"/>
      <point x="737" y="484"/>
      <point x="638" y="447"/>
      <point x="552" y="427" type="curve" smooth="yes"/>
      <point x="542" y="425"/>
      <point x="544" y="407"/>
      <point x="550" y="408" type="curve" smooth="yes"/>
      <point x="642" y="424"/>
      <point x="739" y="454"/>
      <point x="798" y="509" type="curve" smooth="yes"/>
      <point x="834" y="541"/>
      <point x="857" y="583"/>
      <point x="857" y="635" type="curve" smooth="yes"/>
      <point x="857" y="733"/>
      <point x="778" y="797"/>
      <point x="665" y="814" type="curve" smooth="yes"/>
      <point x="468" y="843"/>
      <point x="277" y="722"/>
      <point x="174" y="529" type="curve"/>
      <point x="101" y="375"/>
      <point x="94" y="256"/>
      <point x="125" y="139" type="curve" smooth="yes"/>
      <point x="162" y="-4"/>
      <point x="269.072" y="-101"/>
      <point x="451" y="-101" type="curve" smooth="yes"/>
      <point x="642" y="-101"/>
      <point x="767" y="12"/>
      <point x="852" y="183" type="curve" smooth="yes"/>
      <point x="861" y="203"/>
      <point x="848" y="210"/>
      <point x="840" y="193" type="curve" smooth="yes"/>
      <point x="749" y="7"/>
      <point x="636" y="-67"/>
      <point x="439" y="-67" type="curve" smooth="yes"/>
      <point x="355" y="-67"/>
      <point x="224" y="0"/>
      <point x="183" y="141" type="curve" smooth="yes"/>
      <point x="157" y="231"/>
    </contour>
  </outline>
</glyph>
<glyph name="D" format="2">
  <advance width="1014"/>
  <unicode hex="0044"/>
  <note>
D
</note>
  <outline>
    <contour>
      <point x="169" y="-39" type="curve" smooth="yes"/>
      <point x="244.333" y="-39"/>
      <point x="313" y="-14"/>
      <point x="375" y="36" type="curve"/>
      <point x="455.667" y="-10.667"/>
      <point x="553.333" y="-34"/>
      <point x="668" y="-34" type="curve" smooth="yes"/>
      <point x="724.667" y="-34"/>
      <point x="782" y="-23.667"/>
      <point x="840" y="-3" type="curve" smooth="yes"/>
      <point x="888.667" y="14.333"/>
      <point x="930" y="44"/>
      <point x="964" y="86" type="curve" smooth="yes"/>
      <point x="1005.333" y="137.333"/>
      <point x="1026" y="206.333"/>
      <point x="1026" y="293" type="curve" smooth="yes"/>
      <point x="1026" y="363"/>
      <point x="1011" y="427.667"/>
      <point x="981" y="487" type="curve" smooth="yes"/>
      <point x="943.667" y="561"/>
      <point x="889.333" y="621.667"/>
      <point x="818" y="669" type="curve"/>
      <point x="840.667" y="710.333"/>
      <point x="883.333" y="772"/>
      <point x="906" y="772" type="curve" smooth="yes"/>
      <point x="918.98" y="772"/>
      <point x="914.98" y="789.051"/>
      <point x="900" y="786" type="curve"/>
      <point x="873.333" y="786"/>
      <point x="827" y="754"/>
      <point x="775" y="694" type="curve"/>
      <point x="691" y="738"/>
      <point x="602.667" y="760"/>
      <point x="510" y="760" type="curve" smooth="yes"/>
      <point x="481.333" y="760"/>
      <point x="452.333" y="758"/>
      <point x="423" y="754" type="curve" smooth="yes"/>
      <point x="273.667" y="732"/>
      <point x="169.667" y="681.667"/>
      <point x="111" y="603" type="curve" smooth="yes"/>
      <point x="83.667" y="567"/>
      <point x="70" y="530.667"/>
      <point x="70" y="494" type="curve" smooth="yes"/>
      <point x="70" y="476"/>
      <point x="73.333" y="458"/>
      <point x="80" y="440" type="curve" smooth="yes"/>
      <point x="96" y="392.667"/>
      <point x="129.333" y="360.333"/>
      <point x="180" y="343" type="curve"/>
      <point x="232" y="334" type="line"/>
      <point x="259.333" y="334"/>
      <point x="286.667" y="341.333"/>
      <point x="314" y="356" type="curve" smooth="yes"/>
      <point x="358.667" y="381.333"/>
      <point x="384.333" y="418.333"/>
      <point x="391" y="467" type="curve" smooth="yes"/>
      <point x="393.667" y="484.333"/>
      <point x="372.333" y="488"/>
      <point x="371" y="476" type="curve" smooth="yes"/>
      <point x="369" y="450.667"/>
      <point x="353.333" y="423.333"/>
      <point x="324" y="394" type="curve" smooth="yes"/>
      <point x="284.373" y="356.096"/>
      <point x="235.502" y="354.749"/>
      <point x="190" y="367" type="curve" smooth="yes"/>
      <point x="141.333" y="382.333"/>
      <point x="117" y="415.333"/>
      <point x="117" y="466" type="curve" smooth="yes"/>
      <point x="117" y="503.333"/>
      <point x="133.667" y="542.667"/>
      <point x="167" y="584" type="curve" smooth="yes"/>
      <point x="221" y="652"/>
      <point x="299.667" y="697"/>
      <point x="403" y="719" type="curve" smooth="yes"/>
      <point x="439" y="726.333"/>
      <point x="474.333" y="730"/>
      <point x="509" y="730" type="curve" smooth="yes"/>
      <point x="593" y="730"/>
      <point x="672.333" y="707.667"/>
      <point x="747" y="663" type="curve"/>
      <point x="677.667" y="585.667"/>
      <point x="602.167" y="453.833"/>
      <point x="553.5" y="354.5" type="curve" smooth="yes"/>
      <point x="504.833" y="255.167"/>
      <point x="433.667" y="136"/>
      <point x="367" y="72" type="curve"/>
      <point x="293" y="111.333"/>
      <point x="241.5" y="136.167"/>
      <point x="212.5" y="146.5" type="curve" smooth="yes"/>
      <point x="183.5" y="156.833"/>
      <point x="154.667" y="162"/>
      <point x="126" y="162" type="curve" smooth="yes"/>
      <point x="83.333" y="162"/>
      <point x="50" y="148.333"/>
      <point x="26" y="121" type="curve" smooth="yes"/>
      <point x="10.667" y="103.667"/>
      <point x="3" y="87.5"/>
      <point x="3" y="72.5" type="curve" smooth="yes"/>
      <point x="3" y="57.5"/>
      <point x="5.333" y="44.333"/>
      <point x="10" y="33" type="curve" smooth="yes"/>
      <point x="30" y="-15"/>
      <point x="83" y="-39"/>
    </contour>
    <contour>
      <point x="162" y="-8" type="curve" smooth="yes"/>
      <point x="118.667" y="-8"/>
      <point x="90" y="6.333"/>
      <point x="76" y="35" type="curve" smooth="yes"/>
      <point x="58.043" y="70.914"/>
      <point x="78.181" y="130"/>
      <point x="132.5" y="130" type="curve" smooth="yes"/>
      <point x="152.167" y="130"/>
      <point x="172.333" y="126.333"/>
      <point x="193" y="119" type="curve" smooth="yes"/>
      <point x="213.667" y="111.667"/>
      <point x="263" y="89.333"/>
      <point x="341" y="52" type="curve"/>
      <point x="285.667" y="12"/>
      <point x="226" y="-8"/>
    </contour>
    <contour>
      <point x="636" y="-6" type="curve" smooth="yes"/>
      <point x="545.333" y="-6"/>
      <point x="466.333" y="14"/>
      <point x="399" y="54" type="curve"/>
      <point x="413" y="66"/>
      <point x="431" y="83.833"/>
      <point x="453" y="107.5" type="curve" smooth="yes"/>
      <point x="475" y="131.167"/>
      <point x="505" y="171.333"/>
      <point x="543" y="228" type="curve" smooth="yes"/>
      <point x="636.76" y="367.818"/>
      <point x="729.707" y="531.235"/>
      <point x="794" y="631" type="curve"/>
      <point x="852.667" y="585"/>
      <point x="897" y="527.667"/>
      <point x="927" y="459" type="curve" smooth="yes"/>
      <point x="951" y="405"/>
      <point x="963" y="347.333"/>
      <point x="963" y="286" type="curve" smooth="yes"/>
      <point x="963" y="200"/>
      <point x="938" y="132.667"/>
      <point x="888" y="84" type="curve" smooth="yes"/>
      <point x="825.333" y="24"/>
      <point x="741.333" y="-6"/>
    </contour>
  </outline>
</glyph>
<glyph name="E" format="2">
  <advance width="815"/>
  <unicode hex="0045"/>
  <note>
E
</note>
  <anchor x="635" y="744" name="top"/>
  <outline>
    <contour>
      <point x="177" y="-35" type="curve" smooth="yes"/>
      <point x="268.869" y="-63.709"/>
      <point x="413.542" y="-65.208"/>
      <point x="565" y="-19" type="curve" smooth="yes"/>
      <point x="722.333" y="29"/>
      <point x="838" y="120.333"/>
      <point x="838" y="195" type="curve" smooth="yes"/>
      <point x="838" y="220.333"/>
      <point x="823" y="241"/>
      <point x="793" y="257" type="curve" smooth="yes"/>
      <point x="778.333" y="265"/>
      <point x="747.333" y="268"/>
      <point x="750" y="256" type="curve" smooth="yes"/>
      <point x="753" y="236"/>
      <point x="801" y="243"/>
      <point x="799" y="215" type="curve" smooth="yes"/>
      <point x="797" y="183"/>
      <point x="771.667" y="145.667"/>
      <point x="717" y="103" type="curve" smooth="yes"/>
      <point x="621" y="28.333"/>
      <point x="452" y="-33"/>
      <point x="340.5" y="-33" type="curve" smooth="yes"/>
      <point x="196" y="-33"/>
      <point x="92" y="12"/>
      <point x="92" y="140" type="curve" smooth="yes"/>
      <point x="92" y="205.333"/>
      <point x="121" y="262.667"/>
      <point x="179" y="312" type="curve" smooth="yes"/>
      <point x="228.333" y="354.667"/>
      <point x="297" y="377"/>
      <point x="385" y="376" type="curve" smooth="yes"/>
      <point x="492" y="375" type="line" smooth="yes"/>
      <point x="521" y="375"/>
      <point x="535" y="382.667"/>
      <point x="535" y="398" type="curve" smooth="yes"/>
      <point x="535" y="415.333"/>
      <point x="509.333" y="429.333"/>
      <point x="458" y="440" type="curve" smooth="yes"/>
      <point x="394" y="455"/>
      <point x="322" y="478"/>
      <point x="322" y="548" type="curve" smooth="yes"/>
      <point x="322" y="596.667"/>
      <point x="347.333" y="641.667"/>
      <point x="398" y="683" type="curve" smooth="yes"/>
      <point x="463" y="736"/>
      <point x="608" y="785"/>
      <point x="682" y="783" type="curve" smooth="yes"/>
      <point x="755" y="781"/>
      <point x="810" y="739"/>
      <point x="810" y="700" type="curve" smooth="yes"/>
      <point x="810" y="636"/>
      <point x="740" y="586"/>
      <point x="688" y="571" type="curve" smooth="yes"/>
      <point x="668" y="565"/>
      <point x="657" y="570"/>
      <point x="654" y="555" type="curve" smooth="yes"/>
      <point x="653" y="551"/>
      <point x="657" y="549"/>
      <point x="665" y="549" type="curve" smooth="yes"/>
      <point x="672" y="549"/>
      <point x="682" y="550"/>
      <point x="694" y="553" type="curve" smooth="yes"/>
      <point x="791" y="574"/>
      <point x="870" y="637"/>
      <point x="870" y="697" type="curve" smooth="yes"/>
      <point x="870" y="783"/>
      <point x="763" y="804"/>
      <point x="674" y="804" type="curve" smooth="yes"/>
      <point x="584.667" y="804"/>
      <point x="451" y="776.5"/>
      <point x="339" y="690.5" type="curve" smooth="yes"/>
      <point x="283" y="647.5"/>
      <point x="248" y="599"/>
      <point x="248" y="539" type="curve" smooth="yes"/>
      <point x="248" y="489.667"/>
      <point x="301.333" y="444"/>
      <point x="368" y="420" type="curve"/>
      <point x="304" y="417.333"/>
      <point x="216.667" y="395"/>
      <point x="146" y="347" type="curve" smooth="yes"/>
      <point x="78" y="301"/>
      <point x="19" y="220"/>
      <point x="21" y="142" type="curve" smooth="yes"/>
      <point x="23" y="70"/>
      <point x="77" y="-4"/>
    </contour>
  </outline>
</glyph>
<glyph name="G" format="2">
  <advance width="699"/>
  <unicode hex="0047"/>
  <note>
G
</note>
  <outline>
    <contour>
      <point x="88" y="-374" type="curve" smooth="yes"/>
      <point x="141" y="-374"/>
      <point x="211" y="-355"/>
      <point x="281" y="-321" type="curve" smooth="yes"/>
      <point x="378" y="-275"/>
      <point x="477" y="-201"/>
      <point x="538" y="-112" type="curve"/>
      <point x="650.667" y="-112"/>
      <point x="717" y="-118"/>
      <point x="763" y="-130" type="curve" smooth="yes"/>
      <point x="782.333" y="-134.667"/>
      <point x="792" y="-133.333"/>
      <point x="792" y="-126" type="curve" smooth="yes"/>
      <point x="792" y="-120"/>
      <point x="785" y="-115.333"/>
      <point x="771" y="-112" type="curve" smooth="yes"/>
      <point x="705" y="-95.333"/>
      <point x="632" y="-86.667"/>
      <point x="552" y="-86" type="curve"/>
      <point x="632" y="46"/>
      <point x="675" y="140"/>
      <point x="688" y="244" type="curve" smooth="yes"/>
      <point x="692" y="266"/>
      <point x="679" y="292"/>
      <point x="655" y="292" type="curve" smooth="yes"/>
      <point x="624.333" y="292"/>
      <point x="610" y="252"/>
      <point x="569" y="199" type="curve" smooth="yes"/>
      <point x="516" y="130"/>
      <point x="379" y="60"/>
      <point x="296.5" y="60" type="curve" smooth="yes"/>
      <point x="174" y="60"/>
      <point x="111" y="130"/>
      <point x="111" y="276" type="curve" smooth="yes"/>
      <point x="111" y="330.667"/>
      <point x="127" y="392.667"/>
      <point x="159" y="462" type="curve"/>
      <point x="228" y="416"/>
      <point x="316" y="393"/>
      <point x="424" y="393" type="curve" smooth="yes"/>
      <point x="577" y="393"/>
      <point x="796" y="473"/>
      <point x="796" y="634.5" type="curve" smooth="yes"/>
      <point x="796" y="733"/>
      <point x="717" y="797"/>
      <point x="604" y="814" type="curve" smooth="yes"/>
      <point x="407" y="843"/>
      <point x="225" y="717"/>
      <point x="113" y="529" type="curve"/>
      <point x="55" y="597"/>
      <point x="36" y="687"/>
      <point x="106" y="781" type="curve" smooth="yes"/>
      <point x="119.333" y="799.667"/>
      <point x="109" y="806.333"/>
      <point x="93" y="789" type="curve" smooth="yes"/>
      <point x="13" y="700"/>
      <point x="5" y="593"/>
      <point x="97" y="499" type="curve"/>
      <point x="63" y="425"/>
      <point x="46" y="355.667"/>
      <point x="46" y="291" type="curve" smooth="yes"/>
      <point x="46" y="149"/>
      <point x="119" y="23"/>
      <point x="274.5" y="23" type="curve" smooth="yes"/>
      <point x="376" y="23"/>
      <point x="518" y="91"/>
      <point x="607" y="177" type="curve"/>
      <point x="584" y="80"/>
      <point x="551.333" y="-2.667"/>
      <point x="502" y="-86" type="curve"/>
      <point x="342" y="-88.667"/>
      <point x="218" y="-103"/>
      <point x="102" y="-155" type="curve" smooth="yes"/>
      <point x="44" y="-181"/>
      <point x="-47" y="-234"/>
      <point x="-47" y="-294" type="curve" smooth="yes"/>
      <point x="-47" y="-348"/>
      <point x="34" y="-374"/>
    </contour>
    <contour>
      <point x="87" y="-343" type="curve" smooth="yes"/>
      <point x="58" y="-343"/>
      <point x="4" y="-334"/>
      <point x="4" y="-301" type="curve" smooth="yes"/>
      <point x="4" y="-276.333"/>
      <point x="31" y="-246.667"/>
      <point x="85" y="-212" type="curve" smooth="yes"/>
      <point x="153.667" y="-168"/>
      <point x="226" y="-140.333"/>
      <point x="302" y="-129" type="curve" smooth="yes"/>
      <point x="354.667" y="-120.333"/>
      <point x="416" y="-115"/>
      <point x="486" y="-113" type="curve"/>
      <point x="432" y="-190.333"/>
      <point x="359" y="-250"/>
      <point x="267" y="-292" type="curve" smooth="yes"/>
      <point x="194.333" y="-326"/>
      <point x="134.333" y="-343"/>
    </contour>
    <contour>
      <point x="424" y="422" type="curve" smooth="yes"/>
      <point x="359" y="419"/>
      <point x="234.667" y="440"/>
      <point x="172" y="488" type="curve"/>
      <point x="246" y="636"/>
      <point x="413" y="803"/>
      <point x="600" y="783" type="curve" smooth="yes"/>
      <point x="674" y="775"/>
      <point x="752" y="712"/>
      <point x="752" y="651" type="curve" smooth="yes"/>
      <point x="752" y="503"/>
      <point x="571" y="429"/>
    </contour>
  </outline>
</glyph>
<glyph name="I" format="2">
  <advance width="600"/>
  <unicode hex="0049"/>
  <note>
I
</note>
  <anchor x="400" y="675" name="top"/>
  <outline>
    <contour>
      <point x="334" y="105" type="curve" smooth="yes"/>
      <point x="326" y="47"/>
      <point x="326" y="-41"/>
      <point x="403" y="-41" type="curve" smooth="yes"/>
      <point x="430" y="-41"/>
      <point x="458" y="-28"/>
      <point x="485" y="-2" type="curve" smooth="yes"/>
      <point x="526" y="39"/>
      <point x="553" y="77"/>
      <point x="602" y="182" type="curve" smooth="yes"/>
      <point x="613" y="206"/>
      <point x="598" y="212"/>
      <point x="587" y="189" type="curve" smooth="yes"/>
      <point x="542" y="96"/>
      <point x="501" y="36"/>
      <point x="463" y="8" type="curve" smooth="yes"/>
      <point x="444" y="-6"/>
      <point x="426" y="-7"/>
      <point x="410" y="-1" type="curve" smooth="yes"/>
      <point x="384" y="9"/>
      <point x="381" y="39"/>
      <point x="389" y="96" type="curve" smooth="yes"/>
      <point x="399" y="164"/>
      <point x="437" y="263"/>
      <point x="478" y="372" type="curve" smooth="yes"/>
      <point x="529" y="508"/>
      <point x="591" y="639"/>
      <point x="634" y="702" type="curve"/>
      <point x="695" y="707"/>
      <point x="713" y="714"/>
      <point x="729" y="721" type="curve" smooth="yes"/>
      <point x="767" y="741"/>
      <point x="774" y="788"/>
      <point x="730" y="796" type="curve" smooth="yes"/>
      <point x="696" y="800"/>
      <point x="637" y="778"/>
      <point x="597" y="725" type="curve"/>
      <point x="510" y="722"/>
      <point x="412" y="710"/>
      <point x="320" y="686" type="curve" smooth="yes"/>
      <point x="162" y="643"/>
      <point x="24" y="562"/>
      <point x="-3" y="426" type="curve" smooth="yes"/>
      <point x="-19" y="348"/>
      <point x="51" y="292"/>
      <point x="99" y="285" type="curve" smooth="yes"/>
      <point x="185" y="271"/>
      <point x="293" y="334"/>
      <point x="306" y="422" type="curve" smooth="yes"/>
      <point x="308" y="441"/>
      <point x="307" y="459"/>
      <point x="300" y="477" type="curve" smooth="yes"/>
      <point x="296" y="488"/>
      <point x="289" y="489"/>
      <point x="281" y="481" type="curve" smooth="yes"/>
      <point x="279" y="479"/>
      <point x="277" y="474"/>
      <point x="278" y="472" type="curve" smooth="yes"/>
      <point x="283" y="459"/>
      <point x="287" y="447"/>
      <point x="283" y="429" type="curve" smooth="yes"/>
      <point x="270" y="373"/>
      <point x="206" y="296"/>
      <point x="120" y="308" type="curve" smooth="yes"/>
      <point x="84" y="313"/>
      <point x="44" y="356"/>
      <point x="54" y="411" type="curve" smooth="yes"/>
      <point x="83" y="572"/>
      <point x="226" y="632"/>
      <point x="338" y="664" type="curve" smooth="yes"/>
      <point x="399" y="682"/>
      <point x="479" y="692"/>
      <point x="577" y="700" type="curve"/>
      <point x="520" y="617"/>
      <point x="453" y="455"/>
      <point x="421" y="372" type="curve" smooth="yes"/>
      <point x="367" y="233"/>
      <point x="339" y="140"/>
    </contour>
    <contour>
      <point x="645" y="724" type="curve"/>
      <point x="670" y="751"/>
      <point x="701" y="767"/>
      <point x="709" y="766" type="curve" smooth="yes"/>
      <point x="716" y="765"/>
      <point x="721" y="761"/>
      <point x="721" y="753" type="curve" smooth="yes"/>
      <point x="720" y="737"/>
      <point x="689" y="726"/>
    </contour>
  </outline>
</glyph>
<glyph name="K" format="2">
  <advance width="1144"/>
  <unicode hex="004B"/>
  <note>
K
</note>
  <outline>
    <contour>
      <point x="1319.5" y="-141.5" type="curve" smooth="yes"/>
      <point x="1364.5" y="-113.167"/>
      <point x="1396" y="-80.667"/>
      <point x="1414" y="-44" type="curve" smooth="yes"/>
      <point x="1421.333" y="-29.333"/>
      <point x="1422" y="-22"/>
      <point x="1416" y="-22" type="curve" smooth="yes"/>
      <point x="1410" y="-22"/>
      <point x="1405" y="-26.667"/>
      <point x="1401" y="-36" type="curve" smooth="yes"/>
      <point x="1366.333" y="-104"/>
      <point x="1279.333" y="-141"/>
      <point x="1194" y="-141" type="curve" smooth="yes"/>
      <point x="1120" y="-141"/>
      <point x="1060.333" y="-89"/>
      <point x="1015" y="15" type="curve" smooth="yes"/>
      <point x="984.333" y="85.667"/>
      <point x="957.667" y="185.667"/>
      <point x="955" y="215" type="curve" smooth="yes"/>
      <point x="953.748" y="226.836"/>
      <point x="953.479" y="239.146"/>
      <point x="953.426" y="246.644" type="curve"/>
      <point x="1141.497" y="310.217"/>
      <point x="1470.115" y="564.19"/>
      <point x="1622" y="816" type="curve" smooth="yes"/>
      <point x="1634.942" y="838.103"/>
      <point x="1623.993" y="852.77"/>
      <point x="1619" y="848" type="curve"/>
      <point x="1613" y="848"/>
      <point x="1605.667" y="841.667"/>
      <point x="1597" y="829" type="curve" smooth="yes"/>
      <point x="1499.667" y="681"/>
      <point x="1333.5" y="524.167"/>
      <point x="1195.5" y="431.5" type="curve" smooth="yes"/>
      <point x="1068.645" y="346.317"/>
      <point x="953.04" y="280"/>
      <point x="900" y="280" type="curve" smooth="yes"/>
      <point x="897" y="280" type="line"/>
      <point x="875.264" y="271.849"/>
      <point x="889.279" y="207.087"/>
      <point x="899" y="152" type="curve" smooth="yes"/>
      <point x="924.333" y="22.667"/>
      <point x="973.667" y="-72"/>
      <point x="1047" y="-132" type="curve" smooth="yes"/>
      <point x="1127.672" y="-198.587"/>
      <point x="1213.736" y="-201.615"/>
    </contour>
    <component base="_part.curvy.left" xOffset="-1401"/>
  </outline>
</glyph>
<glyph name="L" format="2">
  <advance width="712"/>
  <unicode hex="004C"/>
  <note>
L
</note>
  <outline>
    <contour>
      <point x="800" y="-294" type="curve" smooth="yes"/>
      <point x="800" y="-316.052"/>
      <point x="861" y="-284.976"/>
      <point x="861" y="-221" type="curve" smooth="yes"/>
      <point x="861" y="-203"/>
      <point x="857" y="-181.333"/>
      <point x="849" y="-156" type="curve" smooth="yes"/>
      <point x="833.667" y="-106.667"/>
      <point x="804" y="-65"/>
      <point x="760" y="-31" type="curve" smooth="yes"/>
      <point x="673.333" y="35.667"/>
      <point x="564" y="85.333"/>
      <point x="432" y="118" type="curve"/>
      <point x="453" y="152" type="line" smooth="yes"/>
      <point x="471" y="184.667"/>
      <point x="500.333" y="242"/>
      <point x="541" y="324" type="curve"/>
      <point x="682.333" y="348"/>
      <point x="827.167" y="451.333"/>
      <point x="902.5" y="578" type="curve" smooth="yes"/>
      <point x="940.167" y="641.333"/>
      <point x="959" y="702"/>
      <point x="959" y="760" type="curve" smooth="yes"/>
      <point x="959" y="767.333"/>
      <point x="958.667" y="775"/>
      <point x="958" y="783" type="curve" smooth="yes"/>
      <point x="953.783" y="842.044"/>
      <point x="873.97" y="863.8"/>
      <point x="808" y="837" type="curve" smooth="yes"/>
      <point x="726.667" y="802.333"/>
      <point x="656.667" y="709.667"/>
      <point x="598" y="559" type="curve" smooth="yes"/>
      <point x="513" y="345" type="line"/>
      <point x="461.046" y="338.765"/>
      <point x="372.435" y="337.175"/>
      <point x="327" y="391.5" type="curve" smooth="yes"/>
      <point x="287.187" y="439.103"/>
      <point x="284.212" y="488.708"/>
      <point x="296" y="528" type="curve" smooth="yes"/>
      <point x="312.667" y="584.667"/>
      <point x="342.333" y="626.667"/>
      <point x="385" y="654" type="curve" smooth="yes"/>
      <point x="409.667" y="670"/>
      <point x="436.333" y="679.667"/>
      <point x="465" y="683" type="curve"/>
      <point x="488.612" y="646.601"/>
      <point x="536.653" y="713.519"/>
      <point x="463" y="700" type="curve" smooth="yes"/>
      <point x="353.667" y="674.667"/>
      <point x="279.167" y="619"/>
      <point x="258.5" y="571" type="curve" smooth="yes"/>
      <point x="248.167" y="547"/>
      <point x="243" y="524.667"/>
      <point x="243" y="504" type="curve" smooth="yes"/>
      <point x="243" y="464.667"/>
      <point x="257" y="429.333"/>
      <point x="285" y="398" type="curve" smooth="yes"/>
      <point x="327.667" y="350"/>
      <point x="404" y="320"/>
      <point x="488" y="320" type="curve" smooth="yes"/>
      <point x="499" y="320" type="line"/>
      <point x="459" y="238"/>
      <point x="424" y="173.667"/>
      <point x="394" y="127" type="curve"/>
      <point x="366" y="132.333"/>
      <point x="334.667" y="135"/>
      <point x="300" y="135" type="curve" smooth="yes"/>
      <point x="203.333" y="135"/>
      <point x="126.667" y="118.333"/>
      <point x="70" y="85" type="curve" smooth="yes"/>
      <point x="20" y="56.333"/>
      <point x="-5" y="23"/>
      <point x="-5" y="-15" type="curve" smooth="yes"/>
      <point x="-5" y="-53"/>
      <point x="14" y="-81.333"/>
      <point x="52" y="-100" type="curve" smooth="yes"/>
      <point x="74" y="-111.333"/>
      <point x="99.167" y="-117"/>
      <point x="127.5" y="-117" type="curve" smooth="yes"/>
      <point x="155.833" y="-117"/>
      <point x="188.333" y="-108"/>
      <point x="225" y="-90" type="curve" smooth="yes"/>
      <point x="286.333" y="-60.667"/>
      <point x="345.333" y="-6.333"/>
      <point x="402" y="73" type="curve"/>
      <point x="512.667" y="51.667"/>
      <point x="561.5" y="41.833"/>
      <point x="651.5" y="2.5" type="curve" smooth="yes"/>
      <point x="741.5" y="-36.833"/>
      <point x="790.333" y="-80.667"/>
      <point x="809" y="-134" type="curve" smooth="yes"/>
      <point x="827.03" y="-185.514"/>
      <point x="827.264" y="-230.916"/>
      <point x="811.5" y="-264.5" type="curve" smooth="yes"/>
      <point x="803.833" y="-280.833"/>
      <point x="800" y="-290.667"/>
    </contour>
    <contour>
      <point x="107" y="-88" type="curve" smooth="yes"/>
      <point x="61.667" y="-88"/>
      <point x="16" y="-63.667"/>
      <point x="16" y="-29" type="curve" smooth="yes"/>
      <point x="16" y="-23"/>
      <point x="17.333" y="-16.667"/>
      <point x="20" y="-10" type="curve" smooth="yes"/>
      <point x="33.333" y="26.667"/>
      <point x="78.333" y="55"/>
      <point x="155" y="75" type="curve" smooth="yes"/>
      <point x="191.667" y="85"/>
      <point x="227.333" y="90"/>
      <point x="262" y="90" type="curve" smooth="yes"/>
      <point x="296.667" y="90"/>
      <point x="330.333" y="86.333"/>
      <point x="363" y="79" type="curve"/>
      <point x="315.667" y="11.667"/>
      <point x="264.333" y="-35.333"/>
      <point x="209" y="-62" type="curve" smooth="yes"/>
      <point x="172.333" y="-79.333"/>
      <point x="138.333" y="-88"/>
    </contour>
    <contour>
      <point x="555" y="351" type="curve"/>
      <point x="609.667" y="464.333"/>
      <point x="682" y="613.333"/>
      <point x="758" y="708" type="curve" smooth="yes"/>
      <point x="806.667" y="767.333"/>
      <point x="848" y="797"/>
      <point x="882" y="797" type="curve" smooth="yes"/>
      <point x="905.333" y="797"/>
      <point x="917" y="784.333"/>
      <point x="917" y="759" type="curve" smooth="yes"/>
      <point x="917" y="580.333"/>
      <point x="740.333" y="392.333"/>
    </contour>
  </outline>
</glyph>
<glyph name="M" format="2">
  <advance width="1316"/>
  <unicode hex="004D"/>
  <note>
M
</note>
  <outline>
    <contour>
      <point x="1360" y="-114" type="curve" smooth="yes"/>
      <point x="1385" y="-114"/>
      <point x="1398" y="-110"/>
      <point x="1398" y="-102" type="curve" smooth="yes"/>
      <point x="1398" y="-99"/>
      <point x="1392" y="-98"/>
      <point x="1367" y="-98" type="curve" smooth="yes"/>
      <point x="1278" y="-98"/>
      <point x="1263" y="-38"/>
      <point x="1263" y="42" type="curve" smooth="yes"/>
      <point x="1263" y="73"/>
      <point x="1277" y="132"/>
      <point x="1304" y="217" type="curve" smooth="yes"/>
      <point x="1355" y="383"/>
      <point x="1456" y="517"/>
      <point x="1456" y="609" type="curve" smooth="yes"/>
      <point x="1456" y="641"/>
      <point x="1445" y="677"/>
      <point x="1403" y="677" type="curve" smooth="yes"/>
      <point x="1314" y="677"/>
      <point x="1124" y="481"/>
      <point x="952" y="212" type="curve"/>
      <point x="1039" y="441"/>
      <point x="1051" y="542"/>
      <point x="1051" y="609" type="curve" smooth="yes"/>
      <point x="1051" y="668"/>
      <point x="1024" y="696"/>
      <point x="987" y="702" type="curve" smooth="yes"/>
      <point x="926" y="712"/>
      <point x="876" y="688"/>
      <point x="824" y="623" type="curve" smooth="yes"/>
      <point x="755" y="536"/>
      <point x="701" y="457"/>
      <point x="661" y="381" type="curve" smooth="yes"/>
      <point x="651" y="364"/>
      <point x="647" y="359"/>
      <point x="644" y="360" type="curve" smooth="yes"/>
      <point x="638" y="362"/>
      <point x="639" y="371"/>
      <point x="648" y="392" type="curve" smooth="yes"/>
      <point x="678" y="461"/>
      <point x="702" y="556"/>
      <point x="702" y="628" type="curve" smooth="yes"/>
      <point x="702" y="665"/>
      <point x="696" y="696"/>
      <point x="685" y="722" type="curve" smooth="yes"/>
      <point x="660" y="782"/>
      <point x="610" y="812"/>
      <point x="535" y="812" type="curve" smooth="yes"/>
      <point x="312" y="812"/>
      <point x="20" y="556"/>
      <point x="20" y="333" type="curve" smooth="yes"/>
      <point x="20" y="201"/>
      <point x="108" y="116"/>
      <point x="212" y="116" type="curve" smooth="yes"/>
      <point x="347" y="116"/>
      <point x="466" y="247"/>
      <point x="466" y="346" type="curve" smooth="yes"/>
      <point x="466" y="402"/>
      <point x="442" y="449"/>
      <point x="378" y="449" type="curve" smooth="yes"/>
      <point x="345" y="449"/>
      <point x="322" y="441"/>
      <point x="328" y="432" type="curve" smooth="yes"/>
      <point x="334" y="422"/>
      <point x="360" y="427"/>
      <point x="368" y="427" type="curve" smooth="yes"/>
      <point x="411" y="427"/>
      <point x="433" y="404"/>
      <point x="433" y="358" type="curve" smooth="yes"/>
      <point x="433" y="265"/>
      <point x="330" y="138"/>
      <point x="221" y="138" type="curve" smooth="yes"/>
      <point x="135" y="138"/>
      <point x="74" y="211"/>
      <point x="74" y="323" type="curve" smooth="yes"/>
      <point x="74" y="508"/>
      <point x="343" y="787"/>
      <point x="524" y="791" type="curve" smooth="yes"/>
      <point x="623" y="793"/>
      <point x="646" y="744"/>
      <point x="646" y="649" type="curve" smooth="yes"/>
      <point x="646" y="569"/>
      <point x="612" y="442"/>
      <point x="544" y="267" type="curve" smooth="yes"/>
      <point x="505" y="167"/>
      <point x="463" y="78"/>
      <point x="398" y="-42" type="curve" smooth="yes"/>
      <point x="391" y="-55"/>
      <point x="402" y="-65"/>
      <point x="424" y="-65" type="curve" smooth="yes"/>
      <point x="472" y="-65"/>
      <point x="479" y="-39"/>
      <point x="539" y="94" type="curve" smooth="yes"/>
      <point x="596" y="221"/>
      <point x="623" y="283"/>
      <point x="702" y="411" type="curve" smooth="yes"/>
      <point x="743" y="476"/>
      <point x="789" y="540"/>
      <point x="841" y="605" type="curve" smooth="yes"/>
      <point x="883" y="656"/>
      <point x="924" y="678"/>
      <point x="968" y="673" type="curve" smooth="yes"/>
      <point x="993" y="670"/>
      <point x="1000" y="649"/>
      <point x="995" y="596" type="curve" smooth="yes"/>
      <point x="986" y="503"/>
      <point x="959" y="389"/>
      <point x="924" y="291" type="curve" smooth="yes"/>
      <point x="871" y="139"/>
      <point x="839" y="93"/>
      <point x="807" y="31" type="curve" smooth="yes"/>
      <point x="781" y="-19"/>
      <point x="784" y="-34"/>
      <point x="820" y="-34" type="curve" smooth="yes"/>
      <point x="845" y="-34"/>
      <point x="865" y="-16"/>
      <point x="881" y="20" type="curve" smooth="yes"/>
      <point x="920" y="111"/>
      <point x="1069" y="349"/>
      <point x="1148" y="446" type="curve" smooth="yes"/>
      <point x="1179" y="485"/>
      <point x="1205" y="514"/>
      <point x="1239" y="548" type="curve" smooth="yes"/>
      <point x="1295" y="602"/>
      <point x="1334" y="628"/>
      <point x="1360" y="628" type="curve" smooth="yes"/>
      <point x="1379" y="628"/>
      <point x="1388" y="617"/>
      <point x="1388" y="595" type="curve" smooth="yes"/>
      <point x="1388" y="537"/>
      <point x="1281" y="322"/>
      <point x="1260" y="272" type="curve" smooth="yes"/>
      <point x="1240" y="224"/>
      <point x="1202" y="119"/>
      <point x="1202" y="48" type="curve" smooth="yes"/>
      <point x="1202" y="-49"/>
      <point x="1254" y="-114"/>
    </contour>
  </outline>
</glyph>
<glyph name="N" format="2">
  <advance width="1039"/>
  <unicode hex="004E"/>
  <note>
N
</note>
  <outline>
    <contour>
      <point x="1012" y="-146" type="curve" smooth="yes"/>
      <point x="1028" y="-146"/>
      <point x="1062" y="-129.333"/>
      <point x="1062" y="-112" type="curve" smooth="yes"/>
      <point x="1062" y="-78.63"/>
      <point x="1022.063" y="-121"/>
      <point x="969" y="-121" type="curve" smooth="yes"/>
      <point x="942.333" y="-121"/>
      <point x="924.333" y="-105.667"/>
      <point x="915" y="-75" type="curve" smooth="yes"/>
      <point x="910.333" y="-61"/>
      <point x="908" y="-45.333"/>
      <point x="908" y="-28" type="curve" smooth="yes"/>
      <point x="908" y="70.667"/>
      <point x="974.833" y="197.333"/>
      <point x="1059.5" y="352" type="curve" smooth="yes"/>
      <point x="1144.167" y="506.667"/>
      <point x="1189" y="599.667"/>
      <point x="1189" y="669" type="curve" smooth="yes"/>
      <point x="1189" y="766.482"/>
      <point x="1095.248" y="789.27"/>
      <point x="983" y="736" type="curve" smooth="yes"/>
      <point x="913" y="704"/>
      <point x="834" y="634.667"/>
      <point x="746" y="528" type="curve" smooth="yes"/>
      <point x="698.667" y="470.667"/>
      <point x="654.667" y="410.667"/>
      <point x="614" y="348" type="curve" smooth="yes"/>
      <point x="583" y="298" type="line"/>
      <point x="581.667" y="298.667"/>
      <point x="595" y="329.333"/>
      <point x="623" y="390" type="curve" smooth="yes"/>
      <point x="652.5" y="457" type="line" smooth="yes"/>
      <point x="659.5" y="473"/>
      <point x="664.333" y="484.833"/>
      <point x="667" y="492.5" type="curve" smooth="yes"/>
      <point x="683" y="540.5" type="line" smooth="yes"/>
      <point x="691" y="564.833"/>
      <point x="695" y="595"/>
      <point x="695" y="631" type="curve" smooth="yes"/>
      <point x="695" y="671"/>
      <point x="685.667" y="704"/>
      <point x="667" y="730" type="curve" smooth="yes"/>
      <point x="643.667" y="763.333"/>
      <point x="611.333" y="783"/>
      <point x="570" y="789" type="curve" smooth="yes"/>
      <point x="554.667" y="791"/>
      <point x="536" y="792"/>
      <point x="514" y="792" type="curve" smooth="yes"/>
      <point x="492" y="792"/>
      <point x="466.333" y="789"/>
      <point x="437" y="783" type="curve" smooth="yes"/>
      <point x="331.667" y="761"/>
      <point x="231.667" y="703.333"/>
      <point x="137" y="610" type="curve" smooth="yes"/>
      <point x="37" y="512.667"/>
      <point x="-2" y="398"/>
      <point x="-2" y="318" type="curve" smooth="yes"/>
      <point x="-2" y="303.333"/>
      <point x="-1" y="289.667"/>
      <point x="1" y="277" type="curve" smooth="yes"/>
      <point x="21" y="178.333"/>
      <point x="93.167" y="122"/>
      <point x="172.5" y="122" type="curve" smooth="yes"/>
      <point x="212.167" y="122"/>
      <point x="248.333" y="128.667"/>
      <point x="281" y="142" type="curve" smooth="yes"/>
      <point x="344.333" y="167.333"/>
      <point x="394" y="210"/>
      <point x="430" y="270" type="curve" smooth="yes"/>
      <point x="451.333" y="306.667"/>
      <point x="462" y="339.333"/>
      <point x="462" y="368" type="curve" smooth="yes"/>
      <point x="462" y="380.667"/>
      <point x="459.667" y="392.667"/>
      <point x="455" y="404" type="curve" smooth="yes"/>
      <point x="444.333" y="433.333"/>
      <point x="422.167" y="448"/>
      <point x="388.5" y="448" type="curve" smooth="yes"/>
      <point x="354.833" y="448"/>
      <point x="335" y="444"/>
      <point x="329" y="436" type="curve"/>
      <point x="318.098" y="425.098"/>
      <point x="335.583" y="427"/>
      <point x="357" y="427" type="curve" smooth="yes"/>
      <point x="401.667" y="427"/>
      <point x="424" y="405.667"/>
      <point x="424" y="363" type="curve" smooth="yes"/>
      <point x="424" y="318.333"/>
      <point x="403.333" y="273"/>
      <point x="362" y="227" type="curve" smooth="yes"/>
      <point x="310.667" y="169.667"/>
      <point x="250.667" y="141"/>
      <point x="182" y="141" type="curve" smooth="yes"/>
      <point x="126.667" y="143.667"/>
      <point x="88" y="172.667"/>
      <point x="66" y="228" type="curve"/>
      <point x="60" y="248.667"/>
      <point x="57" y="270.667"/>
      <point x="57" y="294" type="curve" smooth="yes"/>
      <point x="57" y="340"/>
      <point x="69.333" y="390.333"/>
      <point x="94" y="445" type="curve" smooth="yes"/>
      <point x="139.333" y="545.667"/>
      <point x="212.333" y="627.333"/>
      <point x="313" y="690" type="curve" smooth="yes"/>
      <point x="402.333" y="746"/>
      <point x="478" y="763"/>
      <point x="514" y="763" type="curve" smooth="yes"/>
      <point x="532" y="763"/>
      <point x="546" y="762.333"/>
      <point x="556" y="761" type="curve" smooth="yes"/>
      <point x="589.333" y="755.667"/>
      <point x="613" y="735.333"/>
      <point x="627" y="700" type="curve" smooth="yes"/>
      <point x="633.667" y="682.667"/>
      <point x="637" y="661.833"/>
      <point x="637" y="637.5" type="curve" smooth="yes"/>
      <point x="637" y="613.167"/>
      <point x="633.667" y="585.333"/>
      <point x="627" y="554" type="curve" smooth="yes"/>
      <point x="584.333" y="364.667"/>
      <point x="438" y="52.667"/>
      <point x="374" y="-42" type="curve"/>
      <point x="373.333" y="-44.667"/>
      <point x="373.333" y="-47"/>
      <point x="374" y="-49" type="curve" smooth="yes"/>
      <point x="375.333" y="-59.667"/>
      <point x="384.333" y="-65"/>
      <point x="401" y="-65" type="curve" smooth="yes"/>
      <point x="429" y="-65"/>
      <point x="447.667" y="-55.333"/>
      <point x="457" y="-36" type="curve" smooth="yes"/>
      <point x="498" y="52" type="line" smooth="yes"/>
      <point x="569.333" y="205.333"/>
      <point x="633" y="323.667"/>
      <point x="689" y="407" type="curve" smooth="yes"/>
      <point x="783.667" y="548.333"/>
      <point x="883.333" y="644"/>
      <point x="988" y="694" type="curve" smooth="yes"/>
      <point x="1016" y="708.667"/>
      <point x="1041" y="716"/>
      <point x="1063" y="716" type="curve" smooth="yes"/>
      <point x="1095.667" y="716"/>
      <point x="1112" y="702"/>
      <point x="1112" y="674" type="curve" smooth="yes"/>
      <point x="1112" y="668.667"/>
      <point x="1111.333" y="663"/>
      <point x="1110" y="657" type="curve" smooth="yes"/>
      <point x="1083.36" y="482.358"/>
      <point x="924.617" y="259.775"/>
      <point x="869.5" y="96" type="curve" smooth="yes"/>
      <point x="857.833" y="61.333"/>
      <point x="852" y="27"/>
      <point x="852" y="-7" type="curve" smooth="yes"/>
      <point x="852" y="-99.667"/>
      <point x="905.333" y="-146"/>
    </contour>
  </outline>
</glyph>
<glyph name="O" format="2">
  <advance width="568"/>
  <unicode hex="004F"/>
  <note>
O
</note>
  <anchor x="300" y="699" name="top"/>
  <outline>
    <contour>
      <point x="248" y="-63" type="curve" smooth="yes"/>
      <point x="357" y="-63"/>
      <point x="459" y="-11"/>
      <point x="552" y="92" type="curve" smooth="yes"/>
      <point x="690" y="241"/>
      <point x="734" y="417"/>
      <point x="694" y="572" type="curve" smooth="yes"/>
      <point x="648" y="762"/>
      <point x="445" y="806"/>
      <point x="250" y="776" type="curve" smooth="yes"/>
      <point x="164" y="761"/>
      <point x="99" y="721"/>
      <point x="56" y="656" type="curve" smooth="yes"/>
      <point x="7" y="582"/>
      <point x="13" y="511"/>
      <point x="45" y="447" type="curve" smooth="yes"/>
      <point x="58" y="422"/>
      <point x="74" y="430"/>
      <point x="69" y="453" type="curve" smooth="yes"/>
      <point x="53" y="518"/>
      <point x="51" y="590"/>
      <point x="90" y="655" type="curve" smooth="yes"/>
      <point x="123" y="711"/>
      <point x="177" y="744"/>
      <point x="254" y="754" type="curve" smooth="yes"/>
      <point x="385" y="773"/>
      <point x="521" y="739"/>
      <point x="600" y="621" type="curve" smooth="yes"/>
      <point x="695" y="480"/>
      <point x="661" y="285"/>
      <point x="552" y="142" type="curve" smooth="yes"/>
      <point x="483" y="52"/>
      <point x="369" y="-43"/>
      <point x="242" y="-43" type="curve" smooth="yes"/>
      <point x="210" y="-43"/>
      <point x="181" y="-32"/>
      <point x="154" y="-10" type="curve" smooth="yes"/>
      <point x="77" y="55"/>
      <point x="81" y="175"/>
      <point x="108" y="266" type="curve" smooth="yes"/>
      <point x="148" y="406"/>
      <point x="229" y="522"/>
      <point x="328" y="590" type="curve" smooth="yes"/>
      <point x="365" y="615"/>
      <point x="399" y="625"/>
      <point x="429" y="628" type="curve" smooth="yes"/>
      <point x="457" y="631"/>
      <point x="463" y="624"/>
      <point x="467" y="638" type="curve" smooth="yes"/>
      <point x="471" y="653"/>
      <point x="422" y="657"/>
      <point x="399" y="657" type="curve" smooth="yes"/>
      <point x="337" y="657"/>
      <point x="272" y="628"/>
      <point x="221" y="580" type="curve" smooth="yes"/>
      <point x="133" y="499"/>
      <point x="75" y="405"/>
      <point x="47" y="294" type="curve" smooth="yes"/>
      <point x="31" y="231"/>
      <point x="25" y="149"/>
      <point x="58" y="64" type="curve" smooth="yes"/>
      <point x="87" y="-9"/>
      <point x="155" y="-63"/>
    </contour>
  </outline>
</glyph>
<glyph name="P" format="2">
  <advance width="890"/>
  <unicode hex="0050"/>
  <note>
P
</note>
  <outline>
    <contour>
      <point x="142" y="-39" type="curve" smooth="yes"/>
      <point x="232.667" y="-39"/>
      <point x="315.667" y="-3.667"/>
      <point x="391" y="67" type="curve" smooth="yes"/>
      <point x="442.333" y="117"/>
      <point x="492.333" y="177.667"/>
      <point x="541" y="249" type="curve"/>
      <point x="553" y="248.333"/>
      <point x="565" y="248"/>
      <point x="577" y="248" type="curve" smooth="yes"/>
      <point x="633" y="248"/>
      <point x="695.667" y="256.333"/>
      <point x="765" y="273" type="curve" smooth="yes"/>
      <point x="845" y="293"/>
      <point x="933" y="340.333"/>
      <point x="993" y="403" type="curve" smooth="yes"/>
      <point x="1045" y="456.333"/>
      <point x="1071" y="506.333"/>
      <point x="1071" y="553" type="curve" smooth="yes"/>
      <point x="1071" y="612.333"/>
      <point x="1035.667" y="663"/>
      <point x="965" y="705" type="curve" smooth="yes"/>
      <point x="930.333" y="725.667"/>
      <point x="891.667" y="741.667"/>
      <point x="849" y="753" type="curve"/>
      <point x="883.472" y="787.472"/>
      <point x="928" y="810"/>
      <point x="907" y="810" type="curve"/>
      <point x="899.826" y="817.174"/>
      <point x="855.71" y="799.33"/>
      <point x="809" y="763" type="curve"/>
      <point x="652.254" y="795.571"/>
      <point x="437.833" y="786.333"/>
      <point x="247" y="710" type="curve" smooth="yes"/>
      <point x="172.333" y="679.333"/>
      <point x="115.333" y="644.5"/>
      <point x="74" y="582.5" type="curve" smooth="yes"/>
      <point x="53.333" y="551.5"/>
      <point x="43" y="516.667"/>
      <point x="43" y="478" type="curve" smooth="yes"/>
      <point x="43" y="394"/>
      <point x="106.333" y="335"/>
      <point x="197" y="335" type="curve" smooth="yes"/>
      <point x="277" y="335"/>
      <point x="355.667" y="388.333"/>
      <point x="357" y="475" type="curve" smooth="yes"/>
      <point x="356.222" y="494.57"/>
      <point x="340.424" y="484.603"/>
      <point x="343" y="476" type="curve"/>
      <point x="319" y="408"/>
      <point x="255.167" y="355"/>
      <point x="194.5" y="355" type="curve" smooth="yes"/>
      <point x="164.167" y="355"/>
      <point x="139.333" y="366.667"/>
      <point x="120" y="390" type="curve" smooth="yes"/>
      <point x="102" y="412"/>
      <point x="93" y="435.667"/>
      <point x="93" y="461" type="curve" smooth="yes"/>
      <point x="93" y="502.333"/>
      <point x="109.667" y="542"/>
      <point x="143" y="580" type="curve" smooth="yes"/>
      <point x="193.667" y="640"/>
      <point x="274" y="677.833"/>
      <point x="346" y="702.5" type="curve" smooth="yes"/>
      <point x="382" y="714.833"/>
      <point x="424.333" y="725.5"/>
      <point x="473" y="734.5" type="curve" smooth="yes"/>
      <point x="521.667" y="743.5"/>
      <point x="573.333" y="748"/>
      <point x="628" y="748" type="curve" smooth="yes"/>
      <point x="682.667" y="748"/>
      <point x="734" y="744.667"/>
      <point x="782" y="738" type="curve"/>
      <point x="772.667" y="728.667"/>
      <point x="761" y="716"/>
      <point x="747" y="700" type="curve" smooth="yes"/>
      <point x="729" y="682" type="line" smooth="yes"/>
      <point x="653" y="596.667"/>
      <point x="574.333" y="463.333"/>
      <point x="525" y="366" type="curve" smooth="yes"/>
      <point x="461" y="236"/>
      <point x="403.333" y="146"/>
      <point x="352" y="96" type="curve" smooth="yes"/>
      <point x="280" y="26.667"/>
      <point x="206.667" y="-8"/>
      <point x="132" y="-8" type="curve" smooth="yes"/>
      <point x="82" y="-8"/>
      <point x="51.667" y="10"/>
      <point x="41" y="46" type="curve" smooth="yes"/>
      <point x="38.333" y="53.333"/>
      <point x="37" y="60.667"/>
      <point x="37" y="68" type="curve" smooth="yes"/>
      <point x="37" y="156.184"/>
      <point x="164.044" y="98.044"/>
      <point x="199" y="133" type="curve"/>
      <point x="202.333" y="137.667"/>
      <point x="198.333" y="142"/>
      <point x="187" y="146" type="curve" smooth="yes"/>
      <point x="156.333" y="156"/>
      <point x="127" y="161"/>
      <point x="99" y="161" type="curve" smooth="yes"/>
      <point x="55.667" y="161"/>
      <point x="22" y="147.333"/>
      <point x="-2" y="120" type="curve" smooth="yes"/>
      <point x="-17.333" y="102.667"/>
      <point x="-25" y="86.5"/>
      <point x="-25" y="71.5" type="curve" smooth="yes"/>
      <point x="-25" y="56.5"/>
      <point x="-22.667" y="43.333"/>
      <point x="-18" y="32" type="curve" smooth="yes"/>
      <point x="2" y="-15.333"/>
      <point x="55.333" y="-39"/>
    </contour>
    <contour>
      <point x="555" y="270" type="line"/>
      <point x="582.333" y="312"/>
      <point x="625.667" y="386"/>
      <point x="685" y="492" type="curve" smooth="yes"/>
      <point x="744.333" y="598"/>
      <point x="792.667" y="677"/>
      <point x="830" y="729" type="curve"/>
      <point x="948" y="701"/>
      <point x="1007" y="648"/>
      <point x="1007" y="570" type="curve" smooth="yes"/>
      <point x="1007" y="501.333"/>
      <point x="964.333" y="434.667"/>
      <point x="879" y="370" type="curve" smooth="yes"/>
      <point x="791" y="304.667"/>
      <point x="666.333" y="270"/>
      <point x="569" y="270" type="curve" smooth="yes"/>
    </contour>
  </outline>
</glyph>
<glyph name="Q" format="2">
  <advance width="759"/>
  <unicode hex="0051"/>
  <note>
Q
</note>
  <anchor x="360" y="699" name="top"/>
  <outline>
    <contour>
      <point x="718" y="-369" type="curve" smooth="yes"/>
      <point x="822" y="-369"/>
      <point x="899" y="-337"/>
      <point x="899" y="-259" type="curve" smooth="yes"/>
      <point x="899" y="-189"/>
      <point x="799" y="-123"/>
      <point x="704" y="-108" type="curve" smooth="yes"/>
      <point x="695" y="-107"/>
      <point x="691" y="-109"/>
      <point x="691" y="-115" type="curve" smooth="yes"/>
      <point x="691" y="-122"/>
      <point x="696" y="-126"/>
      <point x="707" y="-127" type="curve" smooth="yes"/>
      <point x="790" y="-141"/>
      <point x="871" y="-208"/>
      <point x="871" y="-267" type="curve" smooth="yes"/>
      <point x="871" y="-319"/>
      <point x="833" y="-345"/>
      <point x="778" y="-345" type="curve" smooth="yes"/>
      <point x="762" y="-345"/>
      <point x="744" y="-343"/>
      <point x="725" y="-339" type="curve" smooth="yes"/>
      <point x="560" y="-307"/>
      <point x="462" y="-227"/>
      <point x="358" y="-142" type="curve" smooth="yes"/>
      <point x="291" y="-88"/>
      <point x="228" y="-61"/>
      <point x="171" y="-61" type="curve" smooth="yes"/>
      <point x="130" y="-61"/>
      <point x="89" y="-105"/>
      <point x="89" y="-131" type="curve" smooth="yes"/>
      <point x="89" y="-144"/>
      <point x="92" y="-150"/>
      <point x="97" y="-150" type="curve" smooth="yes"/>
      <point x="108" y="-152"/>
      <point x="107" y="-118"/>
      <point x="129" y="-105" type="curve" smooth="yes"/>
      <point x="143" y="-96"/>
      <point x="157" y="-91"/>
      <point x="171" y="-91" type="curve" smooth="yes"/>
      <point x="210" y="-91"/>
      <point x="249" y="-109"/>
      <point x="288" y="-146" type="curve" smooth="yes"/>
      <point x="388" y="-247"/>
      <point x="437" y="-285"/>
      <point x="488" y="-314" type="curve" smooth="yes"/>
      <point x="553" y="-351"/>
      <point x="629" y="-369"/>
    </contour>
    <component base="O" xOffset="60"/>
  </outline>
</glyph>
<glyph name="R" format="2">
  <advance width="973"/>
  <unicode hex="0052"/>
  <note>
R
</note>
  <outline>
    <contour>
      <point x="892" y="-41" type="curve" smooth="yes"/>
      <point x="931" y="-41"/>
      <point x="965" y="-25"/>
      <point x="995" y="8" type="curve" smooth="yes"/>
      <point x="1025" y="41"/>
      <point x="1059" y="100"/>
      <point x="1098" y="187" type="curve" smooth="yes"/>
      <point x="1103" y="197"/>
      <point x="1102" y="202"/>
      <point x="1097" y="202" type="curve" smooth="yes"/>
      <point x="1092" y="202"/>
      <point x="1086" y="197"/>
      <point x="1081" y="187" type="curve" smooth="yes"/>
      <point x="1046" y="116"/>
      <point x="1015" y="68"/>
      <point x="988" y="41" type="curve" smooth="yes"/>
      <point x="961" y="14"/>
      <point x="935" y="1"/>
      <point x="911" y="1" type="curve" smooth="yes"/>
      <point x="876" y="1"/>
      <point x="849" y="24"/>
      <point x="813" y="79" type="curve" smooth="yes"/>
      <point x="760" y="160"/>
      <point x="723" y="259"/>
      <point x="702" y="377" type="curve"/>
      <point x="808" y="381"/>
      <point x="940" y="405"/>
      <point x="1040" y="482" type="curve" smooth="yes"/>
      <point x="1089" y="521"/>
      <point x="1113" y="560"/>
      <point x="1113" y="599" type="curve" smooth="yes"/>
      <point x="1113" y="696"/>
      <point x="952" y="746"/>
      <point x="864" y="754" type="curve"/>
      <point x="868" y="764"/>
      <point x="874" y="787"/>
      <point x="863" y="787" type="curve" smooth="yes"/>
      <point x="856" y="787"/>
      <point x="844" y="778"/>
      <point x="827" y="759" type="curve"/>
      <point x="702" y="776"/>
      <point x="572" y="772"/>
      <point x="446" y="754" type="curve" smooth="yes"/>
      <point x="237" y="723"/>
      <point x="96" y="607"/>
      <point x="96" y="475" type="curve" smooth="yes"/>
      <point x="96" y="386"/>
      <point x="163" y="328"/>
      <point x="242" y="328" type="curve" smooth="yes"/>
      <point x="294" y="328"/>
      <point x="339" y="347"/>
      <point x="376" y="386" type="curve" smooth="yes"/>
      <point x="397" y="408"/>
      <point x="410" y="435"/>
      <point x="415" y="467" type="curve" smooth="yes"/>
      <point x="416" y="477"/>
      <point x="413" y="482"/>
      <point x="408" y="482" type="curve" smooth="yes"/>
      <point x="405" y="482"/>
      <point x="403" y="478"/>
      <point x="402" y="469" type="curve" smooth="yes"/>
      <point x="399" y="434"/>
      <point x="339" y="355"/>
      <point x="256" y="355" type="curve" smooth="yes"/>
      <point x="188" y="355"/>
      <point x="145" y="406"/>
      <point x="145" y="462" type="curve" smooth="yes"/>
      <point x="145" y="520"/>
      <point x="176" y="575"/>
      <point x="238" y="626" type="curve" smooth="yes"/>
      <point x="378" y="742"/>
      <point x="665" y="747"/>
      <point x="805" y="735" type="curve"/>
      <point x="770" y="696"/>
      <point x="731" y="641"/>
      <point x="688" y="568" type="curve" smooth="yes"/>
      <point x="654" y="509"/>
      <point x="628" y="460"/>
      <point x="547" y="316" type="curve" smooth="yes"/>
      <point x="522" y="273"/>
      <point x="493" y="226"/>
      <point x="458" y="176" type="curve" smooth="yes"/>
      <point x="414" y="111"/>
      <point x="379" y="78"/>
      <point x="331" y="41" type="curve" smooth="yes"/>
      <point x="289" y="8"/>
      <point x="241" y="-8"/>
      <point x="186" y="-8" type="curve" smooth="yes"/>
      <point x="124" y="-8"/>
      <point x="87" y="25"/>
      <point x="87" y="70" type="curve" smooth="yes"/>
      <point x="87" y="106"/>
      <point x="123" y="147"/>
      <point x="167" y="147" type="curve" smooth="yes"/>
      <point x="207" y="147"/>
      <point x="242" y="123"/>
      <point x="248" y="135" type="curve" smooth="yes"/>
      <point x="250" y="139"/>
      <point x="247" y="143"/>
      <point x="238" y="146" type="curve" smooth="yes"/>
      <point x="205" y="157"/>
      <point x="174" y="163"/>
      <point x="145" y="163" type="curve" smooth="yes"/>
      <point x="76" y="163"/>
      <point x="20" y="118"/>
      <point x="20" y="74" type="curve" smooth="yes"/>
      <point x="20" y="-4"/>
      <point x="95" y="-39"/>
      <point x="196" y="-39" type="curve" smooth="yes"/>
      <point x="295" y="-39"/>
      <point x="384" y="3"/>
      <point x="463" y="88" type="curve" smooth="yes"/>
      <point x="541" y="175"/>
      <point x="587" y="261"/>
      <point x="639" y="365" type="curve"/>
      <point x="658" y="254"/>
      <point x="707" y="91"/>
      <point x="779" y="16" type="curve" smooth="yes"/>
      <point x="815" y="-22"/>
      <point x="853" y="-41"/>
    </contour>
    <contour>
      <point x="660" y="403" type="curve"/>
      <point x="683" y="448"/>
      <point x="717" y="508"/>
      <point x="764" y="584" type="curve" smooth="yes"/>
      <point x="811" y="660"/>
      <point x="840" y="708"/>
      <point x="852" y="729" type="curve"/>
      <point x="921" y="718"/>
      <point x="1045" y="684"/>
      <point x="1045" y="614" type="curve" smooth="yes"/>
      <point x="1045" y="579"/>
      <point x="1021" y="542"/>
      <point x="980" y="505" type="curve" smooth="yes"/>
      <point x="927" y="455"/>
      <point x="825" y="409"/>
    </contour>
  </outline>
</glyph>
<glyph name="S" format="2">
  <advance width="819"/>
  <unicode hex="0053"/>
  <note>
S
</note>
  <outline>
    <contour>
      <point x="34" y="67"/>
      <point x="180" y="-40"/>
      <point x="350" y="-69" type="curve" smooth="yes"/>
      <point x="480" y="-92"/>
      <point x="617" y="-57"/>
      <point x="690" y="-13" type="curve" smooth="yes"/>
      <point x="785" y="44"/>
      <point x="893" y="148"/>
      <point x="893" y="249" type="curve" smooth="yes"/>
      <point x="893" y="296"/>
      <point x="868" y="354"/>
      <point x="789" y="402" type="curve" smooth="yes"/>
      <point x="730" y="438"/>
      <point x="597" y="493"/>
      <point x="553" y="520" type="curve" smooth="yes"/>
      <point x="503" y="551"/>
      <point x="478" y="587"/>
      <point x="478" y="626" type="curve" smooth="yes"/>
      <point x="478" y="655"/>
      <point x="495" y="685"/>
      <point x="529" y="714" type="curve" smooth="yes"/>
      <point x="590" y="766"/>
      <point x="698" y="789"/>
      <point x="764" y="789" type="curve" smooth="yes"/>
      <point x="818" y="789"/>
      <point x="860" y="774"/>
      <point x="891" y="745" type="curve" smooth="yes"/>
      <point x="912" y="724"/>
      <point x="924" y="702"/>
      <point x="923" y="679" type="curve" smooth="yes"/>
      <point x="922" y="658"/>
      <point x="913" y="642"/>
      <point x="895" y="630" type="curve" smooth="yes"/>
      <point x="871" y="613"/>
      <point x="835" y="603"/>
      <point x="836" y="594" type="curve" smooth="yes"/>
      <point x="836" y="588"/>
      <point x="844" y="587"/>
      <point x="856" y="590" type="curve" smooth="yes"/>
      <point x="884" y="598"/>
      <point x="906" y="609"/>
      <point x="923" y="622" type="curve" smooth="yes"/>
      <point x="947" y="643"/>
      <point x="959" y="666"/>
      <point x="959" y="692" type="curve" smooth="yes"/>
      <point x="959" y="761"/>
      <point x="861" y="814"/>
      <point x="753" y="814" type="curve" smooth="yes"/>
      <point x="632" y="814"/>
      <point x="539" y="786"/>
      <point x="473" y="730" type="curve" smooth="yes"/>
      <point x="427" y="691"/>
      <point x="404" y="650"/>
      <point x="404" y="609" type="curve" smooth="yes"/>
      <point x="404" y="562"/>
      <point x="430" y="521"/>
      <point x="481" y="486" type="curve" smooth="yes"/>
      <point x="536" y="450"/>
      <point x="700" y="391"/>
      <point x="752" y="350" type="curve" smooth="yes"/>
      <point x="793" y="315"/>
      <point x="813" y="275"/>
      <point x="813" y="230" type="curve" smooth="yes"/>
      <point x="813" y="144"/>
      <point x="745" y="49"/>
      <point x="634" y="-8" type="curve" smooth="yes"/>
      <point x="590" y="-31"/>
      <point x="466" y="-60"/>
      <point x="348" y="-38" type="curve" smooth="yes"/>
      <point x="209" y="-12"/>
      <point x="90" y="73"/>
      <point x="77" y="158" type="curve" smooth="yes"/>
      <point x="63" y="248"/>
      <point x="115" y="355"/>
      <point x="202" y="424" type="curve" smooth="yes"/>
      <point x="229" y="447"/>
      <point x="212" y="447"/>
      <point x="192" y="439" type="curve" smooth="yes"/>
      <point x="96" y="394"/>
      <point x="10" y="264"/>
      <point x="21" y="173" type="curve" smooth="yes"/>
    </contour>
  </outline>
</glyph>
<glyph name="U" format="2">
  <advance width="942"/>
  <unicode hex="0055"/>
  <note>
U
</note>
  <anchor x="954" y="662" name="top"/>
  <outline>
    <contour>
      <point x="898" y="-85" type="curve"/>
      <point x="910" y="-85" type="line"/>
      <point x="924.667" y="-83"/>
      <point x="932" y="-78"/>
      <point x="932" y="-70" type="curve" smooth="yes"/>
      <point x="932" y="-64.667"/>
      <point x="926" y="-62"/>
      <point x="903" y="-62" type="curve" smooth="yes"/>
      <point x="878.333" y="-62"/>
      <point x="866" y="-39"/>
      <point x="866" y="7" type="curve" smooth="yes"/>
      <point x="866" y="29.667"/>
      <point x="868.333" y="55"/>
      <point x="873" y="83" type="curve" smooth="yes"/>
      <point x="890.333" y="185.667"/>
      <point x="926.667" y="286.667"/>
      <point x="982" y="386" type="curve" smooth="yes"/>
      <point x="998.667" y="415.333"/>
      <point x="1007" y="437.667"/>
      <point x="1007" y="453" type="curve" smooth="yes"/>
      <point x="1007" y="465.667"/>
      <point x="1002" y="482"/>
      <point x="987" y="482" type="curve" smooth="yes"/>
      <point x="969.667" y="482"/>
      <point x="949" y="465"/>
      <point x="931" y="429" type="curve" smooth="yes"/>
      <point x="866.5" y="301.5" type="line" smooth="yes"/>
      <point x="810" y="189"/>
      <point x="705" y="-20"/>
      <point x="595" y="-20" type="curve" smooth="yes"/>
      <point x="557.667" y="-20"/>
      <point x="539" y="8"/>
      <point x="539" y="64" type="curve" smooth="yes"/>
      <point x="539" y="124"/>
      <point x="568.833" y="219.5"/>
      <point x="609.5" y="305.5" type="curve" smooth="yes"/>
      <point x="629.833" y="348.5"/>
      <point x="651" y="396"/>
      <point x="673" y="448" type="curve" smooth="yes"/>
      <point x="711" y="536"/>
      <point x="730" y="609.667"/>
      <point x="730" y="669" type="curve" smooth="yes"/>
      <point x="730" y="748.333"/>
      <point x="697.667" y="802"/>
      <point x="633" y="830" type="curve" smooth="yes"/>
      <point x="529" y="873"/>
      <point x="406" y="841"/>
      <point x="307" y="786" type="curve" smooth="yes"/>
      <point x="146" y="697"/>
      <point x="-3" y="545"/>
      <point x="-3" y="362.5" type="curve" smooth="yes"/>
      <point x="-3" y="232"/>
      <point x="71" y="134"/>
      <point x="189" y="134" type="curve" smooth="yes"/>
      <point x="295" y="134"/>
      <point x="407" y="222"/>
      <point x="449" y="332" type="curve" smooth="yes"/>
      <point x="460.333" y="362.667"/>
      <point x="466" y="389.333"/>
      <point x="466" y="412" type="curve" smooth="yes"/>
      <point x="466" y="462"/>
      <point x="442" y="506"/>
      <point x="390" y="506" type="curve" smooth="yes"/>
      <point x="354" y="506"/>
      <point x="301" y="485"/>
      <point x="306" y="474" type="curve" smooth="yes"/>
      <point x="311" y="462"/>
      <point x="352" y="479"/>
      <point x="369" y="479" type="curve" smooth="yes"/>
      <point x="414.333" y="479"/>
      <point x="437" y="454"/>
      <point x="437" y="404" type="curve" smooth="yes"/>
      <point x="437" y="370"/>
      <point x="423.667" y="331"/>
      <point x="397" y="287" type="curve" smooth="yes"/>
      <point x="348.333" y="204.333"/>
      <point x="271" y="163"/>
      <point x="202" y="163" type="curve" smooth="yes"/>
      <point x="87" y="163"/>
      <point x="37" y="265"/>
      <point x="37" y="365.5" type="curve" smooth="yes"/>
      <point x="37" y="506"/>
      <point x="145" y="659"/>
      <point x="305" y="753" type="curve" smooth="yes"/>
      <point x="407" y="812"/>
      <point x="541" y="847"/>
      <point x="618" y="810" type="curve" smooth="yes"/>
      <point x="654" y="792"/>
      <point x="677" y="758"/>
      <point x="677" y="702" type="curve" smooth="yes"/>
      <point x="677" y="636.667"/>
      <point x="663.167" y="566.667"/>
      <point x="594.5" y="416" type="curve" smooth="yes"/>
      <point x="560.167" y="340.667"/>
      <point x="532.667" y="273.5"/>
      <point x="512" y="214.5" type="curve" smooth="yes"/>
      <point x="469" y="92"/>
      <point x="465" y="-46"/>
      <point x="576" y="-46" type="curve" smooth="yes"/>
      <point x="685" y="-46"/>
      <point x="783" y="86"/>
      <point x="839" y="179" type="curve"/>
      <point x="830.333" y="137.667"/>
      <point x="826" y="98"/>
      <point x="826" y="60" type="curve" smooth="yes"/>
      <point x="826" y="33"/>
      <point x="823" y="-11"/>
      <point x="847" y="-50" type="curve" smooth="yes"/>
      <point x="859" y="-69"/>
      <point x="876" y="-81"/>
    </contour>
  </outline>
</glyph>
<glyph name="V" format="2">
  <advance width="975"/>
  <unicode hex="0056"/>
  <note>
V
</note>
  <outline>
    <contour>
      <point x="483" y="-62"/>
      <point x="502" y="-88"/>
      <point x="533" y="-94" type="curve" smooth="yes"/>
      <point x="618" y="-110"/>
      <point x="791" y="25"/>
      <point x="891" y="148.5" type="curve" smooth="yes"/>
      <point x="962" y="237"/>
      <point x="1052" y="381"/>
      <point x="1052" y="484.5" type="curve" smooth="yes"/>
      <point x="1052" y="511.5"/>
      <point x="1045.667" y="534.667"/>
      <point x="1033" y="554" type="curve" smooth="yes"/>
      <point x="1010.333" y="588.667"/>
      <point x="985" y="616"/>
      <point x="953" y="619" type="curve" smooth="yes"/>
      <point x="904.344" y="616.438"/>
      <point x="920" y="573"/>
      <point x="970" y="588" type="curve" smooth="yes"/>
      <point x="980" y="591"/>
      <point x="1000" y="548.528"/>
      <point x="1000" y="503" type="curve" smooth="yes"/>
      <point x="1000" y="455"/>
      <point x="986.667" y="402.333"/>
      <point x="960" y="345" type="curve" smooth="yes"/>
      <point x="918.667" y="255"/>
      <point x="861.667" y="172.333"/>
      <point x="789" y="97" type="curve" smooth="yes"/>
      <point x="685.667" y="-10.333"/>
      <point x="613.333" y="-64"/>
      <point x="572" y="-64" type="curve" smooth="yes"/>
      <point x="551.333" y="-64"/>
      <point x="541" y="-48.667"/>
      <point x="541" y="-18" type="curve" smooth="yes"/>
      <point x="541" y="22.667"/>
      <point x="558.333" y="95.333"/>
      <point x="593" y="200" type="curve" smooth="yes"/>
      <point x="616.333" y="270.667"/>
      <point x="643" y="336.667"/>
      <point x="673" y="398" type="curve" smooth="yes"/>
      <point x="721" y="496.667"/>
      <point x="745" y="579.333"/>
      <point x="745" y="646" type="curve" smooth="yes"/>
      <point x="745" y="736.667"/>
      <point x="712.667" y="796"/>
      <point x="648" y="824" type="curve" smooth="yes"/>
      <point x="611.333" y="838"/>
      <point x="570.667" y="845"/>
      <point x="526" y="845" type="curve" smooth="yes"/>
      <point x="481.333" y="845"/>
      <point x="433.667" y="835.333"/>
      <point x="383" y="816" type="curve" smooth="yes"/>
      <point x="180.73" y="741.479"/>
      <point x="-8" y="565.772"/>
      <point x="-8" y="365" type="curve" smooth="yes"/>
      <point x="-8" y="248"/>
      <point x="79" y="135"/>
      <point x="196.5" y="135" type="curve" smooth="yes"/>
      <point x="285.167" y="135"/>
      <point x="383.5" y="189.5"/>
      <point x="445.5" y="271.5" type="curve" smooth="yes"/>
      <point x="498" y="341"/>
      <point x="515" y="437"/>
      <point x="453" y="485" type="curve" smooth="yes"/>
      <point x="413.503" y="513.212"/>
      <point x="336" y="501.602"/>
      <point x="336" y="472.5" type="curve" smooth="yes"/>
      <point x="336" y="458"/>
      <point x="380" y="477"/>
      <point x="393" y="477" type="curve" smooth="yes"/>
      <point x="418" y="477"/>
      <point x="448" y="452"/>
      <point x="448" y="392" type="curve" smooth="yes"/>
      <point x="448" y="281.333"/>
      <point x="329" y="161"/>
      <point x="217" y="161" type="curve" smooth="yes"/>
      <point x="109" y="161"/>
      <point x="49" y="244"/>
      <point x="49" y="342" type="curve" smooth="yes"/>
      <point x="49" y="416.667"/>
      <point x="82.667" y="515.833"/>
      <point x="152" y="600.5" type="curve" smooth="yes"/>
      <point x="240" y="708"/>
      <point x="405" y="820"/>
      <point x="540" y="820" type="curve" smooth="yes"/>
      <point x="611" y="820"/>
      <point x="677" y="802"/>
      <point x="685" y="732" type="curve" smooth="yes"/>
      <point x="690" y="699"/>
      <point x="686" y="664"/>
      <point x="678" y="628" type="curve" smooth="yes"/>
      <point x="662.667" y="557.333"/>
      <point x="639" y="484.667"/>
      <point x="607" y="410" type="curve" smooth="yes"/>
      <point x="524.333" y="212.667"/>
      <point x="483" y="73"/>
      <point x="483" y="-9" type="curve" smooth="yes"/>
    </contour>
  </outline>
</glyph>
<glyph name="W" format="2">
  <advance width="1344"/>
  <unicode hex="0057"/>
  <note>
W
</note>
  <outline>
    <contour>
      <point x="521" y="-124" type="curve" smooth="yes"/>
      <point x="545" y="-124"/>
      <point x="574.333" y="-111"/>
      <point x="609" y="-85" type="curve" smooth="yes"/>
      <point x="641.667" y="-60.333"/>
      <point x="673.667" y="-29.333"/>
      <point x="705" y="8" type="curve" smooth="yes"/>
      <point x="762.333" y="78"/>
      <point x="809" y="143"/>
      <point x="845" y="203" type="curve"/>
      <point x="828" y="148"/>
      <point x="818" y="68"/>
      <point x="831" y="23" type="curve" smooth="yes"/>
      <point x="847" y="-41"/>
      <point x="889.667" y="-73"/>
      <point x="959" y="-73" type="curve" smooth="yes"/>
      <point x="1092.333" y="-73"/>
      <point x="1281.667" y="59.667"/>
      <point x="1347" y="225" type="curve" smooth="yes"/>
      <point x="1373" y="296"/>
      <point x="1389" y="368"/>
      <point x="1379" y="436" type="curve" smooth="yes"/>
      <point x="1364" y="532"/>
      <point x="1321" y="593"/>
      <point x="1239" y="609" type="curve" smooth="yes"/>
      <point x="1222" y="612"/>
      <point x="1204" y="614"/>
      <point x="1183.5" y="613" type="curve" smooth="yes"/>
      <point x="1171" y="613"/>
      <point x="1137" y="600"/>
      <point x="1137" y="588" type="curve" smooth="yes"/>
      <point x="1137" y="584"/>
      <point x="1141" y="582"/>
      <point x="1149" y="582" type="curve" smooth="yes"/>
      <point x="1182" y="582"/>
      <point x="1177" y="590"/>
      <point x="1211" y="590" type="curve" smooth="yes"/>
      <point x="1287" y="590"/>
      <point x="1333" y="535"/>
      <point x="1333" y="427" type="curve" smooth="yes"/>
      <point x="1333" y="373"/>
      <point x="1316.667" y="307.667"/>
      <point x="1284" y="231" type="curve" smooth="yes"/>
      <point x="1255.333" y="163"/>
      <point x="1202.333" y="98.333"/>
      <point x="1125" y="37" type="curve" smooth="yes"/>
      <point x="1054.333" y="-19.667"/>
      <point x="995" y="-48"/>
      <point x="947" y="-48" type="curve" smooth="yes"/>
      <point x="895.667" y="-48"/>
      <point x="870" y="-16.333"/>
      <point x="870" y="47" type="curve" smooth="yes"/>
      <point x="870" y="88.016"/>
      <point x="877" y="127"/>
      <point x="926" y="247.5" type="curve" smooth="yes"/>
      <point x="978" y="375" type="line" smooth="yes"/>
      <point x="982" y="386"/>
      <point x="983" y="397.667"/>
      <point x="983" y="411" type="curve" smooth="yes"/>
      <point x="983" y="424.333"/>
      <point x="978.667" y="433.333"/>
      <point x="970" y="438" type="curve" smooth="yes"/>
      <point x="947" y="447"/>
      <point x="925" y="420"/>
      <point x="910" y="400" type="curve" smooth="yes"/>
      <point x="891" y="373"/>
      <point x="858" y="320.667"/>
      <point x="812" y="242" type="curve" smooth="yes"/>
      <point x="720" y="84.667"/>
      <point x="633" y="-43.333"/>
      <point x="561" y="-86" type="curve" smooth="yes"/>
      <point x="549" y="-94"/>
      <point x="538.667" y="-98"/>
      <point x="530" y="-98" type="curve" smooth="yes"/>
      <point x="513.333" y="-98"/>
      <point x="505" y="-86"/>
      <point x="505" y="-62" type="curve" smooth="yes"/>
      <point x="505" y="-28"/>
      <point x="525" y="45"/>
      <point x="565" y="157" type="curve" smooth="yes"/>
      <point x="593" y="235.667"/>
      <point x="622.333" y="309.333"/>
      <point x="653" y="378" type="curve" smooth="yes"/>
      <point x="697.667" y="479.333"/>
      <point x="720" y="562.667"/>
      <point x="720" y="628" type="curve" smooth="yes"/>
      <point x="720" y="707.333"/>
      <point x="688" y="761"/>
      <point x="624" y="789" type="curve" smooth="yes"/>
      <point x="540" y="821"/>
      <point x="449" y="812"/>
      <point x="365" y="780" type="curve" smooth="yes"/>
      <point x="180.174" y="706.576"/>
      <point x="-17" y="530.184"/>
      <point x="-17" y="324" type="curve" smooth="yes"/>
      <point x="-17" y="274"/>
      <point x="0" y="212"/>
      <point x="37" y="169" type="curve" smooth="yes"/>
      <point x="75.667" y="122.333"/>
      <point x="127.667" y="99"/>
      <point x="193" y="99" type="curve" smooth="yes"/>
      <point x="249" y="99"/>
      <point x="313" y="125"/>
      <point x="360" y="167" type="curve" smooth="yes"/>
      <point x="422" y="223"/>
      <point x="460" y="305"/>
      <point x="460" y="365" type="curve" smooth="yes"/>
      <point x="460" y="417"/>
      <point x="432" y="464"/>
      <point x="369" y="464" type="curve" smooth="yes"/>
      <point x="334.333" y="464"/>
      <point x="291.333" y="450.333"/>
      <point x="290" y="441" type="curve" smooth="yes"/>
      <point x="288.253" y="428.77"/>
      <point x="317.064" y="440"/>
      <point x="337" y="440" type="curve" smooth="yes"/>
      <point x="385.667" y="440"/>
      <point x="410" y="412.667"/>
      <point x="410" y="358" type="curve" smooth="yes"/>
      <point x="410" y="272"/>
      <point x="327" y="125"/>
      <point x="191" y="125" type="curve" smooth="yes"/>
      <point x="144.333" y="125"/>
      <point x="108" y="140"/>
      <point x="82" y="170" type="curve" smooth="yes"/>
      <point x="54" y="203.333"/>
      <point x="44" y="245.5"/>
      <point x="44" y="275.5" type="curve" smooth="yes"/>
      <point x="44" y="507"/>
      <point x="293" y="784"/>
      <point x="533" y="784" type="curve" smooth="yes"/>
      <point x="603.667" y="784"/>
      <point x="663" y="756.333"/>
      <point x="663" y="671" type="curve" smooth="yes"/>
      <point x="663" y="605"/>
      <point x="635.667" y="506"/>
      <point x="581" y="374" type="curve" smooth="yes"/>
      <point x="493.667" y="166.667"/>
      <point x="450" y="29.333"/>
      <point x="450" y="-38" type="curve" smooth="yes"/>
      <point x="450" y="-95.333"/>
      <point x="473.667" y="-124"/>
    </contour>
  </outline>
</glyph>
<glyph name="X" format="2">
  <advance width="807"/>
  <unicode hex="0058"/>
  <note>
X
</note>
  <outline>
    <contour>
      <point x="-107" y="-220" type="curve" smooth="yes"/>
      <point x="-87" y="-220"/>
      <point x="-66.667" y="-203"/>
      <point x="-46" y="-169" type="curve" smooth="yes"/>
      <point x="58" y="-5.667"/>
      <point x="239.667" y="169.667"/>
      <point x="499" y="357" type="curve"/>
      <point x="497.667" y="283"/>
      <point x="497" y="212.333"/>
      <point x="497" y="145" type="curve" smooth="yes"/>
      <point x="497" y="77.667"/>
      <point x="499" y="35"/>
      <point x="503" y="17" type="curve" smooth="yes"/>
      <point x="520.437" y="-65.427"/>
      <point x="578.84" y="-122.748"/>
      <point x="680" y="-66" type="curve" smooth="yes"/>
      <point x="752" y="-25.333"/>
      <point x="818" y="58"/>
      <point x="878" y="184" type="curve" smooth="yes"/>
      <point x="888.667" y="206.667"/>
      <point x="870.333" y="209"/>
      <point x="861" y="189" type="curve" smooth="yes"/>
      <point x="845.667" y="153.667"/>
      <point x="828.333" y="121.333"/>
      <point x="809" y="92" type="curve" smooth="yes"/>
      <point x="755" y="10"/>
      <point x="703" y="-31"/>
      <point x="653" y="-31" type="curve" smooth="yes"/>
      <point x="617" y="-31"/>
      <point x="591.333" y="-3"/>
      <point x="576" y="53" type="curve" smooth="yes"/>
      <point x="565.333" y="93.667"/>
      <point x="560" y="171.667"/>
      <point x="560" y="287" type="curve" smooth="yes"/>
      <point x="560" y="320.333"/>
      <point x="560.333" y="356.333"/>
      <point x="561" y="395" type="curve"/>
      <point x="694.036" y="489.568"/>
      <point x="853.686" y="596.727"/>
      <point x="975" y="683.5" type="curve" smooth="yes"/>
      <point x="1050.845" y="737.75"/>
      <point x="1105" y="785.222"/>
      <point x="1105" y="804" type="curve" smooth="yes"/>
      <point x="1105" y="812.667"/>
      <point x="1097.333" y="817"/>
      <point x="1082" y="817" type="curve" smooth="yes"/>
      <point x="1080" y="817"/>
      <point x="1076.333" y="816"/>
      <point x="1071" y="814" type="curve" smooth="yes"/>
      <point x="1061.334" y="809.167"/>
      <point x="1060.599" y="807.14"/>
      <point x="1039.5" y="789" type="curve" smooth="yes"/>
      <point x="1009" y="759" type="line" smooth="yes"/>
      <point x="921.291" y="671.291"/>
      <point x="782.62" y="587.989"/>
      <point x="560" y="433" type="curve"/>
      <point x="560" y="463.634"/>
      <point x="561.853" y="528.819"/>
      <point x="553" y="630" type="curve" smooth="yes"/>
      <point x="550.333" y="668"/>
      <point x="539.667" y="704"/>
      <point x="521" y="738" type="curve" smooth="yes"/>
      <point x="503.667" y="771.333"/>
      <point x="474.333" y="788"/>
      <point x="433" y="788" type="curve" smooth="yes"/>
      <point x="354.333" y="788"/>
      <point x="232.333" y="714.5"/>
      <point x="167" y="660.5" type="curve" smooth="yes"/>
      <point x="134.333" y="633.5"/>
      <point x="115" y="615.333"/>
      <point x="109" y="606" type="curve" smooth="yes"/>
      <point x="97.667" y="588.667"/>
      <point x="99.333" y="578"/>
      <point x="114" y="574" type="curve" smooth="yes"/>
      <point x="119.333" y="572"/>
      <point x="123" y="572"/>
      <point x="125" y="574" type="curve"/>
      <point x="136.333" y="598.667"/>
      <point x="160.333" y="625"/>
      <point x="197" y="653" type="curve" smooth="yes"/>
      <point x="269" y="709"/>
      <point x="336.333" y="737"/>
      <point x="399" y="737" type="curve" smooth="yes"/>
      <point x="450.333" y="737"/>
      <point x="480" y="710.667"/>
      <point x="488" y="658" type="curve" smooth="yes"/>
      <point x="494.667" y="612"/>
      <point x="498" y="561"/>
      <point x="498" y="505" type="curve" smooth="yes"/>
      <point x="498" y="395" type="line"/>
      <point x="233.333" y="206.333"/>
      <point x="33.333" y="18.333"/>
      <point x="-102" y="-169" type="curve"/>
      <point x="-114" y="-189" type="line" smooth="yes"/>
      <point x="-118.667" y="-197"/>
      <point x="-121" y="-203.667"/>
      <point x="-121" y="-209" type="curve" smooth="yes"/>
      <point x="-121" y="-216.333"/>
      <point x="-116.333" y="-220"/>
    </contour>
  </outline>
</glyph>
<glyph name="Y" format="2">
  <advance width="984"/>
  <unicode hex="0059"/>
  <note>
Y
</note>
  <anchor x="973" y="704" name="top"/>
  <outline>
    <contour>
      <point x="290" y="-385" type="curve" smooth="yes"/>
      <point x="417" y="-427"/>
      <point x="662" y="-362"/>
      <point x="801" y="-154" type="curve"/>
      <point x="939" y="-150"/>
      <point x="1063" y="-156"/>
      <point x="1108" y="-87" type="curve" smooth="yes"/>
      <point x="1127" y="-55"/>
      <point x="1128" y="-37"/>
      <point x="1117" y="-17" type="curve" smooth="yes"/>
      <point x="1115" y="-14"/>
      <point x="1114" y="-13"/>
      <point x="1112" y="-14" type="curve" smooth="yes"/>
      <point x="1109" y="-15"/>
      <point x="1109" y="-19"/>
      <point x="1110" y="-28" type="curve"/>
      <point x="1104" y="-61"/>
      <point x="1083" y="-85"/>
      <point x="1048" y="-102" type="curve" smooth="yes"/>
      <point x="991" y="-128"/>
      <point x="869" y="-127"/>
      <point x="816" y="-128" type="curve"/>
      <point x="884" y="-7"/>
      <point x="958" y="225"/>
      <point x="984" y="338" type="curve" smooth="yes"/>
      <point x="1005" y="430"/>
      <point x="1013" y="483"/>
      <point x="985" y="483" type="curve" smooth="yes"/>
      <point x="968" y="483"/>
      <point x="951" y="469"/>
      <point x="945" y="449" type="curve" smooth="yes"/>
      <point x="913" y="343"/>
      <point x="865" y="239"/>
      <point x="802" y="138" type="curve" smooth="yes"/>
      <point x="756" y="64"/>
      <point x="677" y="-28"/>
      <point x="599" y="-28" type="curve" smooth="yes"/>
      <point x="539" y="-28"/>
      <point x="535" y="35"/>
      <point x="544" y="79" type="curve" smooth="yes"/>
      <point x="562" y="160"/>
      <point x="614" y="274"/>
      <point x="700" y="421" type="curve" smooth="yes"/>
      <point x="755" y="513"/>
      <point x="783" y="597"/>
      <point x="783" y="672" type="curve" smooth="yes"/>
      <point x="783" y="732"/>
      <point x="757" y="790"/>
      <point x="686" y="822" type="curve" smooth="yes"/>
      <point x="605" y="853"/>
      <point x="514" y="847"/>
      <point x="424" y="811" type="curve" smooth="yes"/>
      <point x="273" y="753"/>
      <point x="132" y="644"/>
      <point x="57" y="490" type="curve" smooth="yes"/>
      <point x="13" y="400"/>
      <point x="-2" y="288"/>
      <point x="68" y="203" type="curve" smooth="yes"/>
      <point x="178" y="64"/>
      <point x="379" y="152"/>
      <point x="465" y="308" type="curve" smooth="yes"/>
      <point x="489" y="353"/>
      <point x="506" y="403"/>
      <point x="488" y="451" type="curve" smooth="yes"/>
      <point x="476" y="480"/>
      <point x="453" y="495"/>
      <point x="418" y="495" type="curve" smooth="yes"/>
      <point x="389" y="495"/>
      <point x="348" y="486"/>
      <point x="349" y="475" type="curve" smooth="yes"/>
      <point x="350" y="471"/>
      <point x="388" y="476"/>
      <point x="396" y="476" type="curve" smooth="yes"/>
      <point x="426" y="476"/>
      <point x="443" y="464"/>
      <point x="452" y="446" type="curve" smooth="yes"/>
      <point x="469" y="407"/>
      <point x="449" y="340"/>
      <point x="414" y="283" type="curve" smooth="yes"/>
      <point x="329" y="147"/>
      <point x="179" y="122"/>
      <point x="109" y="214" type="curve" smooth="yes"/>
      <point x="61" y="278"/>
      <point x="76" y="379"/>
      <point x="112" y="469" type="curve" smooth="yes"/>
      <point x="183" y="637"/>
      <point x="409" y="819"/>
      <point x="591" y="819" type="curve" smooth="yes"/>
      <point x="666" y="819"/>
      <point x="726" y="787"/>
      <point x="726" y="706" type="curve" smooth="yes"/>
      <point x="726" y="665"/>
      <point x="715" y="617"/>
      <point x="694" y="560" type="curve" smooth="yes"/>
      <point x="675" y="509"/>
      <point x="651" y="458"/>
      <point x="620" y="408" type="curve" smooth="yes"/>
      <point x="521" y="247"/>
      <point x="472" y="131"/>
      <point x="472" y="58" type="curve" smooth="yes"/>
      <point x="472" y="-11"/>
      <point x="515" y="-54"/>
      <point x="588" y="-54" type="curve" smooth="yes"/>
      <point x="723" y="-54"/>
      <point x="838" y="114"/>
      <point x="905" y="258" type="curve"/>
      <point x="879" y="160"/>
      <point x="833" y="18"/>
      <point x="768" y="-129" type="curve"/>
      <point x="583" y="-129"/>
      <point x="439" y="-150"/>
      <point x="336" y="-193" type="curve" smooth="yes"/>
      <point x="255" y="-226"/>
      <point x="215" y="-265"/>
      <point x="215" y="-309" type="curve" smooth="yes"/>
      <point x="215" y="-343"/>
      <point x="240" y="-368"/>
    </contour>
    <contour>
      <point x="269" y="-319" type="curve" smooth="yes"/>
      <point x="269" y="-295"/>
      <point x="288" y="-263"/>
      <point x="352" y="-235" type="curve" smooth="yes"/>
      <point x="450" y="-192"/>
      <point x="579" y="-154"/>
      <point x="754" y="-154" type="curve"/>
      <point x="698" y="-245"/>
      <point x="605" y="-311"/>
      <point x="514" y="-344" type="curve" smooth="yes"/>
      <point x="426" y="-376"/>
      <point x="269" y="-392"/>
    </contour>
  </outline>
</glyph>
<glyph name="Z" format="2">
  <advance width="1017"/>
  <unicode hex="005A"/>
  <note>
Z
</note>
  <outline>
    <contour>
      <point x="762" y="-158" type="curve" smooth="yes"/>
      <point x="806" y="-158"/>
      <point x="845" y="-153"/>
      <point x="880" y="-140" type="curve" smooth="yes"/>
      <point x="958" y="-111"/>
      <point x="989" y="-50"/>
      <point x="997.5" y="-17" type="curve" smooth="yes"/>
      <point x="1000" y="-7"/>
      <point x="1004" y="28"/>
      <point x="990" y="28" type="curve" smooth="yes"/>
      <point x="968.532" y="28"/>
      <point x="974.456" y="-33.803"/>
      <point x="936.5" y="-63" type="curve" smooth="yes"/>
      <point x="914.833" y="-79.667"/>
      <point x="889.833" y="-90.167"/>
      <point x="861.5" y="-94.5" type="curve" smooth="yes"/>
      <point x="808" y="-103"/>
      <point x="751" y="-104"/>
      <point x="698" y="-94" type="curve" smooth="yes"/>
      <point x="627" y="-80"/>
      <point x="499.667" y="-33.333"/>
      <point x="317" y="46" type="curve"/>
      <point x="404.5" y="118.5" type="line" smooth="yes"/>
      <point x="532" y="224"/>
      <point x="605" y="311"/>
      <point x="708" y="448" type="curve" smooth="yes"/>
      <point x="792.667" y="560"/>
      <point x="851.333" y="631"/>
      <point x="884" y="661" type="curve"/>
      <point x="925.333" y="651"/>
      <point x="959.667" y="646"/>
      <point x="987" y="646" type="curve" smooth="yes"/>
      <point x="1054" y="646"/>
      <point x="1076" y="689"/>
      <point x="1076" y="716" type="curve" smooth="yes"/>
      <point x="1076" y="733.333"/>
      <point x="1066.333" y="746"/>
      <point x="1047" y="754" type="curve" smooth="yes"/>
      <point x="994" y="779"/>
      <point x="913" y="721"/>
      <point x="867" y="685" type="curve"/>
      <point x="719.5" y="731" type="line"/>
      <point x="681.5" y="741.667"/>
      <point x="599" y="766"/>
      <point x="523" y="766" type="curve" smooth="yes"/>
      <point x="445" y="766"/>
      <point x="348" y="744"/>
      <point x="306" y="693" type="curve" smooth="yes"/>
      <point x="282.667" y="665"/>
      <point x="271" y="635.333"/>
      <point x="271" y="604" type="curve" smooth="yes"/>
      <point x="271" y="576.667"/>
      <point x="281" y="551.333"/>
      <point x="301" y="528" type="curve" smooth="yes"/>
      <point x="333" y="492"/>
      <point x="393" y="491"/>
      <point x="350" y="521" type="curve" smooth="yes"/>
      <point x="320" y="541.667"/>
      <point x="305" y="563.833"/>
      <point x="305" y="587.5" type="curve" smooth="yes"/>
      <point x="305" y="611.167"/>
      <point x="319.333" y="634.667"/>
      <point x="348" y="658" type="curve" smooth="yes"/>
      <point x="410" y="706"/>
      <point x="494" y="711"/>
      <point x="568" y="711" type="curve" smooth="yes"/>
      <point x="655.333" y="711"/>
      <point x="748.667" y="697.333"/>
      <point x="848" y="670" type="curve"/>
      <point x="773.333" y="609.333"/>
      <point x="702.333" y="539.333"/>
      <point x="635" y="460" type="curve" smooth="yes"/>
      <point x="583" y="396.667"/>
      <point x="470.333" y="263.667"/>
      <point x="297" y="61" type="curve"/>
      <point x="242" y="96"/>
      <point x="170" y="140"/>
      <point x="105" y="140" type="curve" smooth="yes"/>
      <point x="37" y="140"/>
      <point x="-3" y="86"/>
      <point x="16" y="29" type="curve" smooth="yes"/>
      <point x="26.667" y="-5.667"/>
      <point x="52" y="-27.667"/>
      <point x="92" y="-37" type="curve" smooth="yes"/>
      <point x="157" y="-52"/>
      <point x="236" y="-8"/>
      <point x="292" y="32" type="curve"/>
      <point x="377" y="-16" type="line" smooth="yes"/>
      <point x="490.333" y="-80"/>
      <point x="674" y="-158"/>
    </contour>
    <contour>
      <point x="144" y="-8" type="curve" smooth="yes"/>
      <point x="86.357" y="-8"/>
      <point x="56" y="21.29"/>
      <point x="56" y="47" type="curve" smooth="yes"/>
      <point x="56" y="83"/>
      <point x="84" y="105"/>
      <point x="127.5" y="105" type="curve" smooth="yes"/>
      <point x="181" y="105"/>
      <point x="235" y="77"/>
      <point x="278" y="42" type="curve"/>
      <point x="248.667" y="16.667"/>
      <point x="192" y="-8"/>
    </contour>
    <contour>
      <point x="984" y="660" type="curve" smooth="yes"/>
      <point x="964" y="660"/>
      <point x="935.667" y="665.333"/>
      <point x="899" y="676" type="curve"/>
      <point x="950.333" y="719.333"/>
      <point x="989.667" y="741"/>
      <point x="1017" y="741" type="curve" smooth="yes"/>
      <point x="1039.667" y="741"/>
      <point x="1047" y="720.667"/>
      <point x="1047" y="710" type="curve" smooth="yes"/>
      <point x="1047" y="671.333"/>
      <point x="1024" y="660"/>
    </contour>
  </outline>
</glyph>
<glyph name="bracketleft" format="2">
  <advance width="585"/>
  <unicode hex="005B"/>
  <note>
bracketleft
</note>
  <outline>
    <contour>
      <point x="158" y="-17" type="curve"/>
      <point x="278" y="20.5"/>
      <point x="264" y="28"/>
      <point x="236" y="28" type="curve" smooth="yes"/>
      <point x="164" y="24" type="line" smooth="yes"/>
      <point x="119.333" y="24"/>
      <point x="97" y="38.667"/>
      <point x="97" y="68" type="curve" smooth="yes"/>
      <point x="97" y="142.667"/>
      <point x="196.5" y="352"/>
      <point x="306.5" y="516" type="curve" smooth="yes"/>
      <point x="361.5" y="598"/>
      <point x="405" y="647"/>
      <point x="437" y="663" type="curve" smooth="yes"/>
      <point x="443" y="666.333"/>
      <point x="458.667" y="668"/>
      <point x="484" y="668" type="curve" smooth="yes"/>
      <point x="558" y="664" type="line"/>
      <point x="568" y="664" type="line" smooth="yes"/>
      <point x="578" y="664"/>
      <point x="583" y="670"/>
      <point x="583" y="682" type="curve" smooth="yes"/>
      <point x="583" y="706"/>
      <point x="552.667" y="718"/>
      <point x="492" y="718" type="curve" smooth="yes"/>
      <point x="472" y="718" type="line" smooth="yes"/>
      <point x="434" y="718"/>
      <point x="402.667" y="706.667"/>
      <point x="378" y="684" type="curve" smooth="yes"/>
      <point x="368" y="674.667"/>
      <point x="355" y="660.667"/>
      <point x="339" y="642" type="curve" smooth="yes"/>
      <point x="209.667" y="491.333"/>
      <point x="38" y="181.333"/>
      <point x="38" y="28" type="curve" smooth="yes"/>
      <point x="38" y="-2"/>
      <point x="78" y="-17"/>
    </contour>
  </outline>
</glyph>
<glyph name="backslash" format="2">
  <advance width="867"/>
  <unicode hex="005C"/>
  <note>
backslash
</note>
  <outline>
    <contour>
      <point x="852" y="-40" type="curve"/>
      <point x="859" y="-34" type="line"/>
      <point x="858.333" y="-30.667"/>
      <point x="855.333" y="-25.667"/>
      <point x="850" y="-19" type="curve"/>
      <point x="773.333" y="60.333"/>
      <point x="701.667" y="145.333"/>
      <point x="635" y="236" type="curve" smooth="yes"/>
      <point x="531" y="379.5" type="line" smooth="yes"/>
      <point x="486.333" y="441.167"/>
      <point x="453.667" y="485.667"/>
      <point x="433" y="513" type="curve" smooth="yes"/>
      <point x="295" y="697.667"/>
      <point x="181.333" y="790"/>
      <point x="92" y="790" type="curve" smooth="yes"/>
      <point x="52" y="790"/>
      <point x="28" y="778"/>
      <point x="20" y="754" type="curve"/>
      <point x="27" y="747" type="line"/>
      <point x="29.667" y="747.667"/>
      <point x="36" y="750.167"/>
      <point x="46" y="754.5" type="curve" smooth="yes"/>
      <point x="56" y="758.833"/>
      <point x="63.667" y="761"/>
      <point x="69" y="761" type="curve" smooth="yes"/>
      <point x="135.667" y="761"/>
      <point x="252.333" y="644.667"/>
      <point x="371" y="494" type="curve" smooth="yes"/>
      <point x="430.333" y="418.667"/>
      <point x="489.333" y="342.667"/>
      <point x="548" y="266" type="curve" smooth="yes"/>
      <point x="691.333" y="80"/>
      <point x="792.667" y="-22"/>
    </contour>
  </outline>
</glyph>
<glyph name="bracketright" format="2">
  <advance width="556"/>
  <unicode hex="005D"/>
  <note>
bracketright
</note>
  <outline>
    <contour>
      <point x="158.5" y="-15.5" type="curve" smooth="yes"/>
      <point x="192.5" y="-13.5"/>
      <point x="247" y="1"/>
      <point x="275" y="29" type="curve" smooth="yes"/>
      <point x="412.333" y="167.667"/>
      <point x="548" y="479.333"/>
      <point x="548" y="670" type="curve" smooth="yes"/>
      <point x="548" y="706.994"/>
      <point x="527.817" y="716"/>
      <point x="485" y="716" type="curve" smooth="yes"/>
      <point x="396.333" y="716"/>
      <point x="347.667" y="699.667"/>
      <point x="339" y="667" type="curve"/>
      <point x="342" y="665" type="line"/>
      <point x="453" y="669" type="line" smooth="yes"/>
      <point x="467.667" y="669"/>
      <point x="478.667" y="667.667"/>
      <point x="486" y="665" type="curve"/>
      <point x="488" y="655"/>
      <point x="489" y="645"/>
      <point x="489" y="635" type="curve" smooth="yes"/>
      <point x="489" y="495"/>
      <point x="353.667" y="191.667"/>
      <point x="251" y="77" type="curve" smooth="yes"/>
      <point x="216.333" y="37"/>
      <point x="157" y="26"/>
      <point x="117" y="26" type="curve" smooth="yes"/>
      <point x="99" y="27" type="line" smooth="yes"/>
      <point x="49.667" y="27"/>
      <point x="22.333" y="14"/>
      <point x="17" y="-12" type="curve"/>
      <point x="29.1" y="-17.5"/>
      <point x="75.487" y="-18.111"/>
    </contour>
  </outline>
</glyph>
<glyph name="asciicircum" format="2">
  <advance width="370"/>
  <unicode hex="005E"/>
  <note>
asciicircum
</note>
  <outline>
    <contour>
      <point x="411" y="449" type="curve" smooth="yes"/>
      <point x="425" y="449"/>
      <point x="431" y="452"/>
      <point x="431" y="460" type="curve"/>
      <point x="426" y="469" type="line"/>
      <point x="371" y="515"/>
      <point x="326" y="560"/>
      <point x="294" y="606" type="curve"/>
      <point x="287" y="610" type="line"/>
      <point x="259" y="606"/>
      <point x="93" y="483"/>
      <point x="90" y="462" type="curve"/>
      <point x="97" y="454" type="line"/>
      <point x="111" y="456"/>
      <point x="165" y="491"/>
      <point x="260" y="560" type="curve"/>
      <point x="287" y="522"/>
      <point x="384" y="449"/>
    </contour>
  </outline>
</glyph>
<glyph name="underscore" format="2">
  <advance width="1234"/>
  <unicode hex="005F"/>
  <note>
underscore
</note>
  <outline>
    <contour>
      <point x="152" y="-3" type="curve" smooth="yes"/>
      <point x="429" y="5" type="line" smooth="yes"/>
      <point x="744" y="12"/>
      <point x="1015" y="16"/>
      <point x="1239" y="16" type="curve"/>
      <point x="1249" y="25" type="line"/>
      <point x="1247" y="46"/>
      <point x="1230" y="65"/>
      <point x="1209" y="65" type="curve" smooth="yes"/>
      <point x="152" y="65" type="line" smooth="yes"/>
      <point x="136" y="65"/>
      <point x="128" y="57"/>
      <point x="128" y="39" type="curve" smooth="yes"/>
      <point x="128" y="21"/>
      <point x="137" y="-3"/>
    </contour>
  </outline>
</glyph>
<glyph name="grave" format="2">
  <advance width="211"/>
  <unicode hex="0060"/>
  <note>
grave
</note>
  <outline>
    <contour>
      <point x="183" y="399" type="curve" smooth="yes"/>
      <point x="189.667" y="399"/>
      <point x="193" y="402"/>
      <point x="193" y="408" type="curve" smooth="yes"/>
      <point x="193" y="416"/>
      <point x="45.333" y="534"/>
      <point x="28" y="534" type="curve" smooth="yes"/>
      <point x="15.333" y="534"/>
      <point x="9" y="526"/>
      <point x="9" y="510" type="curve" smooth="yes"/>
      <point x="9" y="494"/>
      <point x="21.333" y="480"/>
      <point x="46" y="468" type="curve" smooth="yes"/>
      <point x="114.5" y="432" type="line" smooth="yes"/>
      <point x="156.167" y="410"/>
      <point x="179" y="399"/>
    </contour>
  </outline>
</glyph>
<glyph name="a" format="2">
  <advance width="350"/>
  <unicode hex="0061"/>
  <note>
a
</note>
  <outline>
    <contour>
      <point x="82" y="-2" type="curve" smooth="yes"/>
      <point x="120.667" y="-2"/>
      <point x="166.667" y="41"/>
      <point x="220" y="127" type="curve"/>
      <point x="213.333" y="103"/>
      <point x="210" y="82.667"/>
      <point x="210" y="66" type="curve" smooth="yes"/>
      <point x="210" y="49.333"/>
      <point x="213" y="36"/>
      <point x="219" y="26" type="curve" smooth="yes"/>
      <point x="231" y="7.333"/>
      <point x="246.667" y="-2"/>
      <point x="266" y="-2" type="curve" smooth="yes"/>
      <point x="308" y="-2"/>
      <point x="359.667" y="60"/>
      <point x="421" y="184" type="curve" smooth="yes"/>
      <point x="423" y="188.667"/>
      <point x="424" y="192.667"/>
      <point x="424" y="196" type="curve" smooth="yes"/>
      <point x="424" y="202"/>
      <point x="421.333" y="204"/>
      <point x="416" y="202" type="curve" smooth="yes"/>
      <point x="412.667" y="201.333"/>
      <point x="409.667" y="198"/>
      <point x="407" y="192" type="curve" smooth="yes"/>
      <point x="380.333" y="137.333"/>
      <point x="353.333" y="93"/>
      <point x="326" y="59" type="curve" smooth="yes"/>
      <point x="307.333" y="35.667"/>
      <point x="291.667" y="24"/>
      <point x="279" y="24" type="curve" smooth="yes"/>
      <point x="258.203" y="24"/>
      <point x="262.105" y="53.815"/>
      <point x="270.5" y="94.5" type="curve" smooth="yes"/>
      <point x="279.167" y="136.5"/>
      <point x="337" y="247"/>
      <point x="361" y="271" type="curve"/>
      <point x="355.667" y="269.667"/>
      <point x="347.5" y="270"/>
      <point x="336.5" y="272" type="curve" smooth="yes"/>
      <point x="325.5" y="274"/>
      <point x="318.667" y="275"/>
      <point x="316" y="275" type="curve" smooth="yes"/>
      <point x="289.333" y="275"/>
      <point x="276.333" y="260.333"/>
      <point x="251" y="211" type="curve" smooth="yes"/>
      <point x="186.333" y="88.333"/>
      <point x="134" y="27"/>
      <point x="94" y="27" type="curve" smooth="yes"/>
      <point x="77.333" y="27"/>
      <point x="69" y="40"/>
      <point x="69" y="66" type="curve" smooth="yes"/>
      <point x="69" y="92"/>
      <point x="82" y="126.667"/>
      <point x="108" y="170" type="curve" smooth="yes"/>
      <point x="128.667" y="206"/>
      <point x="151" y="237.333"/>
      <point x="175" y="264" type="curve" smooth="yes"/>
      <point x="217" y="309.333"/>
      <point x="252.333" y="332"/>
      <point x="281" y="332" type="curve" smooth="yes"/>
      <point x="305.667" y="332"/>
      <point x="321.667" y="320"/>
      <point x="329" y="296" type="curve"/>
      <point x="346.333" y="293.333"/>
      <point x="353.333" y="310.333"/>
      <point x="340" y="325" type="curve" smooth="yes"/>
      <point x="318.667" y="346.333"/>
      <point x="292.667" y="357"/>
      <point x="262" y="357" type="curve" smooth="yes"/>
      <point x="250.667" y="357"/>
      <point x="238.667" y="355.333"/>
      <point x="226" y="352" type="curve" smooth="yes"/>
      <point x="179.333" y="340.667"/>
      <point x="140" y="316.333"/>
      <point x="108" y="279" type="curve" smooth="yes"/>
      <point x="51.333" y="211.667"/>
      <point x="23" y="145.333"/>
      <point x="23" y="80" type="curve" smooth="yes"/>
      <point x="23" y="46"/>
      <point x="33" y="22"/>
      <point x="53" y="8" type="curve" smooth="yes"/>
      <point x="61.667" y="1.333"/>
      <point x="71.333" y="-2"/>
    </contour>
  </outline>
</glyph>
<glyph name="b" format="2">
  <advance width="345"/>
  <unicode hex="0062"/>
  <note>
b
</note>
  <outline>
    <contour>
      <point x="126" y="-2" type="curve" smooth="yes"/>
      <point x="192.667" y="-2"/>
      <point x="247" y="26"/>
      <point x="289" y="82" type="curve" smooth="yes"/>
      <point x="331" y="137.333"/>
      <point x="352" y="193.667"/>
      <point x="352" y="251" type="curve" smooth="yes"/>
      <point x="352" y="267"/>
      <point x="347.667" y="283.333"/>
      <point x="339" y="300" type="curve" smooth="yes"/>
      <point x="326.333" y="327.333"/>
      <point x="302.667" y="343.667"/>
      <point x="268" y="349" type="curve" smooth="yes"/>
      <point x="229.306" y="357.293"/>
      <point x="219" y="329"/>
      <point x="254" y="329" type="curve" smooth="yes"/>
      <point x="262" y="329" type="line" smooth="yes"/>
      <point x="293.333" y="329"/>
      <point x="309" y="310"/>
      <point x="309" y="272" type="curve" smooth="yes"/>
      <point x="309" y="252"/>
      <point x="303.333" y="229.667"/>
      <point x="292" y="205" type="curve" smooth="yes"/>
      <point x="252" y="110.333"/>
      <point x="180" y="24"/>
      <point x="131" y="24" type="curve" smooth="yes"/>
      <point x="107" y="24"/>
      <point x="97" y="48.667"/>
      <point x="97" y="84" type="curve" smooth="yes"/>
      <point x="97" y="170"/>
      <point x="155.667" y="300"/>
      <point x="273" y="474" type="curve" smooth="yes"/>
      <point x="320.333" y="544"/>
      <point x="355" y="590.667"/>
      <point x="377" y="614" type="curve"/>
      <point x="371.667" y="612.667"/>
      <point x="364" y="613"/>
      <point x="352.5" y="615" type="curve" smooth="yes"/>
      <point x="335" y="618" type="line"/>
      <point x="329" y="618" type="line" smooth="yes"/>
      <point x="307.667" y="618"/>
      <point x="285.667" y="601.667"/>
      <point x="263" y="569" type="curve" smooth="yes"/>
      <point x="235" y="527"/>
      <point x="186.167" y="438"/>
      <point x="116.5" y="302" type="curve" smooth="yes"/>
      <point x="46.833" y="166"/>
      <point x="1" y="82"/>
      <point x="-23" y="52" type="curve" smooth="yes"/>
      <point x="-25" y="50"/>
      <point x="-25" y="47"/>
      <point x="-25" y="45" type="curve" smooth="yes"/>
      <point x="-25" y="35"/>
      <point x="-21.667" y="33"/>
      <point x="-15" y="39" type="curve" smooth="yes"/>
      <point x="1" y="54.333"/>
      <point x="36.333" y="113.667"/>
      <point x="91" y="217" type="curve"/>
      <point x="59" y="150.333"/>
      <point x="43" y="103"/>
      <point x="43" y="75" type="curve" smooth="yes"/>
      <point x="43" y="28.333"/>
      <point x="76.667" y="-2"/>
    </contour>
  </outline>
</glyph>
<glyph name="c" format="2">
  <advance width="260"/>
  <unicode hex="0063"/>
  <note>
c
</note>
  <outline>
    <contour>
      <point x="139" y="-4" type="curve" smooth="yes"/>
      <point x="191" y="-4"/>
      <point x="232" y="14.667"/>
      <point x="262" y="52" type="curve" smooth="yes"/>
      <point x="300.325" y="99.523"/>
      <point x="341" y="171.924"/>
      <point x="341" y="194.5" type="curve" smooth="yes"/>
      <point x="341" y="197.5"/>
      <point x="339.333" y="199.833"/>
      <point x="336" y="201.5" type="curve" smooth="yes"/>
      <point x="332.667" y="203.167"/>
      <point x="328.667" y="199.333"/>
      <point x="324" y="190" type="curve" smooth="yes"/>
      <point x="296" y="134"/>
      <point x="286.833" y="116.5"/>
      <point x="255.5" y="74.5" type="curve" smooth="yes"/>
      <point x="224.167" y="32.5"/>
      <point x="190.167" y="14"/>
      <point x="149.5" y="14" type="curve" smooth="yes"/>
      <point x="108.833" y="14"/>
      <point x="90" y="46.167"/>
      <point x="90" y="93.5" type="curve" smooth="yes"/>
      <point x="90" y="140.833"/>
      <point x="119.667" y="208"/>
      <point x="145" y="244" type="curve" smooth="yes"/>
      <point x="185" y="301.333"/>
      <point x="220.667" y="330"/>
      <point x="252" y="330" type="curve" smooth="yes"/>
      <point x="268" y="330"/>
      <point x="276" y="320.333"/>
      <point x="276" y="301" type="curve" smooth="yes"/>
      <point x="276" y="281.667"/>
      <point x="264.333" y="258"/>
      <point x="241" y="230" type="curve"/>
      <point x="245.667" y="225.333"/>
      <point x="251.167" y="223"/>
      <point x="257.5" y="223" type="curve" smooth="yes"/>
      <point x="263.833" y="223"/>
      <point x="271.667" y="227.333"/>
      <point x="281" y="236" type="curve" smooth="yes"/>
      <point x="299.667" y="252"/>
      <point x="309" y="271.333"/>
      <point x="309" y="294" type="curve" smooth="yes"/>
      <point x="309" y="324.667"/>
      <point x="288.333" y="352"/>
      <point x="239" y="352" type="curve" smooth="yes"/>
      <point x="188.333" y="352"/>
      <point x="143.667" y="325.667"/>
      <point x="105" y="273" type="curve" smooth="yes"/>
      <point x="67.667" y="222.333"/>
      <point x="34" y="145.667"/>
      <point x="34" y="87" type="curve" smooth="yes"/>
      <point x="34" y="39"/>
      <point x="64.333" y="-4"/>
    </contour>
  </outline>
</glyph>
<glyph name="d" format="2">
  <advance width="367"/>
  <unicode hex="0064"/>
  <note>
d
</note>
  <outline>
    <contour>
      <point x="276" y="0" type="curve" smooth="yes"/>
      <point x="330.667" y="0"/>
      <point x="384.667" y="62"/>
      <point x="438" y="186" type="curve" smooth="yes"/>
      <point x="447.104" y="208.76"/>
      <point x="433.821" y="212.642"/>
      <point x="419" y="183" type="curve" smooth="yes"/>
      <point x="367" y="78.333"/>
      <point x="325.333" y="26"/>
      <point x="294" y="26" type="curve" smooth="yes"/>
      <point x="276.667" y="26"/>
      <point x="268" y="36.667"/>
      <point x="268" y="58" type="curve" smooth="yes"/>
      <point x="268" y="70.667"/>
      <point x="271.333" y="86.667"/>
      <point x="278" y="106" type="curve" smooth="yes"/>
      <point x="295.333" y="158"/>
      <point x="346" y="262"/>
      <point x="430" y="418" type="curve" smooth="yes"/>
      <point x="496" y="540"/>
      <point x="536.667" y="608"/>
      <point x="552" y="622" type="curve"/>
      <point x="546" y="621.333"/>
      <point x="537.5" y="621.833"/>
      <point x="526.5" y="623.5" type="curve" smooth="yes"/>
      <point x="507.5" y="626" type="line"/>
      <point x="498.807" y="626"/>
      <point x="485.994" y="628.811"/>
      <point x="468.5" y="616.5" type="curve" smooth="yes"/>
      <point x="459.5" y="610.167"/>
      <point x="450.333" y="596"/>
      <point x="441" y="574" type="curve" smooth="yes"/>
      <point x="409" y="501.333"/>
      <point x="370.333" y="422.333"/>
      <point x="325" y="337" type="curve"/>
      <point x="301.667" y="349"/>
      <point x="280.5" y="355"/>
      <point x="261.5" y="355" type="curve" smooth="yes"/>
      <point x="242.5" y="355"/>
      <point x="226" y="352.667"/>
      <point x="212" y="348" type="curve" smooth="yes"/>
      <point x="134.667" y="325.333"/>
      <point x="79.5" y="250.833"/>
      <point x="49.5" y="179.5" type="curve" smooth="yes"/>
      <point x="34.5" y="143.833"/>
      <point x="27" y="111.333"/>
      <point x="27" y="82" type="curve" smooth="yes"/>
      <point x="27" y="38.667"/>
      <point x="43.333" y="12.667"/>
      <point x="76" y="4" type="curve" smooth="yes"/>
      <point x="83.333" y="2"/>
      <point x="90.833" y="1"/>
      <point x="98.5" y="1" type="curve" smooth="yes"/>
      <point x="106.167" y="1"/>
      <point x="114" y="2.667"/>
      <point x="122" y="6" type="curve" smooth="yes"/>
      <point x="150" y="14.667"/>
      <point x="183.333" y="51"/>
      <point x="222" y="115" type="curve"/>
      <point x="214.344" y="84.376"/>
      <point x="212.462" y="54.807"/>
      <point x="233" y="24" type="curve" smooth="yes"/>
      <point x="243.667" y="8"/>
      <point x="258" y="0"/>
    </contour>
    <contour>
      <point x="102" y="30" type="curve" smooth="yes"/>
      <point x="83.333" y="30"/>
      <point x="75" y="50.667"/>
      <point x="75" y="72" type="curve" smooth="yes"/>
      <point x="75" y="95.333"/>
      <point x="84.667" y="125"/>
      <point x="104" y="161" type="curve" smooth="yes"/>
      <point x="133.333" y="215.667"/>
      <point x="170.333" y="261.667"/>
      <point x="215" y="299" type="curve" smooth="yes"/>
      <point x="243" y="322.333"/>
      <point x="264.833" y="334"/>
      <point x="280.5" y="334" type="curve" smooth="yes"/>
      <point x="296.167" y="334"/>
      <point x="308.333" y="329.667"/>
      <point x="317" y="321" type="curve"/>
      <point x="263" y="220.333"/>
      <point x="219.333" y="146.667"/>
      <point x="186" y="100" type="curve" smooth="yes"/>
      <point x="152.667" y="53.333"/>
      <point x="124.667" y="30"/>
    </contour>
  </outline>
</glyph>
<glyph name="e" format="2">
  <advance width="246"/>
  <unicode hex="0065"/>
  <note>
e
</note>
  <outline>
    <contour>
      <point x="127" y="-4" type="curve" smooth="yes"/>
      <point x="177" y="-4"/>
      <point x="219" y="19.333"/>
      <point x="253" y="66" type="curve" smooth="yes"/>
      <point x="295.099" y="120.911"/>
      <point x="339.027" y="196.493"/>
      <point x="317" y="202" type="curve" smooth="yes"/>
      <point x="310.333" y="203.333"/>
      <point x="304.667" y="198.667"/>
      <point x="300" y="188" type="curve" smooth="yes"/>
      <point x="250.667" y="74"/>
      <point x="195.667" y="17"/>
      <point x="135" y="17" type="curve" smooth="yes"/>
      <point x="104.333" y="17"/>
      <point x="87" y="40.667"/>
      <point x="87" y="78" type="curve" smooth="yes"/>
      <point x="87" y="106"/>
      <point x="91.667" y="131.333"/>
      <point x="101" y="154" type="curve"/>
      <point x="129" y="154"/>
      <point x="194.667" y="175.333"/>
      <point x="224" y="198" type="curve" smooth="yes"/>
      <point x="272" y="234.667"/>
      <point x="296" y="273"/>
      <point x="296" y="313" type="curve" smooth="yes"/>
      <point x="296" y="324.333"/>
      <point x="290.333" y="334.667"/>
      <point x="279" y="344" type="curve" smooth="yes"/>
      <point x="267" y="352"/>
      <point x="254" y="356"/>
      <point x="240" y="356" type="curve" smooth="yes"/>
      <point x="226" y="356"/>
      <point x="211.333" y="352.667"/>
      <point x="196" y="346" type="curve" smooth="yes"/>
      <point x="97.252" y="304.855"/>
      <point x="31" y="189.188"/>
      <point x="31" y="93" type="curve" smooth="yes"/>
      <point x="31" y="33"/>
      <point x="73.667" y="-4"/>
    </contour>
    <contour>
      <point x="108" y="171" type="curve"/>
      <point x="125.333" y="205.667"/>
      <point x="145.333" y="237"/>
      <point x="168" y="265" type="curve" smooth="yes"/>
      <point x="206" y="311"/>
      <point x="234.333" y="334"/>
      <point x="253" y="334" type="curve" smooth="yes"/>
      <point x="263.667" y="334"/>
      <point x="269" y="327.333"/>
      <point x="269" y="314" type="curve" smooth="yes"/>
      <point x="269" y="279.333"/>
      <point x="250.667" y="246.333"/>
      <point x="214" y="215" type="curve" smooth="yes"/>
      <point x="182" y="188.333"/>
      <point x="130.667" y="171"/>
    </contour>
  </outline>
</glyph>
<glyph name="f" format="2">
  <advance width="198"/>
  <unicode hex="0066"/>
  <note>
f
</note>
  <outline>
    <contour>
      <point x="-61" y="-348" type="curve" smooth="yes"/>
      <point x="4.333" y="-348"/>
      <point x="67" y="-258"/>
      <point x="91" y="-162" type="curve" smooth="yes"/>
      <point x="112.577" y="-75.694"/>
      <point x="109.852" y="-30.627"/>
      <point x="108" y="-1" type="curve"/>
      <point x="161.333" y="-1"/>
      <point x="215.667" y="62"/>
      <point x="271" y="188" type="curve" smooth="yes"/>
      <point x="276.703" y="199.405"/>
      <point x="268.19" y="205.794"/>
      <point x="261" y="201" type="curve" smooth="yes"/>
      <point x="240.702" y="187.468"/>
      <point x="186.653" y="18"/>
      <point x="109" y="18" type="curve" smooth="yes"/>
      <point x="106" y="18" type="line"/>
      <point x="103" y="31" type="line" smooth="yes"/>
      <point x="97" y="62.333"/>
      <point x="86.333" y="87.333"/>
      <point x="71" y="106" type="curve"/>
      <point x="172.333" y="334"/>
      <point x="301.333" y="562.333"/>
      <point x="364" y="621" type="curve"/>
      <point x="358.667" y="620.333"/>
      <point x="350.667" y="621"/>
      <point x="340" y="623" type="curve" smooth="yes"/>
      <point x="329.333" y="625"/>
      <point x="322.667" y="626"/>
      <point x="320" y="626" type="curve" smooth="yes"/>
      <point x="281.333" y="626"/>
      <point x="259" y="604"/>
      <point x="235" y="556" type="curve" smooth="yes"/>
      <point x="174.333" y="442.667"/>
      <point x="106" y="300.333"/>
      <point x="30" y="129" type="curve"/>
      <point x="28" y="129.667"/>
      <point x="23.833" y="130"/>
      <point x="17.5" y="130" type="curve" smooth="yes"/>
      <point x="11.167" y="130"/>
      <point x="3.333" y="126"/>
      <point x="-6" y="118" type="curve" smooth="yes"/>
      <point x="-18.667" y="108.667"/>
      <point x="-25" y="90"/>
      <point x="-25" y="62" type="curve" smooth="yes"/>
      <point x="-25" y="53.333"/>
      <point x="-21" y="42.333"/>
      <point x="-13" y="29" type="curve"/>
      <point x="-81.667" y="-133"/>
      <point x="-116" y="-240.333"/>
      <point x="-116" y="-293" type="curve" smooth="yes"/>
      <point x="-116" y="-329.667"/>
      <point x="-97.667" y="-348"/>
    </contour>
    <contour>
      <point x="-46" y="-322" type="curve" smooth="yes"/>
      <point x="-56.667" y="-322"/>
      <point x="-62" y="-312.333"/>
      <point x="-62" y="-293" type="curve" smooth="yes"/>
      <point x="-62" y="-243.667"/>
      <point x="-31.667" y="-142.333"/>
      <point x="29" y="11" type="curve"/>
      <point x="42.333" y="0.333"/>
      <point x="58.667" y="-5"/>
      <point x="78" y="-5" type="curve" smooth="yes"/>
      <point x="87" y="-5" type="line"/>
      <point x="87" y="-15" type="line" smooth="yes"/>
      <point x="87" y="-99"/>
      <point x="51.167" y="-218.167"/>
      <point x="6.5" y="-277.5" type="curve" smooth="yes"/>
      <point x="-15.833" y="-307.167"/>
      <point x="-33.333" y="-322"/>
    </contour>
    <contour>
      <point x="79" y="14" type="line" smooth="yes"/>
      <point x="59" y="14"/>
      <point x="45.667" y="20.333"/>
      <point x="39" y="33" type="curve"/>
      <point x="61" y="83" type="line"/>
      <point x="75" y="65.667"/>
      <point x="83" y="42.667"/>
      <point x="85" y="14" type="curve"/>
    </contour>
  </outline>
</glyph>
<glyph name="g" format="2">
  <advance width="392"/>
  <unicode hex="0067"/>
  <note>
g
</note>
  <outline>
    <contour>
      <point x="-12" y="-316" type="curve" smooth="yes"/>
      <point x="78.667" y="-316"/>
      <point x="178.833" y="-236.333"/>
      <point x="239.5" y="-147" type="curve" smooth="yes"/>
      <point x="269.833" y="-102.333"/>
      <point x="293" y="-57.333"/>
      <point x="309" y="-12" type="curve"/>
      <point x="377" y="20"/>
      <point x="404.333" y="62.667"/>
      <point x="463" y="184" type="curve" smooth="yes"/>
      <point x="465" y="188.667"/>
      <point x="466" y="192.667"/>
      <point x="466" y="196" type="curve" smooth="yes"/>
      <point x="466" y="213.932"/>
      <point x="452.451" y="203.693"/>
      <point x="437" y="168.5" type="curve" smooth="yes"/>
      <point x="425" y="141.167"/>
      <point x="411.5" y="114.667"/>
      <point x="385.5" y="80" type="curve" smooth="yes"/>
      <point x="372.5" y="62.667"/>
      <point x="350.667" y="43"/>
      <point x="320" y="21" type="curve"/>
      <point x="334" y="72.333"/>
      <point x="341" y="118.167"/>
      <point x="341" y="158.5" type="curve" smooth="yes"/>
      <point x="341" y="198.833"/>
      <point x="338.333" y="234"/>
      <point x="333" y="264" type="curve"/>
      <point x="324.274" y="257.02"/>
      <point x="303.979" y="260.422"/>
      <point x="288.5" y="251" type="curve" smooth="yes"/>
      <point x="280.833" y="246.333"/>
      <point x="274.333" y="235"/>
      <point x="269" y="217" type="curve" smooth="yes"/>
      <point x="230.737" y="102.815"/>
      <point x="96.069" y="-15.05"/>
      <point x="110" y="30" type="curve"/>
      <point x="105.333" y="30"/>
      <point x="100.667" y="31"/>
      <point x="96" y="33" type="curve" smooth="yes"/>
      <point x="82.667" y="40.333"/>
      <point x="76" y="54.833"/>
      <point x="76" y="76.5" type="curve" smooth="yes"/>
      <point x="76" y="98.167"/>
      <point x="87" y="129"/>
      <point x="109" y="169" type="curve" smooth="yes"/>
      <point x="127" y="201"/>
      <point x="148.333" y="231"/>
      <point x="173" y="259" type="curve" smooth="yes"/>
      <point x="217" y="308.333"/>
      <point x="256.667" y="333"/>
      <point x="292" y="333" type="curve" smooth="yes"/>
      <point x="311.333" y="333"/>
      <point x="325.333" y="320.667"/>
      <point x="334" y="296" type="curve" smooth="yes"/>
      <point x="344.087" y="265.739"/>
      <point x="383.271" y="293.905"/>
      <point x="345" y="325" type="curve"/>
      <point x="316.333" y="345"/>
      <point x="287" y="355"/>
      <point x="257" y="355" type="curve" smooth="yes"/>
      <point x="245.667" y="355"/>
      <point x="234.333" y="353.333"/>
      <point x="223" y="350" type="curve" smooth="yes"/>
      <point x="181" y="340"/>
      <point x="144.333" y="316.333"/>
      <point x="113" y="279" type="curve" smooth="yes"/>
      <point x="55.667" y="210.333"/>
      <point x="27" y="147.333"/>
      <point x="27" y="90" type="curve" smooth="yes"/>
      <point x="27" y="47.333"/>
      <point x="44.333" y="18.667"/>
      <point x="79" y="4" type="curve"/>
      <point x="117" y="-6.667"/>
      <point x="155.333" y="12"/>
      <point x="194" y="60" type="curve" smooth="yes"/>
      <point x="226.667" y="100"/>
      <point x="252.333" y="139"/>
      <point x="271" y="177" type="curve"/>
      <point x="272.333" y="171"/>
      <point x="273" y="162"/>
      <point x="273" y="150" type="curve" smooth="yes"/>
      <point x="273" y="90"/>
      <point x="264.333" y="34.667"/>
      <point x="247" y="-16" type="curve"/>
      <point x="231" y="-22.667"/>
      <point x="205.333" y="-31.667"/>
      <point x="170" y="-43" type="curve" smooth="yes"/>
      <point x="93.333" y="-68.333"/>
      <point x="30.333" y="-95.333"/>
      <point x="-19" y="-124" type="curve" smooth="yes"/>
      <point x="-77" y="-158"/>
      <point x="-106" y="-196.333"/>
      <point x="-106" y="-239" type="curve" smooth="yes"/>
      <point x="-106" y="-290.333"/>
      <point x="-74.667" y="-316"/>
    </contour>
    <contour>
      <point x="-36" y="-296" type="curve" smooth="yes"/>
      <point x="-68.667" y="-296"/>
      <point x="-85" y="-283.333"/>
      <point x="-85" y="-258" type="curve" smooth="yes"/>
      <point x="-85" y="-250.667"/>
      <point x="-83.333" y="-242"/>
      <point x="-80" y="-232" type="curve" smooth="yes"/>
      <point x="-70" y="-200"/>
      <point x="-49.333" y="-173.667"/>
      <point x="-18" y="-153" type="curve" smooth="yes"/>
      <point x="24.667" y="-125"/>
      <point x="98" y="-93"/>
      <point x="202" y="-57" type="curve" smooth="yes"/>
      <point x="237" y="-45" type="line"/>
      <point x="223.667" y="-77.667"/>
      <point x="204.667" y="-111.333"/>
      <point x="180" y="-146" type="curve" smooth="yes"/>
      <point x="147.333" y="-189.333"/>
      <point x="117.333" y="-222"/>
      <point x="90" y="-244" type="curve" smooth="yes"/>
      <point x="58" y="-268"/>
      <point x="2.667" y="-296"/>
    </contour>
  </outline>
</glyph>
<glyph name="i" format="2">
  <advance width="174"/>
  <unicode hex="0069"/>
  <note>
i
</note>
  <outline>
    <contour>
      <point x="35" y="22" type="curve" smooth="yes"/>
      <point x="61.58" y="-14.547"/>
      <point x="116.362" y="-8.756"/>
      <point x="165" y="47" type="curve" smooth="yes"/>
      <point x="185" y="69.667"/>
      <point x="214.833" y="122.333"/>
      <point x="223.5" y="141" type="curve" smooth="yes"/>
      <point x="238" y="172.5" type="line" smooth="yes"/>
      <point x="243.333" y="184.167"/>
      <point x="246" y="191.5"/>
      <point x="246" y="194.5" type="curve" smooth="yes"/>
      <point x="246" y="197.5"/>
      <point x="245.333" y="199.667"/>
      <point x="244" y="201" type="curve" smooth="yes"/>
      <point x="239.333" y="205"/>
      <point x="234.667" y="202"/>
      <point x="230" y="192" type="curve" smooth="yes"/>
      <point x="192" y="116"/>
      <point x="160.667" y="65.667"/>
      <point x="136" y="41" type="curve" smooth="yes"/>
      <point x="122" y="28.333"/>
      <point x="108.667" y="22"/>
      <point x="96" y="22" type="curve" smooth="yes"/>
      <point x="75.333" y="22"/>
      <point x="65" y="31.667"/>
      <point x="65" y="51" type="curve" smooth="yes"/>
      <point x="65" y="68.333"/>
      <point x="70.667" y="89.333"/>
      <point x="82" y="114" type="curve" smooth="yes"/>
      <point x="162" y="301" type="line"/>
      <point x="175.333" y="325"/>
      <point x="171.667" y="336"/>
      <point x="141" y="336" type="curve" smooth="yes"/>
      <point x="86" y="335" type="line"/>
      <point x="94" y="324.333"/>
      <point x="98" y="315.667"/>
      <point x="98" y="309" type="curve" smooth="yes"/>
      <point x="98" y="302.333"/>
      <point x="97.333" y="297"/>
      <point x="96" y="293" type="curve" smooth="yes"/>
      <point x="32" y="130" type="line" smooth="yes"/>
      <point x="14.565" y="87.083"/>
      <point x="13.867" y="51.058"/>
    </contour>
    <contour>
      <point x="163" y="377" type="curve" smooth="yes"/>
      <point x="221.546" y="377"/>
      <point x="229.542" y="459"/>
      <point x="176" y="459" type="curve" smooth="yes"/>
      <point x="153.333" y="459"/>
      <point x="132" y="440.667"/>
      <point x="128" y="418" type="curve" smooth="yes"/>
      <point x="125.333" y="395.333"/>
      <point x="140.333" y="377"/>
    </contour>
  </outline>
</glyph>
